{"glyphs":{"0":{"ha":722,"x_min":77,"x_max":645,"o":"m 363 -10 q 272 2 321 -10 q 179 50 223 14 q 106 155 134 85 q 77 338 77 224 l 77 827 q 106 1010 77 942 q 180 1113 136 1078 q 274 1158 225 1147 q 363 1168 323 1168 q 449 1158 401 1168 q 542 1115 497 1148 q 616 1013 587 1081 q 645 827 645 944 l 645 338 q 615 155 645 224 q 541 50 586 85 q 448 2 496 14 q 363 -10 400 -10 m 363 127 q 441 159 415 127 q 467 264 467 192 l 467 891 q 441 1001 467 966 q 363 1036 415 1036 q 283 1001 309 1036 q 257 891 257 966 l 257 264 q 283 159 257 192 q 363 127 309 127 z "},"1":{"ha":560,"x_min":16,"x_max":544,"o":"m 102 0 l 102 132 l 236 132 l 236 922 l 92 795 l 16 884 l 279 1158 l 410 1158 l 410 132 l 544 132 l 544 0 l 102 0 z "},"2":{"ha":661,"x_min":55,"x_max":607,"o":"m 66 0 l 66 103 l 321 595 q 388 741 367 683 q 415 837 409 798 q 422 906 422 876 q 322 1031 422 1031 q 238 981 268 1031 q 209 840 209 932 l 209 785 l 73 785 q 61 854 66 823 q 55 923 55 886 q 83 1038 55 982 q 170 1132 111 1095 q 322 1168 229 1168 q 541 1099 474 1168 q 607 906 607 1030 q 596 813 607 859 q 562 709 586 766 q 496 572 537 652 l 267 138 l 606 138 l 606 0 l 66 0 z "},"3":{"ha":680,"x_min":55,"x_max":618,"o":"m 330 -10 q 127 55 197 -10 q 58 236 58 119 q 62 300 58 265 q 75 372 66 335 l 212 372 l 212 318 q 245 168 212 210 q 330 127 279 127 q 409 157 380 127 q 437 261 437 188 l 437 385 q 412 498 437 458 q 318 537 386 537 l 244 537 l 244 663 l 318 663 q 391 693 362 663 q 420 795 420 723 l 420 906 q 323 1031 420 1031 q 239 981 269 1031 q 209 840 209 932 l 209 785 l 73 785 q 61 852 66 819 q 55 923 55 886 q 84 1038 55 982 q 172 1132 113 1095 q 323 1168 232 1168 q 536 1102 471 1168 q 602 912 602 1035 l 602 841 q 581 729 602 775 q 527 652 559 682 q 459 606 494 623 l 459 600 q 573 522 527 577 q 618 353 618 467 l 618 277 q 579 107 618 170 q 474 17 539 44 q 330 -10 408 -10 z "},"4":{"ha":739,"x_min":52,"x_max":706,"o":"m 435 0 l 435 208 l 52 208 l 52 300 l 389 1158 l 599 1158 l 599 345 l 706 345 l 706 208 l 599 208 l 599 0 l 435 0 m 231 345 l 435 345 l 435 516 l 453 905 l 431 905 l 231 345 z "},"5":{"ha":692,"x_min":82,"x_max":622,"o":"m 347 -10 q 150 57 218 -10 q 82 238 82 124 q 99 372 82 300 l 236 372 l 236 281 q 260 163 236 199 q 339 126 285 126 q 418 166 395 126 q 441 281 441 207 l 441 501 q 428 589 441 559 q 394 629 415 618 q 345 640 372 640 q 280 618 307 640 q 235 567 253 597 l 106 567 l 106 1158 l 604 1158 l 604 1003 l 252 1003 l 252 717 q 324 767 281 749 q 414 786 367 786 q 572 713 522 786 q 622 500 622 641 l 622 303 q 583 116 622 184 q 481 19 544 47 q 347 -10 418 -10 z "},"6":{"ha":705,"x_min":70,"x_max":639,"o":"m 364 -10 q 146 70 222 -10 q 70 344 70 150 l 70 820 q 100 1010 70 940 q 175 1114 130 1080 q 270 1158 220 1148 q 359 1168 319 1168 q 514 1134 455 1168 q 599 1047 572 1099 q 626 941 626 995 q 622 889 626 918 q 608 832 617 860 l 472 832 l 472 857 q 460 969 472 930 q 424 1022 449 1008 q 359 1036 399 1036 q 277 1003 304 1036 q 250 883 250 970 l 250 657 q 315 704 275 685 q 410 724 355 724 q 489 711 449 724 q 564 666 530 698 q 618 579 597 635 q 639 437 639 524 l 639 325 q 605 128 639 201 q 510 22 571 54 q 364 -10 448 -10 m 250 276 q 276 162 250 197 q 362 127 302 127 q 437 164 414 127 q 460 276 460 202 l 460 444 q 433 560 460 528 q 359 592 407 592 q 295 572 323 592 q 250 529 267 553 l 250 276 z "},"7":{"ha":568,"x_min":24,"x_max":553,"o":"m 44 0 l 365 1004 l 24 1004 l 24 1159 l 553 1159 l 553 1066 l 235 0 l 44 0 z "},"8":{"ha":700,"x_min":56,"x_max":646,"o":"m 350 -10 q 245 2 297 -10 q 150 46 193 14 q 81 134 107 77 q 56 281 56 191 l 56 352 q 97 512 56 454 q 199 600 138 569 l 199 605 q 140 649 169 621 q 91 721 111 677 q 72 827 72 764 l 72 908 q 100 1045 72 993 q 173 1123 129 1097 q 264 1159 216 1150 q 351 1168 312 1168 q 438 1159 390 1168 q 529 1123 486 1150 q 602 1045 573 1097 q 630 909 630 994 l 630 827 q 611 721 630 765 q 562 650 591 677 q 503 606 533 622 l 503 600 q 606 512 565 570 q 646 353 646 455 l 646 281 q 620 135 646 192 q 551 46 594 78 q 455 2 507 14 q 350 -10 403 -10 m 342 662 l 359 662 q 425 690 399 662 q 452 799 452 719 l 452 884 q 428 993 452 956 q 351 1031 405 1031 q 274 993 296 1031 q 251 883 251 955 l 251 798 q 275 692 251 722 q 342 662 299 662 m 350 127 q 406 139 380 127 q 449 182 433 151 q 466 272 466 213 l 466 395 q 437 504 466 471 q 359 536 408 536 l 342 536 q 264 502 292 536 q 236 394 236 468 l 236 271 q 252 181 236 212 q 294 138 268 150 q 350 127 320 127 z "},"9":{"ha":705,"x_min":66,"x_max":635,"o":"m 341 1168 q 559 1088 483 1168 q 635 814 635 1008 l 635 338 q 606 148 635 218 q 530 44 576 78 q 435 0 485 10 q 347 -10 386 -10 q 192 24 251 -10 q 106 111 133 59 q 79 217 79 163 q 84 270 79 241 q 98 326 89 298 l 233 326 l 233 301 q 245 190 233 229 q 281 136 256 151 q 347 122 307 122 q 428 155 401 122 q 456 275 456 188 l 456 501 q 390 454 430 473 q 296 435 350 435 q 216 448 256 435 q 142 492 176 460 q 87 579 108 524 q 66 721 66 635 l 66 833 q 100 1030 66 957 q 196 1136 134 1104 q 341 1168 258 1168 m 456 882 q 429 997 456 962 q 343 1031 403 1031 q 269 994 292 1031 q 245 882 245 957 l 245 715 q 272 598 245 631 q 346 566 298 566 q 411 586 382 566 q 456 629 439 606 l 456 882 z "},"A":{"ha":649,"x_min":9,"x_max":640,"o":"m 225 1158 l 423 1158 l 640 0 l 463 0 l 431 208 l 217 208 l 186 0 l 9 0 l 225 1158 m 411 340 l 328 920 l 321 920 l 237 340 l 411 340 z "},"Á":{"ha":649,"x_min":9,"x_max":640,"o":"m 225 1158 l 423 1158 l 640 0 l 463 0 l 431 208 l 217 208 l 186 0 l 9 0 l 225 1158 m 411 340 l 328 920 l 321 920 l 237 340 l 411 340 m 325 1204 l 240 1268 l 404 1462 l 518 1376 l 325 1204 z "},"Ă":{"ha":649,"x_min":9,"x_max":640,"o":"m 225 1158 l 423 1158 l 640 0 l 463 0 l 431 208 l 217 208 l 186 0 l 9 0 l 225 1158 m 411 340 l 328 920 l 321 920 l 237 340 l 411 340 m 321 1211 q 161 1262 213 1211 q 109 1392 109 1312 q 113 1437 109 1415 l 233 1437 q 228 1414 229 1426 q 227 1389 227 1402 q 321 1322 227 1322 q 428 1389 428 1322 q 428 1414 428 1402 q 422 1437 428 1426 l 537 1437 q 541 1392 541 1415 q 487 1264 541 1316 q 321 1211 433 1211 z "},"Ắ":{"ha":649,"x_min":9,"x_max":640,"o":"m 225 1158 l 423 1158 l 640 0 l 463 0 l 431 208 l 217 208 l 186 0 l 9 0 l 225 1158 m 411 340 l 328 920 l 321 920 l 237 340 l 411 340 m 321 1211 q 161 1262 213 1211 q 109 1392 109 1312 q 113 1437 109 1415 l 233 1437 q 228 1414 229 1426 q 227 1389 227 1402 q 321 1322 227 1322 q 428 1389 428 1322 q 428 1414 428 1402 q 422 1437 428 1426 l 537 1437 q 541 1392 541 1415 q 487 1264 541 1316 q 321 1211 433 1211 m 325 1463 l 240 1527 l 404 1721 l 518 1634 l 325 1463 z "},"Ặ":{"ha":649,"x_min":9,"x_max":640,"o":"m 225 1158 l 423 1158 l 640 0 l 463 0 l 431 208 l 217 208 l 186 0 l 9 0 l 225 1158 m 411 340 l 328 920 l 321 920 l 237 340 l 411 340 m 219 -174 q 248 -89 219 -114 q 325 -64 277 -64 q 403 -91 375 -64 q 431 -174 431 -118 q 403 -258 431 -227 q 324 -288 374 -288 q 248 -258 277 -288 q 219 -174 219 -229 m 321 1211 q 161 1262 213 1211 q 109 1392 109 1312 q 113 1437 109 1415 l 233 1437 q 228 1414 229 1426 q 227 1389 227 1402 q 321 1322 227 1322 q 428 1389 428 1322 q 428 1414 428 1402 q 422 1437 428 1426 l 537 1437 q 541 1392 541 1415 q 487 1264 541 1316 q 321 1211 433 1211 z "},"Ằ":{"ha":649,"x_min":9,"x_max":640,"o":"m 225 1158 l 423 1158 l 640 0 l 463 0 l 431 208 l 217 208 l 186 0 l 9 0 l 225 1158 m 411 340 l 328 920 l 321 920 l 237 340 l 411 340 m 321 1211 q 161 1262 213 1211 q 109 1392 109 1312 q 113 1437 109 1415 l 233 1437 q 228 1414 229 1426 q 227 1389 227 1402 q 321 1322 227 1322 q 428 1389 428 1322 q 428 1414 428 1402 q 422 1437 428 1426 l 537 1437 q 541 1392 541 1415 q 487 1264 541 1316 q 321 1211 433 1211 m 327 1449 l 134 1621 l 248 1707 l 412 1513 l 327 1449 z "},"Ẳ":{"ha":649,"x_min":9,"x_max":640,"o":"m 225 1158 l 423 1158 l 640 0 l 463 0 l 431 208 l 217 208 l 186 0 l 9 0 l 225 1158 m 411 340 l 328 920 l 321 920 l 237 340 l 411 340 m 321 1211 q 161 1262 213 1211 q 109 1392 109 1312 q 113 1437 109 1415 l 233 1437 q 228 1414 229 1426 q 227 1389 227 1402 q 321 1322 227 1322 q 428 1389 428 1322 q 428 1414 428 1402 q 422 1437 428 1426 l 537 1437 q 541 1392 541 1415 q 487 1264 541 1316 q 321 1211 433 1211 m 262 1492 l 262 1571 q 317 1585 298 1571 q 336 1622 336 1600 q 299 1676 336 1653 q 200 1704 262 1698 l 224 1796 q 389 1735 329 1785 q 450 1618 450 1685 q 404 1532 450 1563 q 262 1492 359 1501 z "},"Ẵ":{"ha":649,"x_min":9,"x_max":640,"o":"m 225 1158 l 423 1158 l 640 0 l 463 0 l 431 208 l 217 208 l 186 0 l 9 0 l 225 1158 m 411 340 l 328 920 l 321 920 l 237 340 l 411 340 m 321 1211 q 161 1262 213 1211 q 109 1392 109 1312 q 113 1437 109 1415 l 233 1437 q 228 1414 229 1426 q 227 1389 227 1402 q 321 1322 227 1322 q 428 1389 428 1322 q 428 1414 428 1402 q 422 1437 428 1426 l 537 1437 q 541 1392 541 1415 q 487 1264 541 1316 q 321 1211 433 1211 m 418 1471 q 358 1482 383 1471 q 309 1514 333 1493 q 270 1553 282 1539 q 241 1567 258 1567 q 216 1527 216 1567 l 216 1482 l 116 1482 q 115 1508 116 1490 q 114 1533 114 1527 q 152 1648 114 1616 q 239 1679 189 1679 q 295 1669 272 1679 q 340 1638 317 1658 q 374 1603 355 1623 q 411 1584 393 1584 q 439 1619 439 1584 l 439 1667 l 529 1667 q 535 1602 535 1624 q 499 1504 535 1537 q 418 1471 464 1471 z "},"Ǎ":{"ha":649,"x_min":9,"x_max":640,"o":"m 225 1158 l 423 1158 l 640 0 l 463 0 l 431 208 l 217 208 l 186 0 l 9 0 l 225 1158 m 411 340 l 328 920 l 321 920 l 237 340 l 411 340 m 404 1415 l 572 1415 l 406 1204 l 247 1204 l 77 1415 l 245 1415 l 302 1326 l 330 1289 l 357 1326 l 404 1415 z "},"Â":{"ha":649,"x_min":9,"x_max":640,"o":"m 225 1158 l 423 1158 l 640 0 l 463 0 l 431 208 l 217 208 l 186 0 l 9 0 l 225 1158 m 411 340 l 328 920 l 321 920 l 237 340 l 411 340 m 357 1313 l 330 1351 l 302 1313 l 245 1225 l 77 1225 l 247 1435 l 406 1435 l 572 1225 l 404 1225 l 357 1313 z "},"Ấ":{"ha":649,"x_min":9,"x_max":640,"o":"m 225 1158 l 423 1158 l 640 0 l 463 0 l 431 208 l 217 208 l 186 0 l 9 0 l 225 1158 m 411 340 l 328 920 l 321 920 l 237 340 l 411 340 m 357 1313 l 330 1351 l 302 1313 l 245 1225 l 77 1225 l 247 1435 l 406 1435 l 572 1225 l 404 1225 l 357 1313 m 325 1461 l 240 1525 l 404 1718 l 518 1632 l 325 1461 z "},"Ậ":{"ha":649,"x_min":9,"x_max":640,"o":"m 225 1158 l 423 1158 l 640 0 l 463 0 l 431 208 l 217 208 l 186 0 l 9 0 l 225 1158 m 411 340 l 328 920 l 321 920 l 237 340 l 411 340 m 219 -174 q 248 -89 219 -114 q 325 -64 277 -64 q 403 -91 375 -64 q 431 -174 431 -118 q 403 -258 431 -227 q 324 -288 374 -288 q 248 -258 277 -288 q 219 -174 219 -229 m 357 1313 l 330 1351 l 302 1313 l 245 1225 l 77 1225 l 247 1435 l 406 1435 l 572 1225 l 404 1225 l 357 1313 z "},"Ầ":{"ha":649,"x_min":9,"x_max":640,"o":"m 225 1158 l 423 1158 l 640 0 l 463 0 l 431 208 l 217 208 l 186 0 l 9 0 l 225 1158 m 411 340 l 328 920 l 321 920 l 237 340 l 411 340 m 357 1313 l 330 1351 l 302 1313 l 245 1225 l 77 1225 l 247 1435 l 406 1435 l 572 1225 l 404 1225 l 357 1313 m 327 1447 l 134 1619 l 248 1705 l 412 1511 l 327 1447 z "},"Ẩ":{"ha":649,"x_min":9,"x_max":640,"o":"m 225 1158 l 423 1158 l 640 0 l 463 0 l 431 208 l 217 208 l 186 0 l 9 0 l 225 1158 m 411 340 l 328 920 l 321 920 l 237 340 l 411 340 m 357 1313 l 330 1351 l 302 1313 l 245 1225 l 77 1225 l 247 1435 l 406 1435 l 572 1225 l 404 1225 l 357 1313 m 262 1490 l 262 1569 q 317 1583 298 1569 q 336 1619 336 1598 q 299 1674 336 1651 q 200 1702 262 1696 l 224 1794 q 389 1733 329 1783 q 450 1616 450 1683 q 404 1530 450 1561 q 262 1490 359 1499 z "},"Ẫ":{"ha":649,"x_min":9,"x_max":640,"o":"m 225 1158 l 423 1158 l 640 0 l 463 0 l 431 208 l 217 208 l 186 0 l 9 0 l 225 1158 m 411 340 l 328 920 l 321 920 l 237 340 l 411 340 m 357 1313 l 330 1351 l 302 1313 l 245 1225 l 77 1225 l 247 1435 l 406 1435 l 572 1225 l 404 1225 l 357 1313 m 418 1469 q 358 1480 383 1469 q 309 1512 333 1491 q 270 1551 282 1537 q 241 1565 258 1565 q 216 1525 216 1565 l 216 1480 l 116 1480 q 115 1506 116 1488 q 114 1531 114 1525 q 152 1646 114 1614 q 239 1677 189 1677 q 295 1667 272 1677 q 340 1636 317 1656 q 374 1601 355 1621 q 411 1581 393 1581 q 439 1617 439 1581 l 439 1665 l 529 1665 q 535 1600 535 1622 q 499 1502 535 1535 q 418 1469 464 1469 z "},"Ä":{"ha":649,"x_min":9,"x_max":640,"o":"m 225 1158 l 423 1158 l 640 0 l 463 0 l 431 208 l 217 208 l 186 0 l 9 0 l 225 1158 m 411 340 l 328 920 l 321 920 l 237 340 l 411 340 m 174 1210 q 101 1236 121 1210 q 81 1314 81 1263 q 100 1396 81 1368 q 174 1423 120 1423 q 251 1397 229 1423 q 272 1314 272 1370 q 251 1237 272 1265 q 174 1210 229 1210 m 470 1210 q 397 1236 417 1210 q 378 1314 378 1263 q 397 1396 378 1368 q 470 1423 416 1423 q 547 1397 526 1423 q 569 1314 569 1370 q 547 1237 569 1265 q 470 1210 526 1210 z "},"Ǟ":{"ha":649,"x_min":9,"x_max":640,"o":"m 225 1158 l 423 1158 l 640 0 l 463 0 l 431 208 l 217 208 l 186 0 l 9 0 l 225 1158 m 411 340 l 328 920 l 321 920 l 237 340 l 411 340 m 174 1210 q 101 1236 121 1210 q 81 1314 81 1263 q 100 1396 81 1368 q 174 1423 120 1423 q 251 1397 229 1423 q 272 1314 272 1370 q 251 1237 272 1265 q 174 1210 229 1210 m 470 1210 q 397 1236 417 1210 q 378 1314 378 1263 q 397 1396 378 1368 q 470 1423 416 1423 q 547 1397 526 1423 q 569 1314 569 1370 q 547 1237 569 1265 q 470 1210 526 1210 m 113 1627 l 536 1627 l 536 1496 l 113 1496 l 113 1627 z "},"Ạ":{"ha":649,"x_min":9,"x_max":640,"o":"m 225 1158 l 423 1158 l 640 0 l 463 0 l 431 208 l 217 208 l 186 0 l 9 0 l 225 1158 m 411 340 l 328 920 l 321 920 l 237 340 l 411 340 m 219 -174 q 248 -89 219 -114 q 325 -64 277 -64 q 403 -91 375 -64 q 431 -174 431 -118 q 403 -258 431 -227 q 324 -288 374 -288 q 248 -258 277 -288 q 219 -174 219 -229 z "},"À":{"ha":649,"x_min":9,"x_max":640,"o":"m 225 1158 l 423 1158 l 640 0 l 463 0 l 431 208 l 217 208 l 186 0 l 9 0 l 225 1158 m 411 340 l 328 920 l 321 920 l 237 340 l 411 340 m 327 1191 l 134 1362 l 248 1449 l 412 1255 l 327 1191 z "},"Ả":{"ha":649,"x_min":9,"x_max":640,"o":"m 225 1158 l 423 1158 l 640 0 l 463 0 l 431 208 l 217 208 l 186 0 l 9 0 l 225 1158 m 411 340 l 328 920 l 321 920 l 237 340 l 411 340 m 262 1234 l 262 1312 q 317 1327 298 1312 q 336 1363 336 1341 q 299 1417 336 1395 q 200 1445 262 1440 l 224 1537 q 389 1476 329 1527 q 450 1360 450 1426 q 404 1274 450 1305 q 262 1234 359 1242 z "},"Ā":{"ha":649,"x_min":9,"x_max":640,"o":"m 225 1158 l 423 1158 l 640 0 l 463 0 l 431 208 l 217 208 l 186 0 l 9 0 l 225 1158 m 411 340 l 328 920 l 321 920 l 237 340 l 411 340 m 113 1375 l 536 1375 l 536 1244 l 113 1244 l 113 1375 z "},"Ą":{"ha":649,"x_min":9,"x_max":690,"o":"m 225 1158 l 423 1158 l 640 0 l 463 0 l 431 208 l 217 208 l 186 0 l 9 0 l 225 1158 m 411 340 l 328 920 l 321 920 l 237 340 l 411 340 m 568 9 l 640 0 q 595 -82 599 -45 q 612 -140 592 -119 q 663 -162 633 -162 q 674 -162 669 -162 q 686 -161 680 -162 l 690 -264 q 639 -279 663 -275 q 588 -284 616 -284 q 534 -273 567 -284 q 476 -228 501 -261 q 450 -132 450 -195 q 474 -44 450 -79 q 508 0 497 -10 l 568 9 z "},"Å":{"ha":649,"x_min":9,"x_max":640,"o":"m 9 0 l 202 1035 q 134 1108 157 1063 q 112 1204 112 1154 q 135 1302 112 1257 q 204 1373 157 1346 q 325 1400 252 1400 q 490 1343 436 1400 q 545 1204 545 1285 q 520 1109 545 1156 q 446 1034 496 1062 l 640 0 l 463 0 l 431 208 l 217 208 l 186 0 l 9 0 m 324 1114 q 405 1142 378 1114 q 431 1202 431 1171 q 405 1265 431 1240 q 324 1291 378 1291 q 253 1265 275 1291 q 230 1202 230 1240 q 253 1141 230 1168 q 324 1114 277 1114 m 237 340 l 411 340 l 328 920 l 321 920 l 237 340 z "},"Ǻ":{"ha":649,"x_min":9,"x_max":640,"o":"m 9 0 l 201 981 q 134 1055 156 1009 q 112 1150 112 1100 q 135 1247 112 1203 q 204 1319 157 1292 q 325 1346 252 1346 q 363 1344 345 1346 l 528 1455 l 615 1341 l 495 1284 q 545 1150 545 1232 q 520 1055 545 1102 q 448 980 496 1008 l 640 0 l 463 0 l 431 208 l 217 208 l 186 0 l 9 0 m 324 1060 q 405 1088 378 1060 q 431 1147 431 1116 q 405 1211 431 1185 q 324 1236 378 1236 q 253 1211 275 1236 q 230 1147 230 1185 q 253 1087 230 1114 q 324 1060 277 1060 m 237 340 l 411 340 l 328 865 l 321 865 l 237 340 z "},"ǻ":{"ha":649,"x_min":9,"x_max":640,"o":"m 9 0 l 201 981 q 134 1055 156 1009 q 112 1150 112 1100 q 135 1247 112 1203 q 204 1319 157 1292 q 325 1346 252 1346 q 363 1344 345 1346 l 528 1455 l 615 1341 l 495 1284 q 545 1150 545 1232 q 520 1055 545 1102 q 448 980 496 1008 l 640 0 l 463 0 l 431 208 l 217 208 l 186 0 l 9 0 m 324 1060 q 405 1088 378 1060 q 431 1147 431 1116 q 405 1211 431 1185 q 324 1236 378 1236 q 253 1211 275 1236 q 230 1147 230 1185 q 253 1087 230 1114 q 324 1060 277 1060 m 237 340 l 411 340 l 328 865 l 321 865 l 237 340 z "},"Ã":{"ha":649,"x_min":9,"x_max":640,"o":"m 225 1158 l 423 1158 l 640 0 l 463 0 l 431 208 l 217 208 l 186 0 l 9 0 l 225 1158 m 411 340 l 328 920 l 321 920 l 237 340 l 411 340 m 418 1213 q 358 1223 383 1213 q 309 1255 333 1234 q 270 1295 282 1281 q 241 1308 258 1308 q 216 1269 216 1308 l 216 1224 l 116 1224 q 115 1250 116 1232 q 114 1274 114 1268 q 152 1389 114 1358 q 239 1421 189 1421 q 295 1410 272 1421 q 340 1379 317 1400 q 374 1345 355 1364 q 411 1325 393 1325 q 439 1360 439 1325 l 439 1409 l 529 1409 q 535 1343 535 1365 q 499 1246 535 1279 q 418 1213 464 1213 z "},"Æ":{"ha":855,"x_min":4,"x_max":838,"o":"m 297 1158 l 838 1158 l 838 1019 l 570 1019 l 570 675 l 779 675 l 779 523 l 570 523 l 570 139 l 838 139 l 838 0 l 397 0 l 397 208 l 224 208 l 181 0 l 4 0 l 297 1158 m 397 334 l 397 920 l 372 920 l 250 334 l 397 334 z "},"Ǽ":{"ha":855,"x_min":4,"x_max":838,"o":"m 297 1158 l 838 1158 l 838 1019 l 570 1019 l 570 675 l 779 675 l 779 523 l 570 523 l 570 139 l 838 139 l 838 0 l 397 0 l 397 208 l 224 208 l 181 0 l 4 0 l 297 1158 m 397 334 l 397 920 l 372 920 l 250 334 l 397 334 m 497 1204 l 412 1268 l 576 1462 l 690 1376 l 497 1204 z "},"Ǣ":{"ha":855,"x_min":4,"x_max":838,"o":"m 297 1158 l 838 1158 l 838 1019 l 570 1019 l 570 675 l 779 675 l 779 523 l 570 523 l 570 139 l 838 139 l 838 0 l 397 0 l 397 208 l 224 208 l 181 0 l 4 0 l 297 1158 m 397 334 l 397 920 l 372 920 l 250 334 l 397 334 m 286 1375 l 708 1375 l 708 1244 l 286 1244 l 286 1375 z "},"B":{"ha":705,"x_min":96,"x_max":653,"o":"m 96 1158 l 273 1158 q 395 1151 332 1158 q 513 1118 458 1143 q 601 1040 567 1093 q 634 896 634 987 l 634 840 q 590 689 634 747 q 493 612 547 631 l 493 606 q 612 517 572 575 q 653 355 653 458 l 653 296 q 623 143 653 202 q 541 54 593 85 q 421 11 488 22 q 280 0 354 0 l 96 0 l 96 1158 m 302 663 q 414 697 372 663 q 456 814 456 732 l 456 861 q 422 986 456 942 q 302 1030 389 1030 l 271 1030 l 271 663 l 302 663 m 318 128 q 430 163 389 128 q 472 279 472 198 l 472 370 q 438 495 472 451 q 318 538 405 538 l 271 538 l 271 128 l 318 128 z "},"Ḅ":{"ha":705,"x_min":96,"x_max":653,"o":"m 96 1158 l 273 1158 q 395 1151 332 1158 q 513 1118 458 1143 q 601 1040 567 1093 q 634 896 634 987 l 634 840 q 590 689 634 747 q 493 612 547 631 l 493 606 q 612 517 572 575 q 653 355 653 458 l 653 296 q 623 143 653 202 q 541 54 593 85 q 421 11 488 22 q 280 0 354 0 l 96 0 l 96 1158 m 302 663 q 414 697 372 663 q 456 814 456 732 l 456 861 q 422 986 456 942 q 302 1030 389 1030 l 271 1030 l 271 663 l 302 663 m 318 128 q 430 163 389 128 q 472 279 472 198 l 472 370 q 438 495 472 451 q 318 538 405 538 l 271 538 l 271 128 l 318 128 m 247 -174 q 276 -89 247 -114 q 353 -64 304 -64 q 431 -91 403 -64 q 459 -174 459 -118 q 431 -258 459 -227 q 352 -288 402 -288 q 276 -258 304 -288 q 247 -174 247 -229 z "},"C":{"ha":629,"x_min":73,"x_max":601,"o":"m 361 -10 q 269 2 319 -10 q 174 53 219 14 q 101 169 130 92 q 73 377 73 247 l 73 787 q 92 961 73 892 q 143 1073 111 1031 q 213 1135 174 1114 q 289 1162 251 1156 q 360 1168 328 1168 q 502 1135 450 1168 q 577 1046 554 1102 q 600 923 600 990 q 594 854 600 886 q 581 785 588 823 l 445 785 l 445 840 q 355 1031 445 1031 q 282 989 307 1031 q 256 836 256 947 l 256 314 q 282 167 256 206 q 361 127 307 127 q 422 159 398 127 q 447 260 447 191 l 447 370 l 601 370 l 601 263 q 539 57 601 124 q 361 -10 477 -10 z "},"Ć":{"ha":629,"x_min":73,"x_max":601,"o":"m 361 -10 q 269 2 319 -10 q 174 53 219 14 q 101 169 130 92 q 73 377 73 247 l 73 787 q 92 961 73 892 q 143 1073 111 1031 q 213 1135 174 1114 q 289 1162 251 1156 q 360 1168 328 1168 q 502 1135 450 1168 q 577 1046 554 1102 q 600 923 600 990 q 594 854 600 886 q 581 785 588 823 l 445 785 l 445 840 q 355 1031 445 1031 q 282 989 307 1031 q 256 836 256 947 l 256 314 q 282 167 256 206 q 361 127 307 127 q 422 159 398 127 q 447 260 447 191 l 447 370 l 601 370 l 601 263 q 539 57 601 124 q 361 -10 477 -10 m 315 1204 l 230 1268 l 393 1462 l 508 1376 l 315 1204 z "},"Č":{"ha":629,"x_min":67,"x_max":601,"o":"m 361 -10 q 269 2 319 -10 q 174 53 219 14 q 101 169 130 92 q 73 377 73 247 l 73 787 q 92 961 73 892 q 143 1073 111 1031 q 213 1135 174 1114 q 289 1162 251 1156 q 360 1168 328 1168 q 502 1135 450 1168 q 577 1046 554 1102 q 600 923 600 990 q 594 854 600 886 q 581 785 588 823 l 445 785 l 445 840 q 355 1031 445 1031 q 282 989 307 1031 q 256 836 256 947 l 256 314 q 282 167 256 206 q 361 127 307 127 q 422 159 398 127 q 447 260 447 191 l 447 370 l 601 370 l 601 263 q 539 57 601 124 q 361 -10 477 -10 m 393 1415 l 562 1415 l 395 1204 l 237 1204 l 67 1415 l 235 1415 l 292 1326 l 319 1289 l 347 1326 l 393 1415 z "},"Ç":{"ha":629,"x_min":73,"x_max":601,"o":"m 361 -10 q 269 2 319 -10 q 174 53 219 14 q 101 169 130 92 q 73 377 73 247 l 73 787 q 92 961 73 892 q 143 1073 111 1031 q 213 1135 174 1114 q 289 1162 251 1156 q 360 1168 328 1168 q 502 1135 450 1168 q 577 1046 554 1102 q 600 923 600 990 q 594 854 600 886 q 581 785 588 823 l 445 785 l 445 840 q 355 1031 445 1031 q 282 989 307 1031 q 256 836 256 947 l 256 314 q 282 167 256 206 q 361 127 307 127 q 422 159 398 127 q 447 260 447 191 l 447 370 l 601 370 l 601 263 q 539 57 601 124 q 361 -10 477 -10 m 416 9 l 421 -71 q 409 -186 425 -143 q 366 -250 392 -229 q 312 -278 339 -271 q 269 -284 286 -284 q 218 -279 241 -284 q 167 -264 195 -275 l 172 -161 q 183 -162 177 -162 q 194 -162 189 -162 q 268 -139 240 -162 q 298 -38 295 -117 l 300 9 l 416 9 z "},"Ĉ":{"ha":629,"x_min":67,"x_max":601,"o":"m 361 -10 q 269 2 319 -10 q 174 53 219 14 q 101 169 130 92 q 73 377 73 247 l 73 787 q 92 961 73 892 q 143 1073 111 1031 q 213 1135 174 1114 q 289 1162 251 1156 q 360 1168 328 1168 q 502 1135 450 1168 q 577 1046 554 1102 q 600 923 600 990 q 594 854 600 886 q 581 785 588 823 l 445 785 l 445 840 q 355 1031 445 1031 q 282 989 307 1031 q 256 836 256 947 l 256 314 q 282 167 256 206 q 361 127 307 127 q 422 159 398 127 q 447 260 447 191 l 447 370 l 601 370 l 601 263 q 539 57 601 124 q 361 -10 477 -10 m 347 1313 l 319 1351 l 292 1313 l 235 1225 l 67 1225 l 237 1435 l 395 1435 l 562 1225 l 393 1225 l 347 1313 z "},"Ċ":{"ha":629,"x_min":73,"x_max":601,"o":"m 361 -10 q 269 2 319 -10 q 174 53 219 14 q 101 169 130 92 q 73 377 73 247 l 73 787 q 92 961 73 892 q 143 1073 111 1031 q 213 1135 174 1114 q 289 1162 251 1156 q 360 1168 328 1168 q 502 1135 450 1168 q 577 1046 554 1102 q 600 923 600 990 q 594 854 600 886 q 581 785 588 823 l 445 785 l 445 840 q 355 1031 445 1031 q 282 989 307 1031 q 256 836 256 947 l 256 314 q 282 167 256 206 q 361 127 307 127 q 422 159 398 127 q 447 260 447 191 l 447 370 l 601 370 l 601 263 q 539 57 601 124 q 361 -10 477 -10 m 313 1214 q 237 1244 266 1214 q 208 1328 208 1274 q 237 1413 208 1388 q 314 1438 266 1438 q 392 1411 364 1438 q 420 1328 420 1384 q 392 1244 420 1275 q 313 1214 363 1214 z "},"D":{"ha":713,"x_min":96,"x_max":652,"o":"m 278 0 l 96 0 l 96 1158 l 278 1158 q 380 1154 328 1158 q 480 1129 432 1149 q 568 1066 529 1109 q 629 945 606 1022 q 652 747 652 868 l 652 411 q 629 213 652 290 q 568 92 606 136 q 480 29 529 48 q 380 5 432 9 q 278 0 328 0 m 271 1025 l 271 134 l 309 134 q 407 157 373 134 q 455 239 441 180 q 468 408 468 299 l 468 751 q 455 919 468 860 q 407 1002 441 979 q 309 1025 373 1025 l 271 1025 z "},"Ð":{"ha":696,"x_min":26,"x_max":635,"o":"m 83 554 l 26 554 l 26 691 l 83 691 l 83 1170 l 272 1170 q 359 1164 311 1170 q 456 1138 408 1158 q 545 1074 505 1118 q 610 956 585 1031 q 635 766 635 881 l 635 411 q 610 217 635 294 q 545 97 585 141 q 456 32 505 53 q 359 6 408 12 q 272 0 311 0 l 83 0 l 83 554 m 280 121 q 413 183 374 121 q 452 378 452 245 l 452 798 q 415 985 452 922 q 280 1048 378 1048 l 254 1048 l 254 691 l 366 691 l 366 554 l 254 554 l 254 121 l 280 121 z "},"Ď":{"ha":713,"x_min":96,"x_max":652,"o":"m 278 0 l 96 0 l 96 1158 l 278 1158 q 380 1154 328 1158 q 480 1129 432 1149 q 568 1066 529 1109 q 629 945 606 1022 q 652 747 652 868 l 652 411 q 629 213 652 290 q 568 92 606 136 q 480 29 529 48 q 380 5 432 9 q 278 0 328 0 m 271 1025 l 271 134 l 309 134 q 407 157 373 134 q 455 239 441 180 q 468 408 468 299 l 468 751 q 455 919 468 860 q 407 1002 441 979 q 309 1025 373 1025 l 271 1025 m 435 1415 l 604 1415 l 437 1204 l 279 1204 l 109 1415 l 277 1415 l 334 1326 l 361 1289 l 389 1326 l 435 1415 z "},"Ḓ":{"ha":713,"x_min":96,"x_max":652,"o":"m 278 0 l 96 0 l 96 1158 l 278 1158 q 380 1154 328 1158 q 480 1129 432 1149 q 568 1066 529 1109 q 629 945 606 1022 q 652 747 652 868 l 652 411 q 629 213 652 290 q 568 92 606 136 q 480 29 529 48 q 380 5 432 9 q 278 0 328 0 m 271 1025 l 271 134 l 309 134 q 407 157 373 134 q 455 239 441 180 q 468 408 468 299 l 468 751 q 455 919 468 860 q 407 1002 441 979 q 309 1025 373 1025 l 271 1025 m 414 -44 l 601 -316 l 452 -316 l 393 -213 l 358 -157 l 324 -213 l 260 -316 l 113 -316 l 296 -44 l 414 -44 z "},"Đ":{"ha":696,"x_min":26,"x_max":635,"o":"m 83 554 l 26 554 l 26 691 l 83 691 l 83 1170 l 272 1170 q 359 1164 311 1170 q 456 1138 408 1158 q 545 1074 505 1118 q 610 956 585 1031 q 635 766 635 881 l 635 411 q 610 217 635 294 q 545 97 585 141 q 456 32 505 53 q 359 6 408 12 q 272 0 311 0 l 83 0 l 83 554 m 280 121 q 413 183 374 121 q 452 378 452 245 l 452 798 q 415 985 452 922 q 280 1048 378 1048 l 254 1048 l 254 691 l 366 691 l 366 554 l 254 554 l 254 121 l 280 121 z "},"Ḍ":{"ha":713,"x_min":96,"x_max":652,"o":"m 278 0 l 96 0 l 96 1158 l 278 1158 q 380 1154 328 1158 q 480 1129 432 1149 q 568 1066 529 1109 q 629 945 606 1022 q 652 747 652 868 l 652 411 q 629 213 652 290 q 568 92 606 136 q 480 29 529 48 q 380 5 432 9 q 278 0 328 0 m 271 1025 l 271 134 l 309 134 q 407 157 373 134 q 455 239 441 180 q 468 408 468 299 l 468 751 q 455 919 468 860 q 407 1002 441 979 q 309 1025 373 1025 l 271 1025 m 251 -174 q 280 -89 251 -114 q 357 -64 309 -64 q 435 -91 407 -64 q 463 -174 463 -118 q 435 -258 463 -227 q 356 -288 406 -288 q 280 -258 309 -288 q 251 -174 251 -229 z "},"Ḏ":{"ha":713,"x_min":96,"x_max":652,"o":"m 278 0 l 96 0 l 96 1158 l 278 1158 q 380 1154 328 1158 q 480 1129 432 1149 q 568 1066 529 1109 q 629 945 606 1022 q 652 747 652 868 l 652 411 q 629 213 652 290 q 568 92 606 136 q 480 29 529 48 q 380 5 432 9 q 278 0 328 0 m 271 1025 l 271 134 l 309 134 q 407 157 373 134 q 455 239 441 180 q 468 408 468 299 l 468 751 q 455 919 468 860 q 407 1002 441 979 q 309 1025 373 1025 l 271 1025 m 145 -106 l 568 -106 l 568 -237 l 145 -237 l 145 -106 z "},"Ɖ":{"ha":696,"x_min":26,"x_max":635,"o":"m 83 554 l 26 554 l 26 691 l 83 691 l 83 1170 l 272 1170 q 359 1164 311 1170 q 456 1138 408 1158 q 545 1074 505 1118 q 610 956 585 1031 q 635 766 635 881 l 635 411 q 610 217 635 294 q 545 97 585 141 q 456 32 505 53 q 359 6 408 12 q 272 0 311 0 l 83 0 l 83 554 m 280 121 q 413 183 374 121 q 452 378 452 245 l 452 798 q 415 985 452 922 q 280 1048 378 1048 l 254 1048 l 254 691 l 366 691 l 366 554 l 254 554 l 254 121 l 280 121 z "},"ɖ":{"ha":696,"x_min":26,"x_max":635,"o":"m 83 554 l 26 554 l 26 691 l 83 691 l 83 1170 l 272 1170 q 359 1164 311 1170 q 456 1138 408 1158 q 545 1074 505 1118 q 610 956 585 1031 q 635 766 635 881 l 635 411 q 610 217 635 294 q 545 97 585 141 q 456 32 505 53 q 359 6 408 12 q 272 0 311 0 l 83 0 l 83 554 m 280 121 q 413 183 374 121 q 452 378 452 245 l 452 798 q 415 985 452 922 q 280 1048 378 1048 l 254 1048 l 254 691 l 366 691 l 366 554 l 254 554 l 254 121 l 280 121 z "},"E":{"ha":556,"x_min":96,"x_max":538,"o":"m 96 1158 l 538 1158 l 538 1020 l 271 1020 l 271 673 l 481 673 l 481 535 l 271 535 l 271 138 l 538 138 l 538 0 l 96 0 l 96 1158 z "},"É":{"ha":556,"x_min":96,"x_max":538,"o":"m 96 1158 l 538 1158 l 538 1020 l 271 1020 l 271 673 l 481 673 l 481 535 l 271 535 l 271 138 l 538 138 l 538 0 l 96 0 l 96 1158 m 312 1204 l 227 1268 l 391 1462 l 505 1376 l 312 1204 z "},"Ĕ":{"ha":556,"x_min":96,"x_max":538,"o":"m 96 1158 l 538 1158 l 538 1020 l 271 1020 l 271 673 l 481 673 l 481 535 l 271 535 l 271 138 l 538 138 l 538 0 l 96 0 l 96 1158 m 309 1211 q 148 1262 200 1211 q 96 1392 96 1312 q 100 1437 96 1415 l 220 1437 q 215 1414 216 1426 q 214 1389 214 1402 q 308 1322 214 1322 q 415 1389 415 1322 q 415 1414 415 1402 q 410 1437 415 1426 l 524 1437 q 528 1392 528 1415 q 474 1264 528 1316 q 309 1211 420 1211 z "},"Ě":{"ha":556,"x_min":64,"x_max":559,"o":"m 96 1158 l 538 1158 l 538 1020 l 271 1020 l 271 673 l 481 673 l 481 535 l 271 535 l 271 138 l 538 138 l 538 0 l 96 0 l 96 1158 m 391 1415 l 559 1415 l 393 1204 l 234 1204 l 64 1415 l 233 1415 l 290 1326 l 317 1289 l 344 1326 l 391 1415 z "},"Ȩ":{"ha":556,"x_min":96,"x_max":538,"o":"m 96 1158 l 538 1158 l 538 1020 l 271 1020 l 271 673 l 481 673 l 481 535 l 271 535 l 271 138 l 538 138 l 538 0 l 96 0 l 96 1158 m 380 9 l 385 -71 q 372 -186 389 -143 q 329 -250 355 -229 q 276 -278 302 -271 q 233 -284 249 -284 q 181 -279 205 -284 q 130 -264 158 -275 l 135 -161 q 146 -162 140 -162 q 157 -162 152 -162 q 231 -139 203 -162 q 262 -38 258 -117 l 264 9 l 380 9 z "},"Ê":{"ha":556,"x_min":64,"x_max":559,"o":"m 96 1158 l 538 1158 l 538 1020 l 271 1020 l 271 673 l 481 673 l 481 535 l 271 535 l 271 138 l 538 138 l 538 0 l 96 0 l 96 1158 m 344 1313 l 317 1351 l 290 1313 l 233 1225 l 64 1225 l 234 1435 l 393 1435 l 559 1225 l 391 1225 l 344 1313 z "},"Ế":{"ha":556,"x_min":64,"x_max":559,"o":"m 96 1158 l 538 1158 l 538 1020 l 271 1020 l 271 673 l 481 673 l 481 535 l 271 535 l 271 138 l 538 138 l 538 0 l 96 0 l 96 1158 m 344 1313 l 317 1351 l 290 1313 l 233 1225 l 64 1225 l 234 1435 l 393 1435 l 559 1225 l 391 1225 l 344 1313 m 312 1461 l 227 1525 l 391 1718 l 505 1632 l 312 1461 z "},"Ệ":{"ha":556,"x_min":64,"x_max":559,"o":"m 96 1158 l 538 1158 l 538 1020 l 271 1020 l 271 673 l 481 673 l 481 535 l 271 535 l 271 138 l 538 138 l 538 0 l 96 0 l 96 1158 m 172 -174 q 201 -89 172 -114 q 278 -64 230 -64 q 356 -91 328 -64 q 385 -174 385 -118 q 356 -258 385 -227 q 277 -288 328 -288 q 201 -258 230 -288 q 172 -174 172 -229 m 344 1313 l 317 1351 l 290 1313 l 233 1225 l 64 1225 l 234 1435 l 393 1435 l 559 1225 l 391 1225 l 344 1313 z "},"Ề":{"ha":556,"x_min":64,"x_max":559,"o":"m 96 1158 l 538 1158 l 538 1020 l 271 1020 l 271 673 l 481 673 l 481 535 l 271 535 l 271 138 l 538 138 l 538 0 l 96 0 l 96 1158 m 344 1313 l 317 1351 l 290 1313 l 233 1225 l 64 1225 l 234 1435 l 393 1435 l 559 1225 l 391 1225 l 344 1313 m 314 1447 l 121 1619 l 235 1705 l 399 1511 l 314 1447 z "},"Ể":{"ha":556,"x_min":64,"x_max":559,"o":"m 96 1158 l 538 1158 l 538 1020 l 271 1020 l 271 673 l 481 673 l 481 535 l 271 535 l 271 138 l 538 138 l 538 0 l 96 0 l 96 1158 m 344 1313 l 317 1351 l 290 1313 l 233 1225 l 64 1225 l 234 1435 l 393 1435 l 559 1225 l 391 1225 l 344 1313 m 250 1490 l 250 1569 q 304 1583 286 1569 q 323 1619 323 1598 q 286 1674 323 1651 q 187 1702 250 1696 l 212 1794 q 376 1733 316 1783 q 437 1616 437 1683 q 391 1530 437 1561 q 250 1490 346 1499 z "},"Ễ":{"ha":556,"x_min":64,"x_max":559,"o":"m 96 1158 l 538 1158 l 538 1020 l 271 1020 l 271 673 l 481 673 l 481 535 l 271 535 l 271 138 l 538 138 l 538 0 l 96 0 l 96 1158 m 344 1313 l 317 1351 l 290 1313 l 233 1225 l 64 1225 l 234 1435 l 393 1435 l 559 1225 l 391 1225 l 344 1313 m 405 1469 q 345 1480 370 1469 q 296 1512 320 1491 q 257 1551 269 1537 q 228 1565 245 1565 q 203 1525 203 1565 l 203 1480 l 103 1480 q 102 1506 103 1488 q 101 1531 101 1525 q 139 1646 101 1614 q 226 1677 176 1677 q 282 1667 259 1677 q 327 1636 304 1656 q 361 1601 342 1621 q 398 1581 380 1581 q 427 1617 427 1581 l 427 1665 l 516 1665 q 522 1600 522 1622 q 487 1502 522 1535 q 405 1469 451 1469 z "},"Ë":{"ha":556,"x_min":68,"x_max":556,"o":"m 96 1158 l 538 1158 l 538 1020 l 271 1020 l 271 673 l 481 673 l 481 535 l 271 535 l 271 138 l 538 138 l 538 0 l 96 0 l 96 1158 m 161 1210 q 88 1236 108 1210 q 68 1314 68 1263 q 87 1396 68 1368 q 161 1423 107 1423 q 238 1397 216 1423 q 259 1314 259 1370 q 238 1237 259 1265 q 161 1210 216 1210 m 457 1210 q 385 1236 404 1210 q 365 1314 365 1263 q 384 1396 365 1368 q 457 1423 404 1423 q 534 1397 513 1423 q 556 1314 556 1370 q 534 1237 556 1265 q 457 1210 513 1210 z "},"Ė":{"ha":556,"x_min":96,"x_max":538,"o":"m 96 1158 l 538 1158 l 538 1020 l 271 1020 l 271 673 l 481 673 l 481 535 l 271 535 l 271 138 l 538 138 l 538 0 l 96 0 l 96 1158 m 311 1214 q 234 1244 263 1214 q 205 1328 205 1274 q 234 1413 205 1388 q 311 1438 263 1438 q 390 1411 361 1438 q 418 1328 418 1384 q 389 1244 418 1275 q 311 1214 361 1214 z "},"Ẹ":{"ha":556,"x_min":96,"x_max":538,"o":"m 96 1158 l 538 1158 l 538 1020 l 271 1020 l 271 673 l 481 673 l 481 535 l 271 535 l 271 138 l 538 138 l 538 0 l 96 0 l 96 1158 m 172 -174 q 201 -89 172 -114 q 278 -64 230 -64 q 356 -91 328 -64 q 385 -174 385 -118 q 356 -258 385 -227 q 277 -288 328 -288 q 201 -258 230 -288 q 172 -174 172 -229 z "},"È":{"ha":556,"x_min":96,"x_max":538,"o":"m 96 1158 l 538 1158 l 538 1020 l 271 1020 l 271 673 l 481 673 l 481 535 l 271 535 l 271 138 l 538 138 l 538 0 l 96 0 l 96 1158 m 314 1191 l 121 1362 l 235 1449 l 399 1255 l 314 1191 z "},"Ẻ":{"ha":556,"x_min":96,"x_max":538,"o":"m 96 1158 l 538 1158 l 538 1020 l 271 1020 l 271 673 l 481 673 l 481 535 l 271 535 l 271 138 l 538 138 l 538 0 l 96 0 l 96 1158 m 250 1234 l 250 1312 q 304 1327 286 1312 q 323 1363 323 1341 q 286 1417 323 1395 q 187 1445 250 1440 l 212 1537 q 376 1476 316 1527 q 437 1360 437 1426 q 391 1274 437 1305 q 250 1234 346 1242 z "},"Ē":{"ha":556,"x_min":96,"x_max":538,"o":"m 96 1158 l 538 1158 l 538 1020 l 271 1020 l 271 673 l 481 673 l 481 535 l 271 535 l 271 138 l 538 138 l 538 0 l 96 0 l 96 1158 m 100 1375 l 523 1375 l 523 1244 l 100 1244 l 100 1375 z "},"Ę":{"ha":556,"x_min":96,"x_max":545,"o":"m 96 1158 l 538 1158 l 538 1020 l 271 1020 l 271 673 l 481 673 l 481 535 l 271 535 l 271 138 l 538 138 l 538 0 l 96 0 l 96 1158 m 423 9 l 494 0 q 450 -82 454 -45 q 467 -140 447 -119 q 518 -162 488 -162 q 529 -162 524 -162 q 541 -161 535 -162 l 545 -264 q 494 -279 517 -275 q 443 -284 471 -284 q 389 -273 422 -284 q 331 -228 356 -261 q 305 -132 305 -195 q 329 -44 305 -79 q 363 0 352 -10 l 423 9 z "},"Ɛ":{"ha":659,"x_min":77,"x_max":641,"o":"m 621 372 q 634 300 630 335 q 638 236 638 265 q 568 55 638 119 q 366 -10 498 -10 q 222 17 288 -10 q 117 107 157 44 q 77 277 77 170 l 77 353 q 123 522 77 467 q 237 600 169 577 l 237 606 q 169 652 202 623 q 115 729 136 682 q 94 841 94 775 l 94 912 q 160 1102 94 1035 q 373 1168 225 1168 q 524 1132 465 1168 q 612 1038 583 1095 q 641 923 641 982 q 635 852 641 886 q 623 785 630 819 l 487 785 l 487 840 q 457 981 487 932 q 373 1031 427 1031 q 275 906 275 1031 l 275 795 q 305 693 275 723 q 378 663 334 663 l 452 663 l 452 537 l 378 537 q 284 498 310 537 q 258 385 258 458 l 258 261 q 287 157 258 188 q 366 127 315 127 q 450 168 416 127 q 484 318 484 210 l 484 372 l 621 372 z "},"Ǝ":{"ha":556,"x_min":18,"x_max":460,"o":"m 460 1158 l 460 0 l 18 0 l 18 138 l 285 138 l 285 535 l 75 535 l 75 673 l 285 673 l 285 1020 l 18 1020 l 18 1158 l 460 1158 z "},"Ʃ":{"ha":516,"x_min":9,"x_max":498,"o":"m 9 0 l 9 93 l 258 607 l 9 1065 l 9 1158 l 498 1158 l 498 1020 l 206 1020 l 430 606 l 206 138 l 498 138 l 498 0 l 9 0 z "},"Ẽ":{"ha":556,"x_min":96,"x_max":538,"o":"m 96 1158 l 538 1158 l 538 1020 l 271 1020 l 271 673 l 481 673 l 481 535 l 271 535 l 271 138 l 538 138 l 538 0 l 96 0 l 96 1158 m 405 1213 q 345 1223 370 1213 q 296 1255 320 1234 q 257 1295 269 1281 q 228 1308 245 1308 q 203 1269 203 1308 l 203 1224 l 103 1224 q 102 1250 103 1232 q 101 1274 101 1268 q 139 1389 101 1358 q 226 1421 176 1421 q 282 1410 259 1421 q 327 1379 304 1400 q 361 1345 342 1364 q 398 1325 380 1325 q 427 1360 427 1325 l 427 1409 l 516 1409 q 522 1343 522 1365 q 487 1246 522 1279 q 405 1213 451 1213 z "},"Ə":{"ha":686,"x_min":77,"x_max":609,"o":"m 609 794 l 609 372 q 590 198 609 268 q 538 87 570 129 q 468 24 506 45 q 391 -4 429 3 q 321 -11 353 -11 q 200 21 256 -11 q 111 133 144 54 q 77 351 77 212 q 84 493 77 421 q 101 621 90 566 l 426 621 l 426 836 q 404 990 426 949 q 320 1032 382 1032 q 259 998 287 1032 q 231 872 231 964 l 231 802 l 82 802 l 82 854 q 150 1094 82 1019 q 344 1170 217 1170 q 404 1163 370 1170 q 474 1137 438 1157 q 541 1075 510 1116 q 590 966 571 1034 q 609 794 609 897 m 248 479 q 245 406 246 460 q 245 291 245 351 q 266 161 245 195 q 332 126 286 127 q 385 138 363 126 q 416 184 406 149 q 426 290 426 220 l 426 479 l 248 479 z "},"Ʒ":{"ha":662,"x_min":55,"x_max":616,"o":"m 241 663 l 386 1020 l 94 1020 l 94 1158 l 583 1158 l 583 1065 l 419 633 q 514 604 469 633 q 588 513 559 575 q 616 353 616 452 l 616 277 q 576 107 616 170 q 471 17 536 44 q 328 -10 406 -10 q 125 55 195 -10 q 55 236 55 119 q 59 300 55 265 q 72 372 63 335 l 209 372 l 209 318 q 243 168 209 210 q 328 127 277 127 q 406 157 378 127 q 435 261 435 188 l 435 385 q 409 498 435 458 q 315 537 383 537 l 241 537 l 241 663 z "},"Ǯ":{"ha":662,"x_min":55,"x_max":616,"o":"m 241 663 l 386 1020 l 94 1020 l 94 1158 l 583 1158 l 583 1065 l 419 633 q 514 604 469 633 q 588 513 559 575 q 616 353 616 452 l 616 277 q 576 107 616 170 q 471 17 536 44 q 328 -10 406 -10 q 125 55 195 -10 q 55 236 55 119 q 59 300 55 265 q 72 372 63 335 l 209 372 l 209 318 q 243 168 209 210 q 328 127 277 127 q 406 157 378 127 q 435 261 435 188 l 435 385 q 409 498 435 458 q 315 537 383 537 l 241 537 l 241 663 m 406 1415 l 575 1415 l 408 1204 l 250 1204 l 80 1415 l 248 1415 l 305 1326 l 332 1289 l 359 1326 l 406 1415 z "},"F":{"ha":553,"x_min":96,"x_max":538,"o":"m 96 1158 l 538 1158 l 538 1015 l 271 1015 l 271 673 l 481 673 l 481 535 l 271 535 l 271 0 l 96 0 l 96 1158 z "},"G":{"ha":698,"x_min":73,"x_max":643,"o":"m 332 -11 q 274 -3 307 -11 q 205 26 240 4 q 140 90 170 47 q 91 203 110 133 q 73 377 73 273 l 73 787 q 92 961 73 892 q 144 1073 112 1031 q 216 1135 176 1114 q 294 1162 255 1156 q 367 1168 334 1168 q 516 1135 461 1168 q 596 1046 572 1102 q 620 923 620 990 q 614 854 620 886 q 602 785 609 823 l 466 785 l 466 840 q 362 1031 466 1031 q 281 989 307 1031 q 256 836 256 947 l 256 314 q 282 166 256 206 q 363 127 308 127 q 448 183 422 127 q 475 323 475 240 l 475 471 l 385 471 l 385 587 l 643 587 l 643 0 l 529 0 l 510 111 q 438 26 486 62 q 332 -11 391 -11 z "},"Ğ":{"ha":698,"x_min":73,"x_max":643,"o":"m 332 -11 q 274 -3 307 -11 q 205 26 240 4 q 140 90 170 47 q 91 203 110 133 q 73 377 73 273 l 73 787 q 92 961 73 892 q 144 1073 112 1031 q 216 1135 176 1114 q 294 1162 255 1156 q 367 1168 334 1168 q 516 1135 461 1168 q 596 1046 572 1102 q 620 923 620 990 q 614 854 620 886 q 602 785 609 823 l 466 785 l 466 840 q 362 1031 466 1031 q 281 989 307 1031 q 256 836 256 947 l 256 314 q 282 166 256 206 q 363 127 308 127 q 448 183 422 127 q 475 323 475 240 l 475 471 l 385 471 l 385 587 l 643 587 l 643 0 l 529 0 l 510 111 q 438 26 486 62 q 332 -11 391 -11 m 346 1211 q 185 1262 237 1211 q 133 1392 133 1312 q 137 1437 133 1415 l 258 1437 q 252 1414 253 1426 q 251 1389 251 1402 q 345 1322 251 1322 q 452 1389 452 1322 q 452 1414 452 1402 q 447 1437 452 1426 l 562 1437 q 566 1392 566 1415 q 511 1264 566 1316 q 346 1211 457 1211 z "},"Ǧ":{"ha":698,"x_min":73,"x_max":643,"o":"m 332 -11 q 274 -3 307 -11 q 205 26 240 4 q 140 90 170 47 q 91 203 110 133 q 73 377 73 273 l 73 787 q 92 961 73 892 q 144 1073 112 1031 q 216 1135 176 1114 q 294 1162 255 1156 q 367 1168 334 1168 q 516 1135 461 1168 q 596 1046 572 1102 q 620 923 620 990 q 614 854 620 886 q 602 785 609 823 l 466 785 l 466 840 q 362 1031 466 1031 q 281 989 307 1031 q 256 836 256 947 l 256 314 q 282 166 256 206 q 363 127 308 127 q 448 183 422 127 q 475 323 475 240 l 475 471 l 385 471 l 385 587 l 643 587 l 643 0 l 529 0 l 510 111 q 438 26 486 62 q 332 -11 391 -11 m 428 1415 l 597 1415 l 430 1204 l 271 1204 l 102 1415 l 270 1415 l 327 1326 l 354 1289 l 381 1326 l 428 1415 z "},"Ĝ":{"ha":698,"x_min":73,"x_max":643,"o":"m 332 -11 q 274 -3 307 -11 q 205 26 240 4 q 140 90 170 47 q 91 203 110 133 q 73 377 73 273 l 73 787 q 92 961 73 892 q 144 1073 112 1031 q 216 1135 176 1114 q 294 1162 255 1156 q 367 1168 334 1168 q 516 1135 461 1168 q 596 1046 572 1102 q 620 923 620 990 q 614 854 620 886 q 602 785 609 823 l 466 785 l 466 840 q 362 1031 466 1031 q 281 989 307 1031 q 256 836 256 947 l 256 314 q 282 166 256 206 q 363 127 308 127 q 448 183 422 127 q 475 323 475 240 l 475 471 l 385 471 l 385 587 l 643 587 l 643 0 l 529 0 l 510 111 q 438 26 486 62 q 332 -11 391 -11 m 381 1313 l 354 1351 l 327 1313 l 270 1225 l 102 1225 l 271 1435 l 430 1435 l 597 1225 l 428 1225 l 381 1313 z "},"Ģ":{"ha":698,"x_min":73,"x_max":643,"o":"m 332 -11 q 274 -3 307 -11 q 205 26 240 4 q 140 90 170 47 q 91 203 110 133 q 73 377 73 273 l 73 787 q 92 961 73 892 q 144 1073 112 1031 q 216 1135 176 1114 q 294 1162 255 1156 q 367 1168 334 1168 q 516 1135 461 1168 q 596 1046 572 1102 q 620 923 620 990 q 614 854 620 886 q 602 785 609 823 l 466 785 l 466 840 q 362 1031 466 1031 q 281 989 307 1031 q 256 836 256 947 l 256 314 q 282 166 256 206 q 363 127 308 127 q 448 183 422 127 q 475 323 475 240 l 475 471 l 385 471 l 385 587 l 643 587 l 643 0 l 529 0 l 510 111 q 438 26 486 62 q 332 -11 391 -11 m 431 -66 l 358 -360 l 226 -360 l 268 -66 l 431 -66 z "},"Ġ":{"ha":698,"x_min":73,"x_max":643,"o":"m 332 -11 q 274 -3 307 -11 q 205 26 240 4 q 140 90 170 47 q 91 203 110 133 q 73 377 73 273 l 73 787 q 92 961 73 892 q 144 1073 112 1031 q 216 1135 176 1114 q 294 1162 255 1156 q 367 1168 334 1168 q 516 1135 461 1168 q 596 1046 572 1102 q 620 923 620 990 q 614 854 620 886 q 602 785 609 823 l 466 785 l 466 840 q 362 1031 466 1031 q 281 989 307 1031 q 256 836 256 947 l 256 314 q 282 166 256 206 q 363 127 308 127 q 448 183 422 127 q 475 323 475 240 l 475 471 l 385 471 l 385 587 l 643 587 l 643 0 l 529 0 l 510 111 q 438 26 486 62 q 332 -11 391 -11 m 348 1214 q 272 1244 300 1214 q 243 1328 243 1274 q 272 1413 243 1388 q 349 1438 300 1438 q 427 1411 399 1438 q 455 1328 455 1384 q 427 1244 455 1275 q 348 1214 398 1214 z "},"Ḡ":{"ha":698,"x_min":73,"x_max":643,"o":"m 332 -11 q 274 -3 307 -11 q 205 26 240 4 q 140 90 170 47 q 91 203 110 133 q 73 377 73 273 l 73 787 q 92 961 73 892 q 144 1073 112 1031 q 216 1135 176 1114 q 294 1162 255 1156 q 367 1168 334 1168 q 516 1135 461 1168 q 596 1046 572 1102 q 620 923 620 990 q 614 854 620 886 q 602 785 609 823 l 466 785 l 466 840 q 362 1031 466 1031 q 281 989 307 1031 q 256 836 256 947 l 256 314 q 282 166 256 206 q 363 127 308 127 q 448 183 422 127 q 475 323 475 240 l 475 471 l 385 471 l 385 587 l 643 587 l 643 0 l 529 0 l 510 111 q 438 26 486 62 q 332 -11 391 -11 m 138 1375 l 560 1375 l 560 1244 l 138 1244 l 138 1375 z "},"Ǥ":{"ha":779,"x_min":73,"x_max":760,"o":"m 332 -11 q 274 -3 307 -11 q 205 26 240 4 q 140 90 170 47 q 91 203 110 133 q 73 377 73 273 l 73 787 q 92 961 73 892 q 144 1073 112 1031 q 216 1135 176 1114 q 294 1162 255 1156 q 367 1168 334 1168 q 516 1135 461 1168 q 596 1046 572 1102 q 620 923 620 990 q 614 854 620 886 q 602 785 609 823 l 466 785 l 466 840 q 362 1031 466 1031 q 281 989 307 1031 q 256 836 256 947 l 256 314 q 282 166 256 206 q 363 127 308 127 q 448 183 422 127 q 475 323 475 240 l 475 471 l 385 471 l 385 587 l 643 587 l 643 0 l 529 0 l 510 111 q 438 26 486 62 q 332 -11 391 -11 m 353 301 l 353 430 l 760 430 l 760 301 l 353 301 z "},"H":{"ha":751,"x_min":96,"x_max":655,"o":"m 96 1158 l 271 1158 l 271 673 l 479 673 l 479 1158 l 655 1158 l 655 0 l 479 0 l 479 535 l 271 535 l 271 0 l 96 0 l 96 1158 z "},"Ħ":{"ha":751,"x_min":14,"x_max":737,"o":"m 14 933 l 96 933 l 96 1158 l 271 1158 l 271 933 l 479 933 l 479 1158 l 655 1158 l 655 933 l 737 933 l 737 802 l 655 802 l 655 0 l 479 0 l 479 535 l 271 535 l 271 0 l 96 0 l 96 802 l 14 802 l 14 933 m 271 673 l 479 673 l 479 802 l 271 802 l 271 673 z "},"Ḫ":{"ha":751,"x_min":96,"x_max":655,"o":"m 96 1158 l 271 1158 l 271 673 l 479 673 l 479 1158 l 655 1158 l 655 0 l 479 0 l 479 535 l 271 535 l 271 0 l 96 0 l 96 1158 m 372 -301 q 253 -271 300 -301 q 182 -194 205 -241 q 159 -94 159 -146 q 163 -48 159 -71 l 284 -48 q 278 -71 279 -59 q 277 -96 277 -83 q 301 -161 277 -132 q 372 -191 324 -191 q 452 -160 426 -191 q 479 -96 479 -130 q 479 -71 479 -83 q 473 -48 479 -59 l 588 -48 q 592 -94 592 -71 q 568 -192 592 -144 q 495 -270 544 -239 q 372 -301 446 -301 z "},"Ĥ":{"ha":751,"x_min":96,"x_max":655,"o":"m 96 1158 l 271 1158 l 271 673 l 479 673 l 479 1158 l 655 1158 l 655 0 l 479 0 l 479 535 l 271 535 l 271 0 l 96 0 l 96 1158 m 408 1313 l 380 1351 l 353 1313 l 296 1225 l 128 1225 l 298 1435 l 456 1435 l 623 1225 l 454 1225 l 408 1313 z "},"Ḥ":{"ha":751,"x_min":96,"x_max":655,"o":"m 96 1158 l 271 1158 l 271 673 l 479 673 l 479 1158 l 655 1158 l 655 0 l 479 0 l 479 535 l 271 535 l 271 0 l 96 0 l 96 1158 m 270 -174 q 299 -89 270 -114 q 376 -64 328 -64 q 454 -91 426 -64 q 482 -174 482 -118 q 454 -258 482 -227 q 375 -288 425 -288 q 299 -258 328 -288 q 270 -174 270 -229 z "},"ɥ":{"ha":686,"x_min":87,"x_max":600,"o":"m 600 0 l 428 0 l 428 402 l 437 562 q 352 491 399 510 q 258 471 305 471 q 132 529 176 471 q 87 701 87 587 l 87 1158 l 258 1158 l 258 721 q 277 635 258 659 q 333 611 296 611 q 384 629 359 611 q 428 676 409 646 l 428 1158 l 600 1158 l 600 0 z "},"Ɥ":{"ha":686,"x_min":87,"x_max":600,"o":"m 600 0 l 428 0 l 428 402 l 437 562 q 352 491 399 510 q 258 471 305 471 q 132 529 176 471 q 87 701 87 587 l 87 1158 l 258 1158 l 258 721 q 277 635 258 659 q 333 611 296 611 q 384 629 359 611 q 428 676 409 646 l 428 1158 l 600 1158 l 600 0 z "},"I":{"ha":370,"x_min":97,"x_max":273,"o":"m 97 1158 l 273 1158 l 273 0 l 97 0 l 97 1158 z "},"Ĳ":{"ha":920,"x_min":97,"x_max":844,"o":"m 97 1158 l 273 1158 l 273 0 l 97 0 l 97 1158 m 371 245 q 376 328 371 282 q 390 420 380 374 l 530 420 l 530 283 q 547 160 530 194 q 601 127 564 127 q 651 155 633 127 q 669 261 669 182 l 669 1158 l 844 1158 l 844 281 q 809 98 844 161 q 719 12 774 35 q 601 -11 663 -11 q 463 24 513 -11 q 392 117 413 59 q 371 245 371 176 z "},"Í":{"ha":370,"x_min":97,"x_max":378,"o":"m 97 1158 l 273 1158 l 273 0 l 97 0 l 97 1158 m 185 1204 l 100 1268 l 264 1462 l 378 1376 l 185 1204 z "},"Ĭ":{"ha":370,"x_min":-31,"x_max":401,"o":"m 97 1158 l 273 1158 l 273 0 l 97 0 l 97 1158 m 182 1211 q 21 1262 73 1211 q -31 1392 -31 1312 q -27 1437 -31 1415 l 94 1437 q 88 1414 89 1426 q 87 1389 87 1402 q 181 1322 87 1322 q 288 1389 288 1322 q 288 1414 288 1402 q 283 1437 288 1426 l 397 1437 q 401 1392 401 1415 q 347 1264 401 1316 q 182 1211 293 1211 z "},"Ǐ":{"ha":370,"x_min":-62,"x_max":433,"o":"m 97 1158 l 273 1158 l 273 0 l 97 0 l 97 1158 m 264 1415 l 433 1415 l 266 1204 l 107 1204 l -62 1415 l 106 1415 l 163 1326 l 190 1289 l 217 1326 l 264 1415 z "},"Î":{"ha":370,"x_min":-62,"x_max":433,"o":"m 97 1158 l 273 1158 l 273 0 l 97 0 l 97 1158 m 217 1313 l 190 1351 l 163 1313 l 106 1225 l -62 1225 l 107 1435 l 266 1435 l 433 1225 l 264 1225 l 217 1313 z "},"Ï":{"ha":370,"x_min":-59,"x_max":429,"o":"m 97 1158 l 273 1158 l 273 0 l 97 0 l 97 1158 m 34 1210 q -39 1236 -19 1210 q -59 1314 -59 1263 q -39 1396 -59 1368 q 34 1423 -20 1423 q 111 1397 90 1423 q 132 1314 132 1370 q 111 1237 132 1265 q 34 1210 90 1210 m 330 1210 q 258 1236 277 1210 q 238 1314 238 1263 q 257 1396 238 1368 q 330 1423 277 1423 q 408 1397 386 1423 q 429 1314 429 1370 q 408 1237 429 1265 q 330 1210 386 1210 z "},"Ḯ":{"ha":370,"x_min":-59,"x_max":429,"o":"m 97 1158 l 273 1158 l 273 0 l 97 0 l 97 1158 m 34 1210 q -39 1236 -19 1210 q -59 1314 -59 1263 q -39 1396 -59 1368 q 34 1423 -20 1423 q 111 1397 90 1423 q 132 1314 132 1370 q 111 1237 132 1265 q 34 1210 90 1210 m 330 1210 q 258 1236 277 1210 q 238 1314 238 1263 q 257 1396 238 1368 q 330 1423 277 1423 q 408 1397 386 1423 q 429 1314 429 1370 q 408 1237 429 1265 q 330 1210 386 1210 m 185 1456 l 100 1520 l 264 1714 l 378 1628 l 185 1456 z "},"İ":{"ha":370,"x_min":79,"x_max":291,"o":"m 97 1158 l 273 1158 l 273 0 l 97 0 l 97 1158 m 184 1214 q 107 1244 136 1214 q 79 1328 79 1274 q 107 1413 79 1388 q 184 1438 136 1438 q 263 1411 235 1438 q 291 1328 291 1384 q 262 1244 291 1275 q 184 1214 234 1214 z "},"Ị":{"ha":370,"x_min":79,"x_max":292,"o":"m 97 1158 l 273 1158 l 273 0 l 97 0 l 97 1158 m 79 -174 q 108 -89 79 -114 q 185 -64 137 -64 q 263 -91 235 -64 q 292 -174 292 -118 q 263 -258 292 -227 q 184 -288 235 -288 q 108 -258 137 -288 q 79 -174 79 -229 z "},"Ì":{"ha":370,"x_min":-6,"x_max":273,"o":"m 97 1158 l 273 1158 l 273 0 l 97 0 l 97 1158 m 187 1191 l -6 1362 l 109 1449 l 272 1255 l 187 1191 z "},"Ỉ":{"ha":370,"x_min":60,"x_max":310,"o":"m 97 1158 l 273 1158 l 273 0 l 97 0 l 97 1158 m 123 1234 l 123 1312 q 177 1327 159 1312 q 196 1363 196 1341 q 159 1417 196 1395 q 60 1445 123 1440 l 85 1537 q 250 1476 189 1527 q 310 1360 310 1426 q 264 1274 310 1305 q 123 1234 219 1242 z "},"Ī":{"ha":370,"x_min":-26,"x_max":396,"o":"m 97 1158 l 273 1158 l 273 0 l 97 0 l 97 1158 m -26 1375 l 396 1375 l 396 1244 l -26 1244 l -26 1375 z "},"Į":{"ha":370,"x_min":83,"x_max":323,"o":"m 97 1158 l 273 1158 l 273 0 l 97 0 l 97 1158 m 201 9 l 273 0 q 229 -82 232 -45 q 245 -140 225 -119 q 296 -162 266 -162 q 308 -162 302 -162 q 319 -161 313 -162 l 323 -264 q 272 -279 296 -275 q 221 -284 249 -284 q 167 -273 200 -284 q 109 -228 134 -261 q 83 -132 83 -195 q 107 -44 83 -79 q 141 0 130 -10 l 201 9 z "},"Ɨ":{"ha":370,"x_min":-21,"x_max":386,"o":"m 97 1158 l 273 1158 l 273 0 l 97 0 l 97 1158 m -21 564 l -21 692 l 386 692 l 386 564 l -21 564 z "},"Ĩ":{"ha":370,"x_min":-26,"x_max":395,"o":"m 97 1158 l 273 1158 l 273 0 l 97 0 l 97 1158 m 278 1213 q 218 1223 243 1213 q 170 1255 193 1234 q 131 1295 142 1281 q 101 1308 119 1308 q 77 1269 77 1308 l 77 1224 l -24 1224 q -25 1250 -24 1232 q -26 1274 -26 1268 q 12 1389 -26 1358 q 99 1421 50 1421 q 155 1410 132 1421 q 200 1379 178 1400 q 234 1345 215 1364 q 271 1325 254 1325 q 300 1360 300 1325 l 300 1409 l 389 1409 q 395 1343 395 1365 q 360 1246 395 1279 q 278 1213 324 1213 z "},"J":{"ha":557,"x_min":8,"x_max":481,"o":"m 8 245 q 13 328 8 282 q 27 420 18 374 l 168 420 l 168 283 q 184 160 168 194 q 238 127 201 127 q 288 155 270 127 q 306 261 306 182 l 306 1158 l 481 1158 l 481 281 q 447 98 481 161 q 356 12 412 35 q 238 -11 300 -11 q 100 24 151 -11 q 29 117 50 59 q 8 245 8 176 z "},"Ĵ":{"ha":557,"x_min":8,"x_max":639,"o":"m 8 245 q 13 328 8 282 q 27 420 18 374 l 168 420 l 168 283 q 184 160 168 194 q 238 127 201 127 q 288 155 270 127 q 306 261 306 182 l 306 1158 l 481 1158 l 481 281 q 447 98 481 161 q 356 12 412 35 q 238 -11 300 -11 q 100 24 151 -11 q 29 117 50 59 q 8 245 8 176 m 423 1313 l 396 1351 l 369 1313 l 312 1225 l 144 1225 l 313 1435 l 472 1435 l 639 1225 l 470 1225 l 423 1313 z "},"K":{"ha":686,"x_min":96,"x_max":677,"o":"m 96 1158 l 271 1158 l 271 652 l 277 652 l 477 1158 l 652 1158 l 429 615 l 677 0 l 490 0 l 277 551 l 271 551 l 271 0 l 96 0 l 96 1158 z "},"Ǩ":{"ha":686,"x_min":96,"x_max":677,"o":"m 96 1158 l 271 1158 l 271 652 l 277 652 l 477 1158 l 652 1158 l 429 615 l 677 0 l 490 0 l 277 551 l 271 551 l 271 0 l 96 0 l 96 1158 m 422 1415 l 591 1415 l 424 1204 l 265 1204 l 96 1415 l 264 1415 l 321 1326 l 348 1289 l 375 1326 l 422 1415 z "},"Ķ":{"ha":686,"x_min":96,"x_max":677,"o":"m 96 1158 l 271 1158 l 271 652 l 277 652 l 477 1158 l 652 1158 l 429 615 l 677 0 l 490 0 l 277 551 l 271 551 l 271 0 l 96 0 l 96 1158 m 425 -66 l 352 -360 l 220 -360 l 262 -66 l 425 -66 z "},"Ḵ":{"ha":686,"x_min":96,"x_max":677,"o":"m 96 1158 l 271 1158 l 271 652 l 277 652 l 477 1158 l 652 1158 l 429 615 l 677 0 l 490 0 l 277 551 l 271 551 l 271 0 l 96 0 l 96 1158 m 132 -106 l 554 -106 l 554 -237 l 132 -237 l 132 -106 z "},"L":{"ha":519,"x_min":96,"x_max":511,"o":"m 96 1158 l 271 1158 l 271 138 l 511 138 l 511 0 l 96 0 l 96 1158 z "},"Ĺ":{"ha":519,"x_min":96,"x_max":511,"o":"m 96 1158 l 271 1158 l 271 138 l 511 138 l 511 0 l 96 0 l 96 1158 m 184 1204 l 99 1268 l 262 1462 l 377 1376 l 184 1204 z "},"Ľ":{"ha":519,"x_min":96,"x_max":511,"o":"m 96 1158 l 271 1158 l 271 138 l 511 138 l 511 0 l 96 0 l 96 1158 m 348 1234 l 509 1234 l 477 981 l 334 981 l 348 1234 z "},"Ḽ":{"ha":519,"x_min":50,"x_max":538,"o":"m 96 1158 l 271 1158 l 271 138 l 511 138 l 511 0 l 96 0 l 96 1158 m 351 -44 l 538 -316 l 389 -316 l 330 -213 l 295 -157 l 261 -213 l 197 -316 l 50 -316 l 233 -44 l 351 -44 z "},"Ļ":{"ha":519,"x_min":96,"x_max":511,"o":"m 96 1158 l 271 1158 l 271 138 l 511 138 l 511 0 l 96 0 l 96 1158 m 376 -66 l 302 -360 l 170 -360 l 212 -66 l 376 -66 z "},"Ŀ":{"ha":532,"x_min":96,"x_max":555,"o":"m 96 1158 l 271 1158 l 271 138 l 511 138 l 511 0 l 96 0 l 96 1158 m 454 408 q 381 442 405 408 q 357 519 357 477 q 380 601 357 565 q 454 637 404 637 q 530 601 505 637 q 555 519 555 566 q 530 443 555 478 q 454 408 505 408 z "},"Ḷ":{"ha":519,"x_min":96,"x_max":511,"o":"m 96 1158 l 271 1158 l 271 138 l 511 138 l 511 0 l 96 0 l 96 1158 m 188 -174 q 217 -89 188 -114 q 294 -64 245 -64 q 372 -91 344 -64 q 400 -174 400 -118 q 372 -258 400 -227 q 293 -288 343 -288 q 217 -258 245 -288 q 188 -174 188 -229 z "},"Ḹ":{"ha":519,"x_min":-28,"x_max":511,"o":"m 96 1158 l 271 1158 l 271 138 l 511 138 l 511 0 l 96 0 l 96 1158 m 188 -174 q 217 -89 188 -114 q 294 -64 245 -64 q 372 -91 344 -64 q 400 -174 400 -118 q 372 -258 400 -227 q 293 -288 343 -288 q 217 -258 245 -288 q 188 -174 188 -229 m -28 1375 l 395 1375 l 395 1244 l -28 1244 l -28 1375 z "},"Ḻ":{"ha":519,"x_min":82,"x_max":511,"o":"m 96 1158 l 271 1158 l 271 138 l 511 138 l 511 0 l 96 0 l 96 1158 m 82 -106 l 505 -106 l 505 -237 l 82 -237 l 82 -106 z "},"Ł":{"ha":536,"x_min":-41,"x_max":523,"o":"m 109 517 l 39 463 l -41 568 l 109 688 l 109 1170 l 283 1170 l 283 835 l 416 943 l 505 829 l 283 658 l 283 140 l 523 140 l 523 0 l 109 0 l 109 517 z "},"M":{"ha":958,"x_min":96,"x_max":862,"o":"m 96 1158 l 313 1158 l 429 690 q 458 548 448 616 q 477 420 468 479 l 482 420 q 502 548 492 479 q 530 690 511 616 l 644 1158 l 862 1158 l 862 0 l 705 0 l 705 383 q 708 605 705 501 q 715 787 711 709 q 723 905 720 865 l 710 905 l 535 149 l 424 149 l 248 905 l 235 905 q 243 787 239 865 q 250 605 247 709 q 253 383 253 501 l 253 0 l 96 0 l 96 1158 z "},"Ḿ":{"ha":958,"x_min":96,"x_max":862,"o":"m 96 1158 l 313 1158 l 429 690 q 458 548 448 616 q 477 420 468 479 l 482 420 q 502 548 492 479 q 530 690 511 616 l 644 1158 l 862 1158 l 862 0 l 705 0 l 705 383 q 708 605 705 501 q 715 787 711 709 q 723 905 720 865 l 710 905 l 535 149 l 424 149 l 248 905 l 235 905 q 243 787 239 865 q 250 605 247 709 q 253 383 253 501 l 253 0 l 96 0 l 96 1158 m 479 1204 l 394 1268 l 557 1462 l 672 1376 l 479 1204 z "},"Ṁ":{"ha":958,"x_min":96,"x_max":862,"o":"m 96 1158 l 313 1158 l 429 690 q 458 548 448 616 q 477 420 468 479 l 482 420 q 502 548 492 479 q 530 690 511 616 l 644 1158 l 862 1158 l 862 0 l 705 0 l 705 383 q 708 605 705 501 q 715 787 711 709 q 723 905 720 865 l 710 905 l 535 149 l 424 149 l 248 905 l 235 905 q 243 787 239 865 q 250 605 247 709 q 253 383 253 501 l 253 0 l 96 0 l 96 1158 m 477 1214 q 401 1244 430 1214 q 372 1328 372 1274 q 401 1413 372 1388 q 478 1438 430 1438 q 556 1411 528 1438 q 585 1328 585 1384 q 556 1244 585 1275 q 477 1214 528 1214 z "},"Ṃ":{"ha":958,"x_min":96,"x_max":862,"o":"m 96 1158 l 313 1158 l 429 690 q 458 548 448 616 q 477 420 468 479 l 482 420 q 502 548 492 479 q 530 690 511 616 l 644 1158 l 862 1158 l 862 0 l 705 0 l 705 383 q 708 605 705 501 q 715 787 711 709 q 723 905 720 865 l 710 905 l 535 149 l 424 149 l 248 905 l 235 905 q 243 787 239 865 q 250 605 247 709 q 253 383 253 501 l 253 0 l 96 0 l 96 1158 m 373 -168 q 402 -82 373 -107 q 479 -57 431 -57 q 557 -84 529 -57 q 585 -168 585 -111 q 557 -251 585 -220 q 478 -281 528 -281 q 402 -252 431 -281 q 373 -168 373 -222 z "},"N":{"ha":755,"x_min":96,"x_max":659,"o":"m 96 1158 l 235 1158 l 517 397 l 522 397 q 514 477 519 433 q 507 584 510 522 q 503 736 503 646 l 503 1158 l 659 1158 l 659 0 l 519 0 l 237 741 l 232 741 q 239 652 235 701 q 247 531 243 604 q 250 340 250 458 l 250 0 l 96 0 l 96 1158 z "},"Ń":{"ha":755,"x_min":96,"x_max":659,"o":"m 96 1158 l 235 1158 l 517 397 l 522 397 q 514 477 519 433 q 507 584 510 522 q 503 736 503 646 l 503 1158 l 659 1158 l 659 0 l 519 0 l 237 741 l 232 741 q 239 652 235 701 q 247 531 243 604 q 250 340 250 458 l 250 0 l 96 0 l 96 1158 m 378 1204 l 293 1268 l 456 1462 l 571 1376 l 378 1204 z "},"Ň":{"ha":755,"x_min":96,"x_max":659,"o":"m 96 1158 l 235 1158 l 517 397 l 522 397 q 514 477 519 433 q 507 584 510 522 q 503 736 503 646 l 503 1158 l 659 1158 l 659 0 l 519 0 l 237 741 l 232 741 q 239 652 235 701 q 247 531 243 604 q 250 340 250 458 l 250 0 l 96 0 l 96 1158 m 456 1415 l 625 1415 l 458 1204 l 300 1204 l 130 1415 l 298 1415 l 355 1326 l 382 1289 l 410 1326 l 456 1415 z "},"Ṋ":{"ha":755,"x_min":96,"x_max":659,"o":"m 96 1158 l 235 1158 l 517 397 l 522 397 q 514 477 519 433 q 507 584 510 522 q 503 736 503 646 l 503 1158 l 659 1158 l 659 0 l 519 0 l 237 741 l 232 741 q 239 652 235 701 q 247 531 243 604 q 250 340 250 458 l 250 0 l 96 0 l 96 1158 m 435 -44 l 622 -316 l 473 -316 l 414 -213 l 379 -157 l 345 -213 l 281 -316 l 134 -316 l 317 -44 l 435 -44 z "},"Ņ":{"ha":755,"x_min":96,"x_max":659,"o":"m 96 1158 l 235 1158 l 517 397 l 522 397 q 514 477 519 433 q 507 584 510 522 q 503 736 503 646 l 503 1158 l 659 1158 l 659 0 l 519 0 l 237 741 l 232 741 q 239 652 235 701 q 247 531 243 604 q 250 340 250 458 l 250 0 l 96 0 l 96 1158 m 460 -66 l 387 -360 l 254 -360 l 296 -66 l 460 -66 z "},"Ṅ":{"ha":755,"x_min":96,"x_max":659,"o":"m 96 1158 l 235 1158 l 517 397 l 522 397 q 514 477 519 433 q 507 584 510 522 q 503 736 503 646 l 503 1158 l 659 1158 l 659 0 l 519 0 l 237 741 l 232 741 q 239 652 235 701 q 247 531 243 604 q 250 340 250 458 l 250 0 l 96 0 l 96 1158 m 376 1214 q 300 1244 329 1214 q 271 1328 271 1274 q 300 1413 271 1388 q 377 1438 329 1438 q 455 1411 427 1438 q 484 1328 484 1384 q 455 1244 484 1275 q 376 1214 427 1214 z "},"Ṇ":{"ha":755,"x_min":96,"x_max":659,"o":"m 96 1158 l 235 1158 l 517 397 l 522 397 q 514 477 519 433 q 507 584 510 522 q 503 736 503 646 l 503 1158 l 659 1158 l 659 0 l 519 0 l 237 741 l 232 741 q 239 652 235 701 q 247 531 243 604 q 250 340 250 458 l 250 0 l 96 0 l 96 1158 m 272 -174 q 301 -89 272 -114 q 378 -64 330 -64 q 456 -91 428 -64 q 484 -174 484 -118 q 456 -258 484 -227 q 377 -288 427 -288 q 301 -258 330 -288 q 272 -174 272 -229 z "},"Ɲ":{"ha":755,"x_min":-1,"x_max":659,"o":"m 82 -301 q 41 -297 62 -301 q -1 -285 20 -294 l -1 -185 q 10 -186 5 -186 q 21 -186 16 -186 q 73 -163 51 -186 q 95 -79 95 -140 l 95 1158 l 235 1158 l 517 397 l 522 397 q 514 477 519 433 q 507 584 510 522 q 503 736 503 646 l 503 1158 l 659 1158 l 659 0 l 519 0 l 237 741 l 232 741 q 239 652 235 701 q 247 531 243 604 q 250 340 250 458 l 250 -57 q 228 -211 250 -159 q 168 -282 206 -264 q 82 -301 130 -301 z "},"Ṉ":{"ha":755,"x_min":96,"x_max":659,"o":"m 96 1158 l 235 1158 l 517 397 l 522 397 q 514 477 519 433 q 507 584 510 522 q 503 736 503 646 l 503 1158 l 659 1158 l 659 0 l 519 0 l 237 741 l 232 741 q 239 652 235 701 q 247 531 243 604 q 250 340 250 458 l 250 0 l 96 0 l 96 1158 m 166 -106 l 589 -106 l 589 -237 l 166 -237 l 166 -106 z "},"Ñ":{"ha":755,"x_min":96,"x_max":659,"o":"m 96 1158 l 235 1158 l 517 397 l 522 397 q 514 477 519 433 q 507 584 510 522 q 503 736 503 646 l 503 1158 l 659 1158 l 659 0 l 519 0 l 237 741 l 232 741 q 239 652 235 701 q 247 531 243 604 q 250 340 250 458 l 250 0 l 96 0 l 96 1158 m 471 1213 q 411 1223 436 1213 q 362 1255 386 1234 q 323 1295 335 1281 q 294 1308 311 1308 q 269 1269 269 1308 l 269 1224 l 169 1224 q 168 1250 169 1232 q 167 1274 167 1268 q 204 1389 167 1358 q 292 1421 242 1421 q 348 1410 325 1421 q 393 1379 370 1400 q 427 1345 408 1364 q 464 1325 446 1325 q 492 1360 492 1325 l 492 1409 l 582 1409 q 588 1343 588 1365 q 552 1246 588 1279 q 471 1213 517 1213 z "},"Ŋ":{"ha":742,"x_min":96,"x_max":646,"o":"m 460 -301 q 418 -297 439 -301 q 377 -285 397 -294 l 377 -185 q 388 -186 382 -186 q 399 -186 393 -186 q 451 -163 429 -186 q 474 -79 474 -140 l 474 920 q 452 1005 474 981 q 375 1029 430 1029 q 313 1013 339 1029 q 267 966 287 996 l 267 0 l 96 0 l 96 1158 l 227 1158 l 243 1059 l 243 1058 q 336 1146 283 1122 q 450 1169 389 1169 q 646 940 646 1169 l 646 -57 q 619 -211 646 -159 q 550 -282 593 -264 q 460 -301 508 -301 z "},"O":{"ha":728,"x_min":77,"x_max":651,"o":"m 366 -10 q 274 2 323 -10 q 179 53 224 14 q 106 169 134 92 q 77 377 77 247 l 77 787 q 97 961 77 892 q 148 1073 116 1031 q 217 1135 179 1114 q 294 1162 256 1156 q 366 1168 333 1168 q 435 1162 397 1168 q 511 1136 473 1156 q 581 1075 549 1116 q 632 964 612 1034 q 651 787 651 894 l 651 377 q 621 171 651 248 q 546 55 591 94 q 452 3 500 16 q 366 -10 404 -10 m 366 127 q 443 167 418 127 q 468 314 468 206 l 468 836 q 443 989 468 947 q 366 1031 418 1031 q 287 989 312 1031 q 261 836 261 947 l 261 314 q 287 167 261 206 q 366 127 312 127 z "},"Ó":{"ha":728,"x_min":77,"x_max":651,"o":"m 366 -10 q 274 2 323 -10 q 179 53 224 14 q 106 169 134 92 q 77 377 77 247 l 77 787 q 97 961 77 892 q 148 1073 116 1031 q 217 1135 179 1114 q 294 1162 256 1156 q 366 1168 333 1168 q 435 1162 397 1168 q 511 1136 473 1156 q 581 1075 549 1116 q 632 964 612 1034 q 651 787 651 894 l 651 377 q 621 171 651 248 q 546 55 591 94 q 452 3 500 16 q 366 -10 404 -10 m 366 127 q 443 167 418 127 q 468 314 468 206 l 468 836 q 443 989 468 947 q 366 1031 418 1031 q 287 989 312 1031 q 261 836 261 947 l 261 314 q 287 167 261 206 q 366 127 312 127 m 364 1204 l 279 1268 l 443 1462 l 557 1376 l 364 1204 z "},"Ŏ":{"ha":728,"x_min":77,"x_max":651,"o":"m 366 -10 q 274 2 323 -10 q 179 53 224 14 q 106 169 134 92 q 77 377 77 247 l 77 787 q 97 961 77 892 q 148 1073 116 1031 q 217 1135 179 1114 q 294 1162 256 1156 q 366 1168 333 1168 q 435 1162 397 1168 q 511 1136 473 1156 q 581 1075 549 1116 q 632 964 612 1034 q 651 787 651 894 l 651 377 q 621 171 651 248 q 546 55 591 94 q 452 3 500 16 q 366 -10 404 -10 m 366 127 q 443 167 418 127 q 468 314 468 206 l 468 836 q 443 989 468 947 q 366 1031 418 1031 q 287 989 312 1031 q 261 836 261 947 l 261 314 q 287 167 261 206 q 366 127 312 127 m 361 1211 q 200 1262 252 1211 q 148 1392 148 1312 q 152 1437 148 1415 l 273 1437 q 267 1414 268 1426 q 266 1389 266 1402 q 360 1322 266 1322 q 467 1389 467 1322 q 467 1414 467 1402 q 462 1437 467 1426 l 576 1437 q 581 1392 581 1415 q 526 1264 581 1316 q 361 1211 472 1211 z "},"Ǒ":{"ha":728,"x_min":77,"x_max":651,"o":"m 366 -10 q 274 2 323 -10 q 179 53 224 14 q 106 169 134 92 q 77 377 77 247 l 77 787 q 97 961 77 892 q 148 1073 116 1031 q 217 1135 179 1114 q 294 1162 256 1156 q 366 1168 333 1168 q 435 1162 397 1168 q 511 1136 473 1156 q 581 1075 549 1116 q 632 964 612 1034 q 651 787 651 894 l 651 377 q 621 171 651 248 q 546 55 591 94 q 452 3 500 16 q 366 -10 404 -10 m 366 127 q 443 167 418 127 q 468 314 468 206 l 468 836 q 443 989 468 947 q 366 1031 418 1031 q 287 989 312 1031 q 261 836 261 947 l 261 314 q 287 167 261 206 q 366 127 312 127 m 443 1415 l 612 1415 l 445 1204 l 286 1204 l 117 1415 l 285 1415 l 342 1326 l 369 1289 l 396 1326 l 443 1415 z "},"Ô":{"ha":728,"x_min":77,"x_max":651,"o":"m 366 -10 q 274 2 323 -10 q 179 53 224 14 q 106 169 134 92 q 77 377 77 247 l 77 787 q 97 961 77 892 q 148 1073 116 1031 q 217 1135 179 1114 q 294 1162 256 1156 q 366 1168 333 1168 q 435 1162 397 1168 q 511 1136 473 1156 q 581 1075 549 1116 q 632 964 612 1034 q 651 787 651 894 l 651 377 q 621 171 651 248 q 546 55 591 94 q 452 3 500 16 q 366 -10 404 -10 m 366 127 q 443 167 418 127 q 468 314 468 206 l 468 836 q 443 989 468 947 q 366 1031 418 1031 q 287 989 312 1031 q 261 836 261 947 l 261 314 q 287 167 261 206 q 366 127 312 127 m 396 1313 l 369 1351 l 342 1313 l 285 1225 l 117 1225 l 286 1435 l 445 1435 l 612 1225 l 443 1225 l 396 1313 z "},"Ố":{"ha":728,"x_min":77,"x_max":651,"o":"m 366 -10 q 274 2 323 -10 q 179 53 224 14 q 106 169 134 92 q 77 377 77 247 l 77 787 q 97 961 77 892 q 148 1073 116 1031 q 217 1135 179 1114 q 294 1162 256 1156 q 366 1168 333 1168 q 435 1162 397 1168 q 511 1136 473 1156 q 581 1075 549 1116 q 632 964 612 1034 q 651 787 651 894 l 651 377 q 621 171 651 248 q 546 55 591 94 q 452 3 500 16 q 366 -10 404 -10 m 366 127 q 443 167 418 127 q 468 314 468 206 l 468 836 q 443 989 468 947 q 366 1031 418 1031 q 287 989 312 1031 q 261 836 261 947 l 261 314 q 287 167 261 206 q 366 127 312 127 m 396 1313 l 369 1351 l 342 1313 l 285 1225 l 117 1225 l 286 1435 l 445 1435 l 612 1225 l 443 1225 l 396 1313 m 364 1461 l 279 1525 l 443 1718 l 557 1632 l 364 1461 z "},"Ộ":{"ha":728,"x_min":77,"x_max":651,"o":"m 366 -10 q 274 2 323 -10 q 179 53 224 14 q 106 169 134 92 q 77 377 77 247 l 77 787 q 97 961 77 892 q 148 1073 116 1031 q 217 1135 179 1114 q 294 1162 256 1156 q 366 1168 333 1168 q 435 1162 397 1168 q 511 1136 473 1156 q 581 1075 549 1116 q 632 964 612 1034 q 651 787 651 894 l 651 377 q 621 171 651 248 q 546 55 591 94 q 452 3 500 16 q 366 -10 404 -10 m 366 127 q 443 167 418 127 q 468 314 468 206 l 468 836 q 443 989 468 947 q 366 1031 418 1031 q 287 989 312 1031 q 261 836 261 947 l 261 314 q 287 167 261 206 q 366 127 312 127 m 258 -174 q 287 -89 258 -114 q 364 -64 316 -64 q 443 -91 414 -64 q 471 -174 471 -118 q 442 -258 471 -227 q 363 -288 414 -288 q 287 -258 316 -288 q 258 -174 258 -229 m 396 1313 l 369 1351 l 342 1313 l 285 1225 l 117 1225 l 286 1435 l 445 1435 l 612 1225 l 443 1225 l 396 1313 z "},"Ồ":{"ha":728,"x_min":77,"x_max":651,"o":"m 366 -10 q 274 2 323 -10 q 179 53 224 14 q 106 169 134 92 q 77 377 77 247 l 77 787 q 97 961 77 892 q 148 1073 116 1031 q 217 1135 179 1114 q 294 1162 256 1156 q 366 1168 333 1168 q 435 1162 397 1168 q 511 1136 473 1156 q 581 1075 549 1116 q 632 964 612 1034 q 651 787 651 894 l 651 377 q 621 171 651 248 q 546 55 591 94 q 452 3 500 16 q 366 -10 404 -10 m 366 127 q 443 167 418 127 q 468 314 468 206 l 468 836 q 443 989 468 947 q 366 1031 418 1031 q 287 989 312 1031 q 261 836 261 947 l 261 314 q 287 167 261 206 q 366 127 312 127 m 396 1313 l 369 1351 l 342 1313 l 285 1225 l 117 1225 l 286 1435 l 445 1435 l 612 1225 l 443 1225 l 396 1313 m 366 1447 l 173 1619 l 288 1705 l 451 1511 l 366 1447 z "},"Ổ":{"ha":728,"x_min":77,"x_max":651,"o":"m 366 -10 q 274 2 323 -10 q 179 53 224 14 q 106 169 134 92 q 77 377 77 247 l 77 787 q 97 961 77 892 q 148 1073 116 1031 q 217 1135 179 1114 q 294 1162 256 1156 q 366 1168 333 1168 q 435 1162 397 1168 q 511 1136 473 1156 q 581 1075 549 1116 q 632 964 612 1034 q 651 787 651 894 l 651 377 q 621 171 651 248 q 546 55 591 94 q 452 3 500 16 q 366 -10 404 -10 m 366 127 q 443 167 418 127 q 468 314 468 206 l 468 836 q 443 989 468 947 q 366 1031 418 1031 q 287 989 312 1031 q 261 836 261 947 l 261 314 q 287 167 261 206 q 366 127 312 127 m 396 1313 l 369 1351 l 342 1313 l 285 1225 l 117 1225 l 286 1435 l 445 1435 l 612 1225 l 443 1225 l 396 1313 m 302 1490 l 302 1569 q 356 1583 338 1569 q 375 1619 375 1598 q 338 1674 375 1651 q 239 1702 302 1696 l 264 1794 q 429 1733 368 1783 q 489 1616 489 1683 q 444 1530 489 1561 q 302 1490 398 1499 z "},"Ỗ":{"ha":728,"x_min":77,"x_max":651,"o":"m 366 -10 q 274 2 323 -10 q 179 53 224 14 q 106 169 134 92 q 77 377 77 247 l 77 787 q 97 961 77 892 q 148 1073 116 1031 q 217 1135 179 1114 q 294 1162 256 1156 q 366 1168 333 1168 q 435 1162 397 1168 q 511 1136 473 1156 q 581 1075 549 1116 q 632 964 612 1034 q 651 787 651 894 l 651 377 q 621 171 651 248 q 546 55 591 94 q 452 3 500 16 q 366 -10 404 -10 m 366 127 q 443 167 418 127 q 468 314 468 206 l 468 836 q 443 989 468 947 q 366 1031 418 1031 q 287 989 312 1031 q 261 836 261 947 l 261 314 q 287 167 261 206 q 366 127 312 127 m 396 1313 l 369 1351 l 342 1313 l 285 1225 l 117 1225 l 286 1435 l 445 1435 l 612 1225 l 443 1225 l 396 1313 m 457 1469 q 397 1480 422 1469 q 349 1512 372 1491 q 310 1551 321 1537 q 280 1565 298 1565 q 256 1525 256 1565 l 256 1480 l 155 1480 q 154 1506 155 1488 q 153 1531 153 1525 q 191 1646 153 1614 q 278 1677 229 1677 q 334 1667 311 1677 q 379 1636 357 1656 q 413 1601 394 1621 q 450 1581 433 1581 q 479 1617 479 1581 l 479 1665 l 568 1665 q 574 1600 574 1622 q 539 1502 574 1535 q 457 1469 503 1469 z "},"Ö":{"ha":728,"x_min":77,"x_max":651,"o":"m 366 -10 q 274 2 323 -10 q 179 53 224 14 q 106 169 134 92 q 77 377 77 247 l 77 787 q 97 961 77 892 q 148 1073 116 1031 q 217 1135 179 1114 q 294 1162 256 1156 q 366 1168 333 1168 q 435 1162 397 1168 q 511 1136 473 1156 q 581 1075 549 1116 q 632 964 612 1034 q 651 787 651 894 l 651 377 q 621 171 651 248 q 546 55 591 94 q 452 3 500 16 q 366 -10 404 -10 m 366 127 q 443 167 418 127 q 468 314 468 206 l 468 836 q 443 989 468 947 q 366 1031 418 1031 q 287 989 312 1031 q 261 836 261 947 l 261 314 q 287 167 261 206 q 366 127 312 127 m 213 1210 q 140 1236 160 1210 q 120 1314 120 1263 q 140 1396 120 1368 q 213 1423 159 1423 q 290 1397 269 1423 q 311 1314 311 1370 q 290 1237 311 1265 q 213 1210 269 1210 m 509 1210 q 437 1236 456 1210 q 417 1314 417 1263 q 436 1396 417 1368 q 509 1423 456 1423 q 587 1397 565 1423 q 608 1314 608 1370 q 587 1237 608 1265 q 509 1210 565 1210 z "},"Ȫ":{"ha":728,"x_min":77,"x_max":651,"o":"m 366 -10 q 274 2 323 -10 q 179 53 224 14 q 106 169 134 92 q 77 377 77 247 l 77 787 q 97 961 77 892 q 148 1073 116 1031 q 217 1135 179 1114 q 294 1162 256 1156 q 366 1168 333 1168 q 435 1162 397 1168 q 511 1136 473 1156 q 581 1075 549 1116 q 632 964 612 1034 q 651 787 651 894 l 651 377 q 621 171 651 248 q 546 55 591 94 q 452 3 500 16 q 366 -10 404 -10 m 366 127 q 443 167 418 127 q 468 314 468 206 l 468 836 q 443 989 468 947 q 366 1031 418 1031 q 287 989 312 1031 q 261 836 261 947 l 261 314 q 287 167 261 206 q 366 127 312 127 m 213 1210 q 140 1236 160 1210 q 120 1314 120 1263 q 140 1396 120 1368 q 213 1423 159 1423 q 290 1397 269 1423 q 311 1314 311 1370 q 290 1237 311 1265 q 213 1210 269 1210 m 509 1210 q 437 1236 456 1210 q 417 1314 417 1263 q 436 1396 417 1368 q 509 1423 456 1423 q 587 1397 565 1423 q 608 1314 608 1370 q 587 1237 608 1265 q 509 1210 565 1210 m 153 1627 l 575 1627 l 575 1496 l 153 1496 l 153 1627 z "},"Ọ":{"ha":728,"x_min":77,"x_max":651,"o":"m 366 -10 q 274 2 323 -10 q 179 53 224 14 q 106 169 134 92 q 77 377 77 247 l 77 787 q 97 961 77 892 q 148 1073 116 1031 q 217 1135 179 1114 q 294 1162 256 1156 q 366 1168 333 1168 q 435 1162 397 1168 q 511 1136 473 1156 q 581 1075 549 1116 q 632 964 612 1034 q 651 787 651 894 l 651 377 q 621 171 651 248 q 546 55 591 94 q 452 3 500 16 q 366 -10 404 -10 m 366 127 q 443 167 418 127 q 468 314 468 206 l 468 836 q 443 989 468 947 q 366 1031 418 1031 q 287 989 312 1031 q 261 836 261 947 l 261 314 q 287 167 261 206 q 366 127 312 127 m 258 -174 q 287 -89 258 -114 q 364 -64 316 -64 q 443 -91 414 -64 q 471 -174 471 -118 q 442 -258 471 -227 q 363 -288 414 -288 q 287 -258 316 -288 q 258 -174 258 -229 z "},"Ò":{"ha":728,"x_min":77,"x_max":651,"o":"m 366 -10 q 274 2 323 -10 q 179 53 224 14 q 106 169 134 92 q 77 377 77 247 l 77 787 q 97 961 77 892 q 148 1073 116 1031 q 217 1135 179 1114 q 294 1162 256 1156 q 366 1168 333 1168 q 435 1162 397 1168 q 511 1136 473 1156 q 581 1075 549 1116 q 632 964 612 1034 q 651 787 651 894 l 651 377 q 621 171 651 248 q 546 55 591 94 q 452 3 500 16 q 366 -10 404 -10 m 366 127 q 443 167 418 127 q 468 314 468 206 l 468 836 q 443 989 468 947 q 366 1031 418 1031 q 287 989 312 1031 q 261 836 261 947 l 261 314 q 287 167 261 206 q 366 127 312 127 m 366 1191 l 173 1362 l 288 1449 l 451 1255 l 366 1191 z "},"Ỏ":{"ha":728,"x_min":77,"x_max":651,"o":"m 366 -10 q 274 2 323 -10 q 179 53 224 14 q 106 169 134 92 q 77 377 77 247 l 77 787 q 97 961 77 892 q 148 1073 116 1031 q 217 1135 179 1114 q 294 1162 256 1156 q 366 1168 333 1168 q 435 1162 397 1168 q 511 1136 473 1156 q 581 1075 549 1116 q 632 964 612 1034 q 651 787 651 894 l 651 377 q 621 171 651 248 q 546 55 591 94 q 452 3 500 16 q 366 -10 404 -10 m 366 127 q 443 167 418 127 q 468 314 468 206 l 468 836 q 443 989 468 947 q 366 1031 418 1031 q 287 989 312 1031 q 261 836 261 947 l 261 314 q 287 167 261 206 q 366 127 312 127 m 302 1234 l 302 1312 q 356 1327 338 1312 q 375 1363 375 1341 q 338 1417 375 1395 q 239 1445 302 1440 l 264 1537 q 429 1476 368 1527 q 489 1360 489 1426 q 444 1274 489 1305 q 302 1234 398 1242 z "},"Ơ":{"ha":728,"x_min":77,"x_max":747,"o":"m 366 -10 q 274 2 323 -10 q 179 53 224 14 q 106 169 134 92 q 77 377 77 247 l 77 787 q 97 961 77 892 q 148 1073 116 1031 q 217 1135 179 1114 q 294 1162 256 1156 q 366 1168 333 1168 q 435 1162 397 1168 q 511 1136 473 1156 q 581 1075 549 1116 q 632 964 612 1034 q 651 787 651 894 l 651 377 q 621 171 651 248 q 546 55 591 94 q 452 3 500 16 q 366 -10 404 -10 m 366 127 q 443 167 418 127 q 468 314 468 206 l 468 836 q 443 989 468 947 q 366 1031 418 1031 q 287 989 312 1031 q 261 836 261 947 l 261 314 q 287 167 261 206 q 366 127 312 127 m 509 1078 l 452 1158 l 508 1158 q 600 1192 574 1158 q 627 1284 627 1226 q 621 1320 627 1297 q 604 1366 615 1343 l 734 1366 q 745 1309 744 1336 q 747 1270 747 1282 q 711 1151 747 1193 q 621 1094 675 1109 q 509 1078 566 1078 z "},"Ớ":{"ha":728,"x_min":77,"x_max":747,"o":"m 366 -10 q 274 2 323 -10 q 179 53 224 14 q 106 169 134 92 q 77 377 77 247 l 77 787 q 97 961 77 892 q 148 1073 116 1031 q 217 1135 179 1114 q 294 1162 256 1156 q 366 1168 333 1168 q 435 1162 397 1168 q 511 1136 473 1156 q 581 1075 549 1116 q 632 964 612 1034 q 651 787 651 894 l 651 377 q 621 171 651 248 q 546 55 591 94 q 452 3 500 16 q 366 -10 404 -10 m 366 127 q 443 167 418 127 q 468 314 468 206 l 468 836 q 443 989 468 947 q 366 1031 418 1031 q 287 989 312 1031 q 261 836 261 947 l 261 314 q 287 167 261 206 q 366 127 312 127 m 509 1078 l 452 1158 l 508 1158 q 600 1192 574 1158 q 627 1284 627 1226 q 621 1320 627 1297 q 604 1366 615 1343 l 734 1366 q 745 1309 744 1336 q 747 1270 747 1282 q 711 1151 747 1193 q 621 1094 675 1109 q 509 1078 566 1078 m 364 1204 l 279 1268 l 443 1462 l 557 1376 l 364 1204 z "},"Ợ":{"ha":728,"x_min":77,"x_max":747,"o":"m 366 -10 q 274 2 323 -10 q 179 53 224 14 q 106 169 134 92 q 77 377 77 247 l 77 787 q 97 961 77 892 q 148 1073 116 1031 q 217 1135 179 1114 q 294 1162 256 1156 q 366 1168 333 1168 q 435 1162 397 1168 q 511 1136 473 1156 q 581 1075 549 1116 q 632 964 612 1034 q 651 787 651 894 l 651 377 q 621 171 651 248 q 546 55 591 94 q 452 3 500 16 q 366 -10 404 -10 m 366 127 q 443 167 418 127 q 468 314 468 206 l 468 836 q 443 989 468 947 q 366 1031 418 1031 q 287 989 312 1031 q 261 836 261 947 l 261 314 q 287 167 261 206 q 366 127 312 127 m 509 1078 l 452 1158 l 508 1158 q 600 1192 574 1158 q 627 1284 627 1226 q 621 1320 627 1297 q 604 1366 615 1343 l 734 1366 q 745 1309 744 1336 q 747 1270 747 1282 q 711 1151 747 1193 q 621 1094 675 1109 q 509 1078 566 1078 m 258 -174 q 287 -89 258 -114 q 364 -64 316 -64 q 443 -91 414 -64 q 471 -174 471 -118 q 442 -258 471 -227 q 363 -288 414 -288 q 287 -258 316 -288 q 258 -174 258 -229 z "},"Ờ":{"ha":728,"x_min":77,"x_max":747,"o":"m 366 -10 q 274 2 323 -10 q 179 53 224 14 q 106 169 134 92 q 77 377 77 247 l 77 787 q 97 961 77 892 q 148 1073 116 1031 q 217 1135 179 1114 q 294 1162 256 1156 q 366 1168 333 1168 q 435 1162 397 1168 q 511 1136 473 1156 q 581 1075 549 1116 q 632 964 612 1034 q 651 787 651 894 l 651 377 q 621 171 651 248 q 546 55 591 94 q 452 3 500 16 q 366 -10 404 -10 m 366 127 q 443 167 418 127 q 468 314 468 206 l 468 836 q 443 989 468 947 q 366 1031 418 1031 q 287 989 312 1031 q 261 836 261 947 l 261 314 q 287 167 261 206 q 366 127 312 127 m 509 1078 l 452 1158 l 508 1158 q 600 1192 574 1158 q 627 1284 627 1226 q 621 1320 627 1297 q 604 1366 615 1343 l 734 1366 q 745 1309 744 1336 q 747 1270 747 1282 q 711 1151 747 1193 q 621 1094 675 1109 q 509 1078 566 1078 m 366 1191 l 173 1362 l 288 1449 l 451 1255 l 366 1191 z "},"Ở":{"ha":728,"x_min":77,"x_max":747,"o":"m 366 -10 q 274 2 323 -10 q 179 53 224 14 q 106 169 134 92 q 77 377 77 247 l 77 787 q 97 961 77 892 q 148 1073 116 1031 q 217 1135 179 1114 q 294 1162 256 1156 q 366 1168 333 1168 q 435 1162 397 1168 q 511 1136 473 1156 q 581 1075 549 1116 q 632 964 612 1034 q 651 787 651 894 l 651 377 q 621 171 651 248 q 546 55 591 94 q 452 3 500 16 q 366 -10 404 -10 m 366 127 q 443 167 418 127 q 468 314 468 206 l 468 836 q 443 989 468 947 q 366 1031 418 1031 q 287 989 312 1031 q 261 836 261 947 l 261 314 q 287 167 261 206 q 366 127 312 127 m 509 1078 l 452 1158 l 508 1158 q 600 1192 574 1158 q 627 1284 627 1226 q 621 1320 627 1297 q 604 1366 615 1343 l 734 1366 q 745 1309 744 1336 q 747 1270 747 1282 q 711 1151 747 1193 q 621 1094 675 1109 q 509 1078 566 1078 m 302 1234 l 302 1312 q 356 1327 338 1312 q 375 1363 375 1341 q 338 1417 375 1395 q 239 1445 302 1440 l 264 1537 q 429 1476 368 1527 q 489 1360 489 1426 q 444 1274 489 1305 q 302 1234 398 1242 z "},"Ỡ":{"ha":728,"x_min":77,"x_max":747,"o":"m 366 -10 q 274 2 323 -10 q 179 53 224 14 q 106 169 134 92 q 77 377 77 247 l 77 787 q 97 961 77 892 q 148 1073 116 1031 q 217 1135 179 1114 q 294 1162 256 1156 q 366 1168 333 1168 q 435 1162 397 1168 q 511 1136 473 1156 q 581 1075 549 1116 q 632 964 612 1034 q 651 787 651 894 l 651 377 q 621 171 651 248 q 546 55 591 94 q 452 3 500 16 q 366 -10 404 -10 m 366 127 q 443 167 418 127 q 468 314 468 206 l 468 836 q 443 989 468 947 q 366 1031 418 1031 q 287 989 312 1031 q 261 836 261 947 l 261 314 q 287 167 261 206 q 366 127 312 127 m 509 1078 l 452 1158 l 508 1158 q 600 1192 574 1158 q 627 1284 627 1226 q 621 1320 627 1297 q 604 1366 615 1343 l 734 1366 q 745 1309 744 1336 q 747 1270 747 1282 q 711 1151 747 1193 q 621 1094 675 1109 q 509 1078 566 1078 m 457 1213 q 397 1223 422 1213 q 349 1255 372 1234 q 310 1295 321 1281 q 280 1308 298 1308 q 256 1269 256 1308 l 256 1224 l 155 1224 q 154 1250 155 1232 q 153 1274 153 1268 q 191 1389 153 1358 q 278 1421 229 1421 q 334 1410 311 1421 q 379 1379 357 1400 q 413 1345 394 1364 q 450 1325 433 1325 q 479 1360 479 1325 l 479 1409 l 568 1409 q 574 1343 574 1365 q 539 1246 574 1279 q 457 1213 503 1213 z "},"Ő":{"ha":728,"x_min":76,"x_max":652,"o":"m 366 -10 q 274 2 323 -10 q 179 53 224 14 q 106 169 134 92 q 77 377 77 247 l 77 787 q 97 961 77 892 q 148 1073 116 1031 q 217 1135 179 1114 q 294 1162 256 1156 q 366 1168 333 1168 q 435 1162 397 1168 q 511 1136 473 1156 q 581 1075 549 1116 q 632 964 612 1034 q 651 787 651 894 l 651 377 q 621 171 651 248 q 546 55 591 94 q 452 3 500 16 q 366 -10 404 -10 m 366 127 q 443 167 418 127 q 468 314 468 206 l 468 836 q 443 989 468 947 q 366 1031 418 1031 q 287 989 312 1031 q 261 836 261 947 l 261 314 q 287 167 261 206 q 366 127 312 127 m 76 1255 l 260 1415 l 347 1301 l 147 1175 l 76 1255 m 381 1255 l 565 1415 l 652 1301 l 452 1175 l 381 1255 z "},"Ō":{"ha":728,"x_min":77,"x_max":651,"o":"m 366 -10 q 274 2 323 -10 q 179 53 224 14 q 106 169 134 92 q 77 377 77 247 l 77 787 q 97 961 77 892 q 148 1073 116 1031 q 217 1135 179 1114 q 294 1162 256 1156 q 366 1168 333 1168 q 435 1162 397 1168 q 511 1136 473 1156 q 581 1075 549 1116 q 632 964 612 1034 q 651 787 651 894 l 651 377 q 621 171 651 248 q 546 55 591 94 q 452 3 500 16 q 366 -10 404 -10 m 366 127 q 443 167 418 127 q 468 314 468 206 l 468 836 q 443 989 468 947 q 366 1031 418 1031 q 287 989 312 1031 q 261 836 261 947 l 261 314 q 287 167 261 206 q 366 127 312 127 m 153 1375 l 575 1375 l 575 1244 l 153 1244 l 153 1375 z "},"Ṓ":{"ha":728,"x_min":77,"x_max":651,"o":"m 366 -10 q 274 2 323 -10 q 179 53 224 14 q 106 169 134 92 q 77 377 77 247 l 77 787 q 97 961 77 892 q 148 1073 116 1031 q 217 1135 179 1114 q 294 1162 256 1156 q 366 1168 333 1168 q 435 1162 397 1168 q 511 1136 473 1156 q 581 1075 549 1116 q 632 964 612 1034 q 651 787 651 894 l 651 377 q 621 171 651 248 q 546 55 591 94 q 452 3 500 16 q 366 -10 404 -10 m 366 127 q 443 167 418 127 q 468 314 468 206 l 468 836 q 443 989 468 947 q 366 1031 418 1031 q 287 989 312 1031 q 261 836 261 947 l 261 314 q 287 167 261 206 q 366 127 312 127 m 153 1375 l 575 1375 l 575 1244 l 153 1244 l 153 1375 m 364 1401 l 279 1465 l 443 1659 l 557 1573 l 364 1401 z "},"Ṑ":{"ha":728,"x_min":77,"x_max":651,"o":"m 366 -10 q 274 2 323 -10 q 179 53 224 14 q 106 169 134 92 q 77 377 77 247 l 77 787 q 97 961 77 892 q 148 1073 116 1031 q 217 1135 179 1114 q 294 1162 256 1156 q 366 1168 333 1168 q 435 1162 397 1168 q 511 1136 473 1156 q 581 1075 549 1116 q 632 964 612 1034 q 651 787 651 894 l 651 377 q 621 171 651 248 q 546 55 591 94 q 452 3 500 16 q 366 -10 404 -10 m 366 127 q 443 167 418 127 q 468 314 468 206 l 468 836 q 443 989 468 947 q 366 1031 418 1031 q 287 989 312 1031 q 261 836 261 947 l 261 314 q 287 167 261 206 q 366 127 312 127 m 153 1375 l 575 1375 l 575 1244 l 153 1244 l 153 1375 m 366 1388 l 173 1559 l 288 1645 l 451 1451 l 366 1388 z "},"Ɔ":{"ha":629,"x_min":28,"x_max":557,"o":"m 557 377 q 528 169 557 247 q 455 53 500 92 q 360 2 410 14 q 269 -10 311 -10 q 90 57 152 -10 q 28 263 28 124 l 28 370 l 182 370 l 182 260 q 207 159 182 191 q 269 127 231 127 q 348 167 322 127 q 373 314 373 206 l 373 836 q 348 989 373 947 q 274 1031 322 1031 q 184 840 184 1031 l 184 785 l 49 785 q 36 854 41 823 q 30 923 30 886 q 53 1046 30 990 q 128 1135 75 1102 q 269 1168 180 1168 q 340 1162 302 1168 q 417 1135 378 1156 q 487 1073 455 1114 q 537 962 518 1031 q 557 787 557 892 l 557 377 z "},"Ø":{"ha":698,"x_min":65,"x_max":633,"o":"m 163 64 q 93 191 121 108 q 65 411 65 273 l 65 752 q 94 974 65 891 q 167 1099 123 1057 q 261 1153 212 1140 q 351 1166 310 1166 q 405 1162 376 1166 q 464 1145 434 1158 l 495 1260 l 580 1260 l 535 1096 q 605 971 577 1053 q 633 752 633 890 l 633 411 q 604 190 633 274 q 530 63 574 106 q 437 5 485 20 q 351 -10 389 -10 q 294 -5 324 -10 q 234 13 264 -1 l 199 -116 l 115 -116 l 163 64 m 422 994 q 351 1033 398 1033 q 272 985 297 1033 q 248 825 248 938 l 248 369 l 422 994 m 277 165 q 351 127 300 127 q 427 173 403 127 q 452 327 452 218 l 452 790 l 277 165 z "},"Ǿ":{"ha":698,"x_min":65,"x_max":633,"o":"m 163 64 q 93 191 121 108 q 65 411 65 273 l 65 752 q 94 974 65 891 q 167 1099 123 1057 q 261 1153 212 1140 q 351 1166 310 1166 q 405 1162 376 1166 q 464 1145 434 1158 l 495 1260 l 580 1260 l 535 1096 q 605 971 577 1053 q 633 752 633 890 l 633 411 q 604 190 633 274 q 530 63 574 106 q 437 5 485 20 q 351 -10 389 -10 q 294 -5 324 -10 q 234 13 264 -1 l 199 -116 l 115 -116 l 163 64 m 422 994 q 351 1033 398 1033 q 272 985 297 1033 q 248 825 248 938 l 248 369 l 422 994 m 277 165 q 351 127 300 127 q 427 173 403 127 q 452 327 452 218 l 452 790 l 277 165 m 351 1204 l 266 1268 l 429 1462 l 544 1376 l 351 1204 z "},"Õ":{"ha":728,"x_min":77,"x_max":651,"o":"m 366 -10 q 274 2 323 -10 q 179 53 224 14 q 106 169 134 92 q 77 377 77 247 l 77 787 q 97 961 77 892 q 148 1073 116 1031 q 217 1135 179 1114 q 294 1162 256 1156 q 366 1168 333 1168 q 435 1162 397 1168 q 511 1136 473 1156 q 581 1075 549 1116 q 632 964 612 1034 q 651 787 651 894 l 651 377 q 621 171 651 248 q 546 55 591 94 q 452 3 500 16 q 366 -10 404 -10 m 366 127 q 443 167 418 127 q 468 314 468 206 l 468 836 q 443 989 468 947 q 366 1031 418 1031 q 287 989 312 1031 q 261 836 261 947 l 261 314 q 287 167 261 206 q 366 127 312 127 m 457 1213 q 397 1223 422 1213 q 349 1255 372 1234 q 310 1295 321 1281 q 280 1308 298 1308 q 256 1269 256 1308 l 256 1224 l 155 1224 q 154 1250 155 1232 q 153 1274 153 1268 q 191 1389 153 1358 q 278 1421 229 1421 q 334 1410 311 1421 q 379 1379 357 1400 q 413 1345 394 1364 q 450 1325 433 1325 q 479 1360 479 1325 l 479 1409 l 568 1409 q 574 1343 574 1365 q 539 1246 574 1279 q 457 1213 503 1213 z "},"Ṍ":{"ha":728,"x_min":77,"x_max":651,"o":"m 366 -10 q 274 2 323 -10 q 179 53 224 14 q 106 169 134 92 q 77 377 77 247 l 77 787 q 97 961 77 892 q 148 1073 116 1031 q 217 1135 179 1114 q 294 1162 256 1156 q 366 1168 333 1168 q 435 1162 397 1168 q 511 1136 473 1156 q 581 1075 549 1116 q 632 964 612 1034 q 651 787 651 894 l 651 377 q 621 171 651 248 q 546 55 591 94 q 452 3 500 16 q 366 -10 404 -10 m 366 127 q 443 167 418 127 q 468 314 468 206 l 468 836 q 443 989 468 947 q 366 1031 418 1031 q 287 989 312 1031 q 261 836 261 947 l 261 314 q 287 167 261 206 q 366 127 312 127 m 457 1213 q 397 1223 422 1213 q 349 1255 372 1234 q 310 1295 321 1281 q 280 1308 298 1308 q 256 1269 256 1308 l 256 1224 l 155 1224 q 154 1250 155 1232 q 153 1274 153 1268 q 191 1389 153 1358 q 278 1421 229 1421 q 334 1410 311 1421 q 379 1379 357 1400 q 413 1345 394 1364 q 450 1325 433 1325 q 479 1360 479 1325 l 479 1409 l 568 1409 q 574 1343 574 1365 q 539 1246 574 1279 q 457 1213 503 1213 m 364 1440 l 279 1504 l 443 1698 l 557 1612 l 364 1440 z "},"Œ":{"ha":922,"x_min":66,"x_max":877,"o":"m 66 730 q 91 932 66 853 q 157 1058 116 1012 q 247 1125 198 1103 q 345 1153 296 1147 q 433 1158 393 1158 l 877 1158 l 877 1019 l 610 1019 l 610 675 l 818 675 l 818 523 l 610 523 l 610 139 l 877 139 l 877 0 l 433 0 q 345 6 393 0 q 247 33 296 12 q 157 100 198 54 q 91 226 116 146 q 66 428 66 305 l 66 730 m 435 127 l 435 1031 l 425 1031 q 286 965 324 1031 q 248 762 248 899 l 248 395 q 289 190 248 253 q 425 127 329 127 l 435 127 z "},"P":{"ha":675,"x_min":96,"x_max":629,"o":"m 96 1158 l 271 1158 q 359 1153 311 1158 q 454 1130 407 1148 q 542 1074 502 1112 q 605 968 581 1035 q 629 800 629 902 l 629 759 q 607 574 629 648 q 548 455 585 500 q 466 389 511 411 q 375 360 421 367 q 288 353 329 353 l 271 353 l 271 0 l 96 0 l 96 1158 m 280 481 q 412 538 376 481 q 448 726 448 595 l 448 831 q 414 983 448 934 q 280 1031 380 1031 l 271 1031 l 271 481 l 280 481 z "},"Þ":{"ha":675,"x_min":96,"x_max":629,"o":"m 96 1158 l 270 1158 l 270 985 l 277 985 q 364 980 317 985 q 457 957 411 975 q 543 901 504 939 q 605 796 582 863 q 629 627 629 730 l 629 586 q 607 401 629 475 q 548 282 585 327 q 466 216 511 238 q 375 186 421 193 q 288 179 329 179 l 271 179 l 271 0 l 96 0 l 96 1158 m 280 309 q 412 366 376 309 q 448 554 448 423 l 448 658 q 414 809 448 761 q 280 858 380 858 l 271 858 l 271 309 l 280 309 z "},"Q":{"ha":719,"x_min":73,"x_max":646,"o":"m 595 -209 q 533 -229 562 -224 q 471 -235 504 -235 q 419 -230 450 -235 q 359 -207 389 -224 q 310 -151 330 -189 q 290 -49 290 -114 l 290 -3 q 213 25 251 4 q 142 89 174 47 q 92 202 111 132 q 73 377 73 272 l 73 787 q 92 961 73 892 q 143 1073 111 1031 q 213 1135 174 1114 q 290 1162 251 1156 q 361 1168 328 1168 q 430 1162 392 1168 q 507 1136 469 1156 q 576 1075 545 1116 q 627 964 608 1034 q 646 787 646 894 l 646 377 q 614 165 646 243 q 534 49 583 87 q 437 -1 486 12 l 437 -11 q 468 -96 437 -77 q 559 -115 499 -115 q 578 -115 568 -115 q 595 -114 587 -115 l 595 -209 m 361 127 q 438 167 413 127 q 463 314 463 206 l 463 836 q 438 989 463 947 q 361 1031 413 1031 q 282 989 307 1031 q 256 836 256 947 l 256 314 q 282 167 256 206 q 361 127 307 127 z "},"R":{"ha":719,"x_min":96,"x_max":678,"o":"m 96 1158 l 286 1158 q 374 1154 326 1158 q 470 1132 422 1149 q 557 1080 517 1116 q 620 983 596 1044 q 644 827 644 922 l 644 798 q 488 463 644 538 l 678 0 l 491 0 l 332 433 l 271 433 l 271 0 l 96 0 l 96 1158 m 294 560 q 427 605 391 560 q 463 766 463 650 l 463 858 q 429 989 463 947 q 294 1031 395 1031 l 271 1031 l 271 560 l 294 560 z "},"Ŕ":{"ha":719,"x_min":96,"x_max":678,"o":"m 96 1158 l 286 1158 q 374 1154 326 1158 q 470 1132 422 1149 q 557 1080 517 1116 q 620 983 596 1044 q 644 827 644 922 l 644 798 q 488 463 644 538 l 678 0 l 491 0 l 332 433 l 271 433 l 271 0 l 96 0 l 96 1158 m 294 560 q 427 605 391 560 q 463 766 463 650 l 463 858 q 429 989 463 947 q 294 1031 395 1031 l 271 1031 l 271 560 l 294 560 m 359 1204 l 275 1268 l 438 1462 l 553 1376 l 359 1204 z "},"Ř":{"ha":719,"x_min":96,"x_max":678,"o":"m 96 1158 l 286 1158 q 374 1154 326 1158 q 470 1132 422 1149 q 557 1080 517 1116 q 620 983 596 1044 q 644 827 644 922 l 644 798 q 488 463 644 538 l 678 0 l 491 0 l 332 433 l 271 433 l 271 0 l 96 0 l 96 1158 m 294 560 q 427 605 391 560 q 463 766 463 650 l 463 858 q 429 989 463 947 q 294 1031 395 1031 l 271 1031 l 271 560 l 294 560 m 438 1415 l 607 1415 l 440 1204 l 281 1204 l 112 1415 l 280 1415 l 337 1326 l 364 1289 l 391 1326 l 438 1415 z "},"Ŗ":{"ha":719,"x_min":96,"x_max":678,"o":"m 96 1158 l 286 1158 q 374 1154 326 1158 q 470 1132 422 1149 q 557 1080 517 1116 q 620 983 596 1044 q 644 827 644 922 l 644 798 q 488 463 644 538 l 678 0 l 491 0 l 332 433 l 271 433 l 271 0 l 96 0 l 96 1158 m 294 560 q 427 605 391 560 q 463 766 463 650 l 463 858 q 429 989 463 947 q 294 1031 395 1031 l 271 1031 l 271 560 l 294 560 m 441 -66 l 368 -360 l 236 -360 l 278 -66 l 441 -66 z "},"Ṝ":{"ha":719,"x_min":96,"x_max":678,"o":"m 96 1158 l 286 1158 q 374 1154 326 1158 q 470 1132 422 1149 q 557 1080 517 1116 q 620 983 596 1044 q 644 827 644 922 l 644 798 q 488 463 644 538 l 678 0 l 491 0 l 332 433 l 271 433 l 271 0 l 96 0 l 96 1158 m 294 560 q 427 605 391 560 q 463 766 463 650 l 463 858 q 429 989 463 947 q 294 1031 395 1031 l 271 1031 l 271 560 l 294 560 m 254 -174 q 282 -89 254 -114 q 359 -64 311 -64 q 438 -91 410 -64 q 466 -174 466 -118 q 437 -258 466 -227 q 359 -288 409 -288 q 282 -258 311 -288 q 254 -174 254 -229 m 148 1375 l 570 1375 l 570 1244 l 148 1244 l 148 1375 z "},"Ṟ":{"ha":719,"x_min":96,"x_max":678,"o":"m 96 1158 l 286 1158 q 374 1154 326 1158 q 470 1132 422 1149 q 557 1080 517 1116 q 620 983 596 1044 q 644 827 644 922 l 644 798 q 488 463 644 538 l 678 0 l 491 0 l 332 433 l 271 433 l 271 0 l 96 0 l 96 1158 m 294 560 q 427 605 391 560 q 463 766 463 650 l 463 858 q 429 989 463 947 q 294 1031 395 1031 l 271 1031 l 271 560 l 294 560 m 148 -106 l 570 -106 l 570 -237 l 148 -237 l 148 -106 z "},"S":{"ha":635,"x_min":44,"x_max":596,"o":"m 44 235 q 48 304 44 272 q 62 372 53 336 l 198 372 l 198 320 q 227 177 198 227 q 314 127 255 127 q 416 227 416 127 q 399 308 416 265 q 334 412 382 351 l 151 642 q 76 767 103 705 q 50 906 50 829 q 121 1095 50 1021 q 319 1168 193 1168 q 480 1132 422 1168 q 563 1038 538 1095 q 587 923 587 982 q 581 854 587 886 q 568 785 575 823 l 432 785 l 432 840 q 403 981 432 932 q 319 1031 374 1031 q 244 1003 270 1031 q 219 930 219 976 q 235 858 219 890 q 277 792 252 826 l 481 533 q 567 395 537 460 q 596 250 596 330 q 519 59 596 130 q 315 -11 443 -11 q 152 25 211 -11 q 68 117 92 60 q 44 235 44 173 z "},"Ś":{"ha":635,"x_min":44,"x_max":596,"o":"m 44 235 q 48 304 44 272 q 62 372 53 336 l 198 372 l 198 320 q 227 177 198 227 q 314 127 255 127 q 416 227 416 127 q 399 308 416 265 q 334 412 382 351 l 151 642 q 76 767 103 705 q 50 906 50 829 q 121 1095 50 1021 q 319 1168 193 1168 q 480 1132 422 1168 q 563 1038 538 1095 q 587 923 587 982 q 581 854 587 886 q 568 785 575 823 l 432 785 l 432 840 q 403 981 432 932 q 319 1031 374 1031 q 244 1003 270 1031 q 219 930 219 976 q 235 858 219 890 q 277 792 252 826 l 481 533 q 567 395 537 460 q 596 250 596 330 q 519 59 596 130 q 315 -11 443 -11 q 152 25 211 -11 q 68 117 92 60 q 44 235 44 173 m 317 1204 l 233 1268 l 396 1462 l 511 1376 l 317 1204 z "},"Ꞌ":{"ha":367,"x_min":96,"x_max":271,"o":"m 96 1158 l 271 1158 l 271 412 l 96 412 l 96 1158 z "},"Š":{"ha":635,"x_min":44,"x_max":596,"o":"m 44 235 q 48 304 44 272 q 62 372 53 336 l 198 372 l 198 320 q 227 177 198 227 q 314 127 255 127 q 416 227 416 127 q 399 308 416 265 q 334 412 382 351 l 151 642 q 76 767 103 705 q 50 906 50 829 q 121 1095 50 1021 q 319 1168 193 1168 q 480 1132 422 1168 q 563 1038 538 1095 q 587 923 587 982 q 581 854 587 886 q 568 785 575 823 l 432 785 l 432 840 q 403 981 432 932 q 319 1031 374 1031 q 244 1003 270 1031 q 219 930 219 976 q 235 858 219 890 q 277 792 252 826 l 481 533 q 567 395 537 460 q 596 250 596 330 q 519 59 596 130 q 315 -11 443 -11 q 152 25 211 -11 q 68 117 92 60 q 44 235 44 173 m 396 1415 l 565 1415 l 398 1204 l 239 1204 l 70 1415 l 238 1415 l 295 1326 l 322 1289 l 349 1326 l 396 1415 z "},"Ş":{"ha":635,"x_min":44,"x_max":596,"o":"m 44 235 q 48 304 44 272 q 62 372 53 336 l 198 372 l 198 320 q 227 177 198 227 q 314 127 255 127 q 416 227 416 127 q 399 308 416 265 q 334 412 382 351 l 151 642 q 76 767 103 705 q 50 906 50 829 q 121 1095 50 1021 q 319 1168 193 1168 q 480 1132 422 1168 q 563 1038 538 1095 q 587 923 587 982 q 581 854 587 886 q 568 785 575 823 l 432 785 l 432 840 q 403 981 432 932 q 319 1031 374 1031 q 244 1003 270 1031 q 219 930 219 976 q 235 858 219 890 q 277 792 252 826 l 481 533 q 567 395 537 460 q 596 250 596 330 q 519 59 596 130 q 315 -11 443 -11 q 152 25 211 -11 q 68 117 92 60 q 44 235 44 173 m 419 9 l 424 -71 q 411 -186 428 -143 q 368 -250 395 -229 q 315 -278 342 -271 q 272 -284 288 -284 q 221 -279 244 -284 q 170 -264 197 -275 l 174 -161 q 185 -162 180 -162 q 197 -162 191 -162 q 270 -139 243 -162 q 301 -38 298 -117 l 303 9 l 419 9 z "},"Ŝ":{"ha":635,"x_min":44,"x_max":596,"o":"m 44 235 q 48 304 44 272 q 62 372 53 336 l 198 372 l 198 320 q 227 177 198 227 q 314 127 255 127 q 416 227 416 127 q 399 308 416 265 q 334 412 382 351 l 151 642 q 76 767 103 705 q 50 906 50 829 q 121 1095 50 1021 q 319 1168 193 1168 q 480 1132 422 1168 q 563 1038 538 1095 q 587 923 587 982 q 581 854 587 886 q 568 785 575 823 l 432 785 l 432 840 q 403 981 432 932 q 319 1031 374 1031 q 244 1003 270 1031 q 219 930 219 976 q 235 858 219 890 q 277 792 252 826 l 481 533 q 567 395 537 460 q 596 250 596 330 q 519 59 596 130 q 315 -11 443 -11 q 152 25 211 -11 q 68 117 92 60 q 44 235 44 173 m 349 1313 l 322 1351 l 295 1313 l 238 1225 l 70 1225 l 239 1435 l 398 1435 l 565 1225 l 396 1225 l 349 1313 z "},"Ș":{"ha":635,"x_min":44,"x_max":596,"o":"m 44 235 q 48 304 44 272 q 62 372 53 336 l 198 372 l 198 320 q 227 177 198 227 q 314 127 255 127 q 416 227 416 127 q 399 308 416 265 q 334 412 382 351 l 151 642 q 76 767 103 705 q 50 906 50 829 q 121 1095 50 1021 q 319 1168 193 1168 q 480 1132 422 1168 q 563 1038 538 1095 q 587 923 587 982 q 581 854 587 886 q 568 785 575 823 l 432 785 l 432 840 q 403 981 432 932 q 319 1031 374 1031 q 244 1003 270 1031 q 219 930 219 976 q 235 858 219 890 q 277 792 252 826 l 481 533 q 567 395 537 460 q 596 250 596 330 q 519 59 596 130 q 315 -11 443 -11 q 152 25 211 -11 q 68 117 92 60 q 44 235 44 173 m 399 -66 l 326 -360 l 194 -360 l 236 -66 l 399 -66 z "},"Ṣ":{"ha":635,"x_min":44,"x_max":596,"o":"m 44 235 q 48 304 44 272 q 62 372 53 336 l 198 372 l 198 320 q 227 177 198 227 q 314 127 255 127 q 416 227 416 127 q 399 308 416 265 q 334 412 382 351 l 151 642 q 76 767 103 705 q 50 906 50 829 q 121 1095 50 1021 q 319 1168 193 1168 q 480 1132 422 1168 q 563 1038 538 1095 q 587 923 587 982 q 581 854 587 886 q 568 785 575 823 l 432 785 l 432 840 q 403 981 432 932 q 319 1031 374 1031 q 244 1003 270 1031 q 219 930 219 976 q 235 858 219 890 q 277 792 252 826 l 481 533 q 567 395 537 460 q 596 250 596 330 q 519 59 596 130 q 315 -11 443 -11 q 152 25 211 -11 q 68 117 92 60 q 44 235 44 173 m 212 -174 q 240 -89 212 -114 q 317 -64 269 -64 q 396 -91 368 -64 q 424 -174 424 -118 q 395 -258 424 -227 q 317 -288 367 -288 q 240 -258 269 -288 q 212 -174 212 -229 z "},"ẞ":{"ha":804,"x_min":96,"x_max":762,"o":"m 96 0 l 96 723 q 122 935 96 850 q 195 1068 149 1019 q 304 1138 242 1117 q 439 1158 367 1158 l 762 1158 l 568 711 q 629 695 596 709 q 692 649 663 682 q 740 558 722 617 q 759 406 759 500 l 759 326 q 736 141 759 208 q 677 44 713 74 q 598 7 641 14 q 517 0 556 0 l 409 0 l 409 136 l 466 136 q 527 149 501 136 q 566 199 552 162 q 579 304 579 235 l 579 432 q 558 538 579 502 q 508 587 537 574 q 454 600 479 600 l 368 600 l 547 1021 l 439 1021 q 336 986 372 1021 q 286 894 300 952 q 271 764 271 836 l 271 0 l 96 0 z "},"T":{"ha":581,"x_min":16,"x_max":564,"o":"m 203 1020 l 16 1020 l 16 1158 l 564 1158 l 564 1020 l 378 1020 l 378 0 l 203 0 l 203 1020 z "},"Ŧ":{"ha":581,"x_min":16,"x_max":564,"o":"m 38 779 l 203 779 l 203 1020 l 16 1020 l 16 1158 l 564 1158 l 564 1020 l 378 1020 l 378 779 l 543 779 l 543 642 l 378 642 l 378 0 l 203 0 l 203 642 l 38 642 l 38 779 z "},"Ť":{"ha":581,"x_min":16,"x_max":564,"o":"m 203 1020 l 16 1020 l 16 1158 l 564 1158 l 564 1020 l 378 1020 l 378 0 l 203 0 l 203 1020 m 369 1415 l 538 1415 l 371 1204 l 212 1204 l 43 1415 l 211 1415 l 268 1326 l 295 1289 l 322 1326 l 369 1415 z "},"Ţ":{"ha":581,"x_min":16,"x_max":564,"o":"m 203 1020 l 16 1020 l 16 1158 l 564 1158 l 564 1020 l 378 1020 l 378 0 l 203 0 l 203 1020 m 347 9 l 352 -71 q 339 -186 356 -143 q 296 -250 323 -229 q 243 -278 270 -271 q 200 -284 216 -284 q 149 -279 172 -284 q 98 -264 125 -275 l 102 -161 q 114 -162 108 -162 q 125 -162 119 -162 q 198 -139 171 -162 q 229 -38 226 -117 l 231 9 l 347 9 z "},"Ṱ":{"ha":581,"x_min":16,"x_max":564,"o":"m 203 1020 l 16 1020 l 16 1158 l 564 1158 l 564 1020 l 378 1020 l 378 0 l 203 0 l 203 1020 m 347 -44 l 534 -316 l 386 -316 l 326 -213 l 292 -157 l 258 -213 l 194 -316 l 46 -316 l 229 -44 l 347 -44 z "},"Ț":{"ha":581,"x_min":16,"x_max":564,"o":"m 203 1020 l 16 1020 l 16 1158 l 564 1158 l 564 1020 l 378 1020 l 378 0 l 203 0 l 203 1020 m 372 -66 l 299 -360 l 167 -360 l 209 -66 l 372 -66 z "},"ț":{"ha":581,"x_min":16,"x_max":564,"o":"m 203 1020 l 16 1020 l 16 1158 l 564 1158 l 564 1020 l 378 1020 l 378 0 l 203 0 l 203 1020 m 372 -66 l 299 -360 l 167 -360 l 209 -66 l 372 -66 z "},"Ṭ":{"ha":581,"x_min":16,"x_max":564,"o":"m 203 1020 l 16 1020 l 16 1158 l 564 1158 l 564 1020 l 378 1020 l 378 0 l 203 0 l 203 1020 m 184 -174 q 213 -89 184 -114 q 290 -64 242 -64 q 369 -91 340 -64 q 397 -174 397 -118 q 368 -258 397 -227 q 290 -288 340 -288 q 213 -258 242 -288 q 184 -174 184 -229 z "},"Ṯ":{"ha":581,"x_min":16,"x_max":564,"o":"m 203 1020 l 16 1020 l 16 1158 l 564 1158 l 564 1020 l 378 1020 l 378 0 l 203 0 l 203 1020 m 79 -106 l 501 -106 l 501 -237 l 79 -237 l 79 -106 z "},"Ʈ":{"ha":581,"x_min":16,"x_max":564,"o":"m 392 -301 q 301 -282 345 -301 q 230 -211 258 -264 q 203 -57 203 -159 l 203 1020 l 16 1020 l 16 1158 l 564 1158 l 564 1020 l 378 1020 l 378 -79 q 401 -163 378 -140 q 453 -186 423 -186 q 464 -186 458 -186 q 475 -185 470 -186 l 475 -285 q 433 -297 454 -294 q 392 -301 412 -301 z "},"U":{"ha":743,"x_min":96,"x_max":646,"o":"m 371 -10 q 304 -4 341 -10 q 231 21 267 1 q 163 80 194 40 q 114 186 133 119 q 96 356 96 254 l 96 1158 l 271 1158 l 271 315 q 295 167 271 207 q 371 127 319 127 q 447 167 423 127 q 471 315 471 207 l 471 1158 l 646 1158 l 646 356 q 628 186 646 254 q 578 80 609 119 q 511 21 548 40 q 438 -4 475 1 q 371 -10 401 -10 z "},"Ú":{"ha":743,"x_min":96,"x_max":646,"o":"m 371 -10 q 304 -4 341 -10 q 231 21 267 1 q 163 80 194 40 q 114 186 133 119 q 96 356 96 254 l 96 1158 l 271 1158 l 271 315 q 295 167 271 207 q 371 127 319 127 q 447 167 423 127 q 471 315 471 207 l 471 1158 l 646 1158 l 646 356 q 628 186 646 254 q 578 80 609 119 q 511 21 548 40 q 438 -4 475 1 q 371 -10 401 -10 m 372 1204 l 287 1268 l 450 1462 l 565 1376 l 372 1204 z "},"Ŭ":{"ha":743,"x_min":96,"x_max":646,"o":"m 371 -10 q 304 -4 341 -10 q 231 21 267 1 q 163 80 194 40 q 114 186 133 119 q 96 356 96 254 l 96 1158 l 271 1158 l 271 315 q 295 167 271 207 q 371 127 319 127 q 447 167 423 127 q 471 315 471 207 l 471 1158 l 646 1158 l 646 356 q 628 186 646 254 q 578 80 609 119 q 511 21 548 40 q 438 -4 475 1 q 371 -10 401 -10 m 368 1211 q 208 1262 260 1211 q 155 1392 155 1312 q 159 1437 155 1415 l 280 1437 q 274 1414 275 1426 q 273 1389 273 1402 q 368 1322 273 1322 q 475 1389 475 1322 q 475 1414 475 1402 q 469 1437 475 1426 l 584 1437 q 588 1392 588 1415 q 534 1264 588 1316 q 368 1211 479 1211 z "},"Ǔ":{"ha":743,"x_min":96,"x_max":646,"o":"m 371 -10 q 304 -4 341 -10 q 231 21 267 1 q 163 80 194 40 q 114 186 133 119 q 96 356 96 254 l 96 1158 l 271 1158 l 271 315 q 295 167 271 207 q 371 127 319 127 q 447 167 423 127 q 471 315 471 207 l 471 1158 l 646 1158 l 646 356 q 628 186 646 254 q 578 80 609 119 q 511 21 548 40 q 438 -4 475 1 q 371 -10 401 -10 m 450 1415 l 619 1415 l 452 1204 l 294 1204 l 124 1415 l 292 1415 l 349 1326 l 376 1289 l 404 1326 l 450 1415 z "},"Û":{"ha":743,"x_min":96,"x_max":646,"o":"m 371 -10 q 304 -4 341 -10 q 231 21 267 1 q 163 80 194 40 q 114 186 133 119 q 96 356 96 254 l 96 1158 l 271 1158 l 271 315 q 295 167 271 207 q 371 127 319 127 q 447 167 423 127 q 471 315 471 207 l 471 1158 l 646 1158 l 646 356 q 628 186 646 254 q 578 80 609 119 q 511 21 548 40 q 438 -4 475 1 q 371 -10 401 -10 m 404 1313 l 376 1351 l 349 1313 l 292 1225 l 124 1225 l 294 1435 l 452 1435 l 619 1225 l 450 1225 l 404 1313 z "},"Ü":{"ha":743,"x_min":96,"x_max":646,"o":"m 371 -10 q 304 -4 341 -10 q 231 21 267 1 q 163 80 194 40 q 114 186 133 119 q 96 356 96 254 l 96 1158 l 271 1158 l 271 315 q 295 167 271 207 q 371 127 319 127 q 447 167 423 127 q 471 315 471 207 l 471 1158 l 646 1158 l 646 356 q 628 186 646 254 q 578 80 609 119 q 511 21 548 40 q 438 -4 475 1 q 371 -10 401 -10 m 220 1210 q 148 1236 168 1210 q 127 1314 127 1263 q 147 1396 127 1368 q 220 1423 167 1423 q 297 1397 276 1423 q 319 1314 319 1370 q 297 1237 319 1265 q 220 1210 276 1210 m 517 1210 q 444 1236 464 1210 q 425 1314 425 1263 q 444 1396 425 1368 q 517 1423 463 1423 q 594 1397 572 1423 q 616 1314 616 1370 q 594 1237 616 1265 q 517 1210 572 1210 z "},"Ǘ":{"ha":743,"x_min":96,"x_max":646,"o":"m 371 -10 q 304 -4 341 -10 q 231 21 267 1 q 163 80 194 40 q 114 186 133 119 q 96 356 96 254 l 96 1158 l 271 1158 l 271 315 q 295 167 271 207 q 371 127 319 127 q 447 167 423 127 q 471 315 471 207 l 471 1158 l 646 1158 l 646 356 q 628 186 646 254 q 578 80 609 119 q 511 21 548 40 q 438 -4 475 1 q 371 -10 401 -10 m 220 1210 q 148 1236 168 1210 q 127 1314 127 1263 q 147 1396 127 1368 q 220 1423 167 1423 q 297 1397 276 1423 q 319 1314 319 1370 q 297 1237 319 1265 q 220 1210 276 1210 m 517 1210 q 444 1236 464 1210 q 425 1314 425 1263 q 444 1396 425 1368 q 517 1423 463 1423 q 594 1397 572 1423 q 616 1314 616 1370 q 594 1237 616 1265 q 517 1210 572 1210 m 372 1456 l 287 1520 l 450 1714 l 565 1628 l 372 1456 z "},"Ǚ":{"ha":743,"x_min":96,"x_max":646,"o":"m 371 -10 q 304 -4 341 -10 q 231 21 267 1 q 163 80 194 40 q 114 186 133 119 q 96 356 96 254 l 96 1158 l 271 1158 l 271 315 q 295 167 271 207 q 371 127 319 127 q 447 167 423 127 q 471 315 471 207 l 471 1158 l 646 1158 l 646 356 q 628 186 646 254 q 578 80 609 119 q 511 21 548 40 q 438 -4 475 1 q 371 -10 401 -10 m 220 1210 q 148 1236 168 1210 q 127 1314 127 1263 q 147 1396 127 1368 q 220 1423 167 1423 q 297 1397 276 1423 q 319 1314 319 1370 q 297 1237 319 1265 q 220 1210 276 1210 m 517 1210 q 444 1236 464 1210 q 425 1314 425 1263 q 444 1396 425 1368 q 517 1423 463 1423 q 594 1397 572 1423 q 616 1314 616 1370 q 594 1237 616 1265 q 517 1210 572 1210 m 450 1666 l 619 1666 l 452 1456 l 294 1456 l 124 1666 l 292 1666 l 349 1578 l 376 1540 l 404 1578 l 450 1666 z "},"Ǜ":{"ha":743,"x_min":96,"x_max":646,"o":"m 371 -10 q 304 -4 341 -10 q 231 21 267 1 q 163 80 194 40 q 114 186 133 119 q 96 356 96 254 l 96 1158 l 271 1158 l 271 315 q 295 167 271 207 q 371 127 319 127 q 447 167 423 127 q 471 315 471 207 l 471 1158 l 646 1158 l 646 356 q 628 186 646 254 q 578 80 609 119 q 511 21 548 40 q 438 -4 475 1 q 371 -10 401 -10 m 220 1210 q 148 1236 168 1210 q 127 1314 127 1263 q 147 1396 127 1368 q 220 1423 167 1423 q 297 1397 276 1423 q 319 1314 319 1370 q 297 1237 319 1265 q 220 1210 276 1210 m 517 1210 q 444 1236 464 1210 q 425 1314 425 1263 q 444 1396 425 1368 q 517 1423 463 1423 q 594 1397 572 1423 q 616 1314 616 1370 q 594 1237 616 1265 q 517 1210 572 1210 m 374 1442 l 180 1614 l 295 1700 l 458 1506 l 374 1442 z "},"Ǖ":{"ha":743,"x_min":96,"x_max":646,"o":"m 371 -10 q 304 -4 341 -10 q 231 21 267 1 q 163 80 194 40 q 114 186 133 119 q 96 356 96 254 l 96 1158 l 271 1158 l 271 315 q 295 167 271 207 q 371 127 319 127 q 447 167 423 127 q 471 315 471 207 l 471 1158 l 646 1158 l 646 356 q 628 186 646 254 q 578 80 609 119 q 511 21 548 40 q 438 -4 475 1 q 371 -10 401 -10 m 220 1210 q 148 1236 168 1210 q 127 1314 127 1263 q 147 1396 127 1368 q 220 1423 167 1423 q 297 1397 276 1423 q 319 1314 319 1370 q 297 1237 319 1265 q 220 1210 276 1210 m 517 1210 q 444 1236 464 1210 q 425 1314 425 1263 q 444 1396 425 1368 q 517 1423 463 1423 q 594 1397 572 1423 q 616 1314 616 1370 q 594 1237 616 1265 q 517 1210 572 1210 m 160 1627 l 583 1627 l 583 1496 l 160 1496 l 160 1627 z "},"Ụ":{"ha":743,"x_min":96,"x_max":646,"o":"m 371 -10 q 304 -4 341 -10 q 231 21 267 1 q 163 80 194 40 q 114 186 133 119 q 96 356 96 254 l 96 1158 l 271 1158 l 271 315 q 295 167 271 207 q 371 127 319 127 q 447 167 423 127 q 471 315 471 207 l 471 1158 l 646 1158 l 646 356 q 628 186 646 254 q 578 80 609 119 q 511 21 548 40 q 438 -4 475 1 q 371 -10 401 -10 m 266 -174 q 295 -89 266 -114 q 372 -64 323 -64 q 450 -91 422 -64 q 478 -174 478 -118 q 450 -258 478 -227 q 371 -288 421 -288 q 295 -258 323 -288 q 266 -174 266 -229 z "},"Ù":{"ha":743,"x_min":96,"x_max":646,"o":"m 371 -10 q 304 -4 341 -10 q 231 21 267 1 q 163 80 194 40 q 114 186 133 119 q 96 356 96 254 l 96 1158 l 271 1158 l 271 315 q 295 167 271 207 q 371 127 319 127 q 447 167 423 127 q 471 315 471 207 l 471 1158 l 646 1158 l 646 356 q 628 186 646 254 q 578 80 609 119 q 511 21 548 40 q 438 -4 475 1 q 371 -10 401 -10 m 374 1191 l 180 1362 l 295 1449 l 458 1255 l 374 1191 z "},"Ủ":{"ha":743,"x_min":96,"x_max":646,"o":"m 371 -10 q 304 -4 341 -10 q 231 21 267 1 q 163 80 194 40 q 114 186 133 119 q 96 356 96 254 l 96 1158 l 271 1158 l 271 315 q 295 167 271 207 q 371 127 319 127 q 447 167 423 127 q 471 315 471 207 l 471 1158 l 646 1158 l 646 356 q 628 186 646 254 q 578 80 609 119 q 511 21 548 40 q 438 -4 475 1 q 371 -10 401 -10 m 309 1234 l 309 1312 q 364 1327 345 1312 q 382 1363 382 1341 q 346 1417 382 1395 q 247 1445 309 1440 l 271 1537 q 436 1476 376 1527 q 496 1360 496 1426 q 451 1274 496 1305 q 309 1234 406 1242 z "},"Ư":{"ha":743,"x_min":96,"x_max":845,"o":"m 371 -10 q 304 -4 341 -10 q 231 21 267 1 q 163 80 194 40 q 114 186 133 119 q 96 356 96 254 l 96 1158 l 271 1158 l 271 315 q 295 167 271 207 q 371 127 319 127 q 447 167 423 127 q 471 315 471 207 l 471 1158 l 646 1158 l 646 356 q 628 186 646 254 q 578 80 609 119 q 511 21 548 40 q 438 -4 475 1 q 371 -10 401 -10 m 607 1078 l 550 1158 l 606 1158 q 699 1192 672 1158 q 725 1284 725 1226 q 719 1320 725 1297 q 702 1366 713 1343 l 832 1366 q 844 1309 842 1336 q 845 1270 845 1282 q 809 1151 845 1193 q 719 1094 774 1109 q 607 1078 665 1078 z "},"Ứ":{"ha":743,"x_min":96,"x_max":845,"o":"m 371 -10 q 304 -4 341 -10 q 231 21 267 1 q 163 80 194 40 q 114 186 133 119 q 96 356 96 254 l 96 1158 l 271 1158 l 271 315 q 295 167 271 207 q 371 127 319 127 q 447 167 423 127 q 471 315 471 207 l 471 1158 l 646 1158 l 646 356 q 628 186 646 254 q 578 80 609 119 q 511 21 548 40 q 438 -4 475 1 q 371 -10 401 -10 m 607 1078 l 550 1158 l 606 1158 q 699 1192 672 1158 q 725 1284 725 1226 q 719 1320 725 1297 q 702 1366 713 1343 l 832 1366 q 844 1309 842 1336 q 845 1270 845 1282 q 809 1151 845 1193 q 719 1094 774 1109 q 607 1078 665 1078 m 372 1204 l 287 1268 l 450 1462 l 565 1376 l 372 1204 z "},"Ự":{"ha":743,"x_min":96,"x_max":845,"o":"m 371 -10 q 304 -4 341 -10 q 231 21 267 1 q 163 80 194 40 q 114 186 133 119 q 96 356 96 254 l 96 1158 l 271 1158 l 271 315 q 295 167 271 207 q 371 127 319 127 q 447 167 423 127 q 471 315 471 207 l 471 1158 l 646 1158 l 646 356 q 628 186 646 254 q 578 80 609 119 q 511 21 548 40 q 438 -4 475 1 q 371 -10 401 -10 m 607 1078 l 550 1158 l 606 1158 q 699 1192 672 1158 q 725 1284 725 1226 q 719 1320 725 1297 q 702 1366 713 1343 l 832 1366 q 844 1309 842 1336 q 845 1270 845 1282 q 809 1151 845 1193 q 719 1094 774 1109 q 607 1078 665 1078 m 266 -174 q 295 -89 266 -114 q 372 -64 323 -64 q 450 -91 422 -64 q 478 -174 478 -118 q 450 -258 478 -227 q 371 -288 421 -288 q 295 -258 323 -288 q 266 -174 266 -229 z "},"Ừ":{"ha":743,"x_min":96,"x_max":845,"o":"m 371 -10 q 304 -4 341 -10 q 231 21 267 1 q 163 80 194 40 q 114 186 133 119 q 96 356 96 254 l 96 1158 l 271 1158 l 271 315 q 295 167 271 207 q 371 127 319 127 q 447 167 423 127 q 471 315 471 207 l 471 1158 l 646 1158 l 646 356 q 628 186 646 254 q 578 80 609 119 q 511 21 548 40 q 438 -4 475 1 q 371 -10 401 -10 m 607 1078 l 550 1158 l 606 1158 q 699 1192 672 1158 q 725 1284 725 1226 q 719 1320 725 1297 q 702 1366 713 1343 l 832 1366 q 844 1309 842 1336 q 845 1270 845 1282 q 809 1151 845 1193 q 719 1094 774 1109 q 607 1078 665 1078 m 374 1191 l 180 1362 l 295 1449 l 458 1255 l 374 1191 z "},"Ử":{"ha":743,"x_min":96,"x_max":845,"o":"m 371 -10 q 304 -4 341 -10 q 231 21 267 1 q 163 80 194 40 q 114 186 133 119 q 96 356 96 254 l 96 1158 l 271 1158 l 271 315 q 295 167 271 207 q 371 127 319 127 q 447 167 423 127 q 471 315 471 207 l 471 1158 l 646 1158 l 646 356 q 628 186 646 254 q 578 80 609 119 q 511 21 548 40 q 438 -4 475 1 q 371 -10 401 -10 m 607 1078 l 550 1158 l 606 1158 q 699 1192 672 1158 q 725 1284 725 1226 q 719 1320 725 1297 q 702 1366 713 1343 l 832 1366 q 844 1309 842 1336 q 845 1270 845 1282 q 809 1151 845 1193 q 719 1094 774 1109 q 607 1078 665 1078 m 309 1234 l 309 1312 q 364 1327 345 1312 q 382 1363 382 1341 q 346 1417 382 1395 q 247 1445 309 1440 l 271 1537 q 436 1476 376 1527 q 496 1360 496 1426 q 451 1274 496 1305 q 309 1234 406 1242 z "},"Ữ":{"ha":743,"x_min":96,"x_max":845,"o":"m 371 -10 q 304 -4 341 -10 q 231 21 267 1 q 163 80 194 40 q 114 186 133 119 q 96 356 96 254 l 96 1158 l 271 1158 l 271 315 q 295 167 271 207 q 371 127 319 127 q 447 167 423 127 q 471 315 471 207 l 471 1158 l 646 1158 l 646 356 q 628 186 646 254 q 578 80 609 119 q 511 21 548 40 q 438 -4 475 1 q 371 -10 401 -10 m 607 1078 l 550 1158 l 606 1158 q 699 1192 672 1158 q 725 1284 725 1226 q 719 1320 725 1297 q 702 1366 713 1343 l 832 1366 q 844 1309 842 1336 q 845 1270 845 1282 q 809 1151 845 1193 q 719 1094 774 1109 q 607 1078 665 1078 m 465 1213 q 405 1223 430 1213 q 356 1255 380 1234 q 317 1295 329 1281 q 288 1308 305 1308 q 263 1269 263 1308 l 263 1224 l 163 1224 q 162 1250 163 1232 q 161 1274 161 1268 q 198 1389 161 1358 q 286 1421 236 1421 q 341 1410 319 1421 q 387 1379 364 1400 q 421 1345 401 1364 q 458 1325 440 1325 q 486 1360 486 1325 l 486 1409 l 576 1409 q 582 1343 582 1365 q 546 1246 582 1279 q 465 1213 511 1213 z "},"Ű":{"ha":743,"x_min":83,"x_max":660,"o":"m 371 -10 q 304 -4 341 -10 q 231 21 267 1 q 163 80 194 40 q 114 186 133 119 q 96 356 96 254 l 96 1158 l 271 1158 l 271 315 q 295 167 271 207 q 371 127 319 127 q 447 167 423 127 q 471 315 471 207 l 471 1158 l 646 1158 l 646 356 q 628 186 646 254 q 578 80 609 119 q 511 21 548 40 q 438 -4 475 1 q 371 -10 401 -10 m 83 1255 l 267 1415 l 355 1301 l 155 1175 l 83 1255 m 389 1255 l 572 1415 l 660 1301 l 460 1175 l 389 1255 z "},"Ū":{"ha":743,"x_min":96,"x_max":646,"o":"m 371 -10 q 304 -4 341 -10 q 231 21 267 1 q 163 80 194 40 q 114 186 133 119 q 96 356 96 254 l 96 1158 l 271 1158 l 271 315 q 295 167 271 207 q 371 127 319 127 q 447 167 423 127 q 471 315 471 207 l 471 1158 l 646 1158 l 646 356 q 628 186 646 254 q 578 80 609 119 q 511 21 548 40 q 438 -4 475 1 q 371 -10 401 -10 m 160 1375 l 583 1375 l 583 1244 l 160 1244 l 160 1375 z "},"Ų":{"ha":743,"x_min":96,"x_max":646,"o":"m 96 1158 l 271 1158 l 271 315 q 295 167 271 207 q 371 127 319 127 q 447 167 423 127 q 471 315 471 207 l 471 1158 l 646 1158 l 646 356 q 623 170 646 241 q 563 61 600 99 q 484 7 526 24 q 450 -74 450 -35 q 469 -138 449 -113 q 518 -162 489 -162 q 529 -162 524 -162 q 541 -161 535 -162 l 545 -264 q 494 -279 517 -275 q 443 -284 471 -284 q 389 -273 422 -284 q 331 -228 356 -261 q 305 -132 305 -195 q 317 -64 305 -96 q 341 -9 328 -31 q 260 8 303 -7 q 180 60 218 22 q 119 169 143 98 q 96 356 96 240 l 96 1158 z "},"Ʊ":{"ha":781,"x_min":16,"x_max":764,"o":"m 429 1158 l 764 1158 l 764 1029 l 549 1029 q 677 765 628 909 q 726 422 726 620 q 694 221 726 303 q 613 89 663 138 q 504 16 562 39 q 391 -6 446 -6 q 272 16 332 -6 q 163 89 212 39 q 84 221 114 138 q 54 422 54 303 q 103 765 54 621 q 229 1029 152 909 l 16 1029 l 16 1158 l 352 1158 l 352 1035 q 311 933 334 986 q 269 813 289 881 q 235 651 248 745 q 222 422 222 556 q 244 242 222 307 q 304 153 267 178 q 389 128 342 128 q 474 153 437 128 q 534 242 512 178 q 557 422 557 307 q 544 656 557 561 q 511 818 531 751 q 469 935 491 884 q 429 1035 447 986 l 429 1158 z "},"Ů":{"ha":743,"x_min":96,"x_max":646,"o":"m 371 -10 q 304 -4 341 -10 q 231 21 267 1 q 163 80 194 40 q 114 186 133 119 q 96 356 96 254 l 96 1158 l 271 1158 l 271 315 q 295 167 271 207 q 371 127 319 127 q 447 167 423 127 q 471 315 471 207 l 471 1158 l 646 1158 l 646 356 q 628 186 646 254 q 578 80 609 119 q 511 21 548 40 q 438 -4 475 1 q 371 -10 401 -10 m 368 1197 q 249 1226 296 1197 q 178 1301 201 1255 q 155 1400 155 1348 q 178 1502 155 1455 q 248 1576 201 1548 q 368 1605 295 1605 q 534 1544 479 1605 q 588 1400 588 1484 q 564 1303 588 1350 q 491 1227 540 1257 q 368 1197 442 1197 m 368 1308 q 448 1336 422 1308 q 475 1398 475 1364 q 448 1467 475 1440 q 368 1494 422 1494 q 296 1466 319 1494 q 273 1398 273 1438 q 297 1335 273 1362 q 368 1308 320 1308 z "},"Ũ":{"ha":743,"x_min":96,"x_max":646,"o":"m 371 -10 q 304 -4 341 -10 q 231 21 267 1 q 163 80 194 40 q 114 186 133 119 q 96 356 96 254 l 96 1158 l 271 1158 l 271 315 q 295 167 271 207 q 371 127 319 127 q 447 167 423 127 q 471 315 471 207 l 471 1158 l 646 1158 l 646 356 q 628 186 646 254 q 578 80 609 119 q 511 21 548 40 q 438 -4 475 1 q 371 -10 401 -10 m 465 1213 q 405 1223 430 1213 q 356 1255 380 1234 q 317 1295 329 1281 q 288 1308 305 1308 q 263 1269 263 1308 l 263 1224 l 163 1224 q 162 1250 163 1232 q 161 1274 161 1268 q 198 1389 161 1358 q 286 1421 236 1421 q 341 1410 319 1421 q 387 1379 364 1400 q 421 1345 401 1364 q 458 1325 440 1325 q 486 1360 486 1325 l 486 1409 l 576 1409 q 582 1343 582 1365 q 546 1246 582 1279 q 465 1213 511 1213 z "},"V":{"ha":641,"x_min":9,"x_max":631,"o":"m 220 0 l 9 1158 l 189 1158 l 317 238 l 324 238 l 452 1158 l 631 1158 l 420 0 l 220 0 z "},"Ʌ":{"ha":641,"x_min":9,"x_max":631,"o":"m 9 0 l 220 1158 l 421 1158 l 631 0 l 452 0 l 324 920 l 317 920 l 189 0 l 9 0 z "},"W":{"ha":996,"x_min":22,"x_max":974,"o":"m 22 1158 l 190 1158 l 268 458 l 277 295 l 294 295 l 310 458 l 435 1158 l 575 1158 l 694 458 l 708 295 l 726 295 l 734 458 l 805 1158 l 974 1158 l 812 0 l 633 0 l 538 557 l 508 799 l 494 799 l 465 557 l 365 0 l 189 0 l 22 1158 z "},"Ẃ":{"ha":996,"x_min":22,"x_max":974,"o":"m 22 1158 l 190 1158 l 268 458 l 277 295 l 294 295 l 310 458 l 435 1158 l 575 1158 l 694 458 l 708 295 l 726 295 l 734 458 l 805 1158 l 974 1158 l 812 0 l 633 0 l 538 557 l 508 799 l 494 799 l 465 557 l 365 0 l 189 0 l 22 1158 m 498 1218 l 414 1282 l 577 1476 l 692 1390 l 498 1218 z "},"Ŵ":{"ha":996,"x_min":22,"x_max":974,"o":"m 22 1158 l 190 1158 l 268 458 l 277 295 l 294 295 l 310 458 l 435 1158 l 575 1158 l 694 458 l 708 295 l 726 295 l 734 458 l 805 1158 l 974 1158 l 812 0 l 633 0 l 538 557 l 508 799 l 494 799 l 465 557 l 365 0 l 189 0 l 22 1158 m 530 1326 l 503 1364 l 476 1326 l 419 1238 l 251 1238 l 420 1449 l 579 1449 l 746 1238 l 577 1238 l 530 1326 z "},"Ẅ":{"ha":996,"x_min":22,"x_max":974,"o":"m 22 1158 l 190 1158 l 268 458 l 277 295 l 294 295 l 310 458 l 435 1158 l 575 1158 l 694 458 l 708 295 l 726 295 l 734 458 l 805 1158 l 974 1158 l 812 0 l 633 0 l 538 557 l 508 799 l 494 799 l 465 557 l 365 0 l 189 0 l 22 1158 m 347 1223 q 274 1250 294 1223 q 254 1327 254 1276 q 274 1409 254 1381 q 347 1437 294 1437 q 424 1410 403 1437 q 446 1327 446 1383 q 424 1251 446 1278 q 347 1223 403 1223 m 644 1223 q 571 1250 591 1223 q 551 1327 551 1276 q 571 1409 551 1381 q 644 1437 590 1437 q 721 1410 699 1437 q 743 1327 743 1383 q 721 1251 743 1278 q 644 1223 699 1223 z "},"Ẁ":{"ha":996,"x_min":22,"x_max":974,"o":"m 22 1158 l 190 1158 l 268 458 l 277 295 l 294 295 l 310 458 l 435 1158 l 575 1158 l 694 458 l 708 295 l 726 295 l 734 458 l 805 1158 l 974 1158 l 812 0 l 633 0 l 538 557 l 508 799 l 494 799 l 465 557 l 365 0 l 189 0 l 22 1158 m 500 1204 l 307 1376 l 422 1462 l 585 1268 l 500 1204 z "},"X":{"ha":625,"x_min":16,"x_max":608,"o":"m 228 583 l 16 1158 l 202 1158 l 312 788 l 319 788 l 427 1158 l 608 1158 l 396 583 l 608 0 l 429 0 l 317 372 l 306 372 l 191 0 l 16 0 l 228 583 z "},"Y":{"ha":644,"x_min":7,"x_max":637,"o":"m 233 406 l 7 1158 l 184 1158 l 318 600 l 326 600 l 460 1158 l 637 1158 l 409 406 l 409 0 l 233 0 l 233 406 z "},"Ý":{"ha":644,"x_min":7,"x_max":637,"o":"m 233 406 l 7 1158 l 184 1158 l 318 600 l 326 600 l 460 1158 l 637 1158 l 409 406 l 409 0 l 233 0 l 233 406 m 322 1204 l 237 1268 l 401 1462 l 515 1376 l 322 1204 z "},"Ŷ":{"ha":644,"x_min":7,"x_max":637,"o":"m 233 406 l 7 1158 l 184 1158 l 318 600 l 326 600 l 460 1158 l 637 1158 l 409 406 l 409 0 l 233 0 l 233 406 m 354 1313 l 327 1351 l 300 1313 l 243 1225 l 75 1225 l 244 1435 l 403 1435 l 570 1225 l 401 1225 l 354 1313 z "},"Ÿ":{"ha":644,"x_min":7,"x_max":637,"o":"m 233 406 l 7 1158 l 184 1158 l 318 600 l 326 600 l 460 1158 l 637 1158 l 409 406 l 409 0 l 233 0 l 233 406 m 171 1210 q 98 1236 118 1210 q 78 1314 78 1263 q 98 1396 78 1368 q 171 1423 117 1423 q 248 1397 227 1423 q 269 1314 269 1370 q 248 1237 269 1265 q 171 1210 227 1210 m 467 1210 q 395 1236 414 1210 q 375 1314 375 1263 q 394 1396 375 1368 q 467 1423 414 1423 q 545 1397 523 1423 q 566 1314 566 1370 q 545 1237 566 1265 q 467 1210 523 1210 z "},"Ẏ":{"ha":644,"x_min":7,"x_max":637,"o":"m 233 406 l 7 1158 l 184 1158 l 318 600 l 326 600 l 460 1158 l 637 1158 l 409 406 l 409 0 l 233 0 l 233 406 m 321 1214 q 244 1244 273 1214 q 216 1328 216 1274 q 244 1413 216 1388 q 321 1438 273 1438 q 400 1411 372 1438 q 428 1328 428 1384 q 399 1244 428 1275 q 321 1214 371 1214 z "},"Ỵ":{"ha":644,"x_min":7,"x_max":637,"o":"m 233 406 l 7 1158 l 184 1158 l 318 600 l 326 600 l 460 1158 l 637 1158 l 409 406 l 409 0 l 233 0 l 233 406 m 216 -174 q 245 -89 216 -114 q 322 -64 274 -64 q 400 -91 372 -64 q 429 -174 429 -118 q 400 -258 429 -227 q 321 -288 372 -288 q 245 -258 274 -288 q 216 -174 216 -229 z "},"Ỳ":{"ha":644,"x_min":7,"x_max":637,"o":"m 233 406 l 7 1158 l 184 1158 l 318 600 l 326 600 l 460 1158 l 637 1158 l 409 406 l 409 0 l 233 0 l 233 406 m 324 1191 l 131 1362 l 245 1449 l 409 1255 l 324 1191 z "},"Ỷ":{"ha":644,"x_min":7,"x_max":637,"o":"m 233 406 l 7 1158 l 184 1158 l 318 600 l 326 600 l 460 1158 l 637 1158 l 409 406 l 409 0 l 233 0 l 233 406 m 260 1234 l 260 1312 q 314 1327 296 1312 q 333 1363 333 1341 q 296 1417 333 1395 q 197 1445 260 1440 l 222 1537 q 387 1476 326 1527 q 447 1360 447 1426 q 401 1274 447 1305 q 260 1234 356 1242 z "},"Ȳ":{"ha":644,"x_min":7,"x_max":637,"o":"m 233 406 l 7 1158 l 184 1158 l 318 600 l 326 600 l 460 1158 l 637 1158 l 409 406 l 409 0 l 233 0 l 233 406 m 111 1375 l 533 1375 l 533 1244 l 111 1244 l 111 1375 z "},"Ỹ":{"ha":644,"x_min":7,"x_max":637,"o":"m 233 406 l 7 1158 l 184 1158 l 318 600 l 326 600 l 460 1158 l 637 1158 l 409 406 l 409 0 l 233 0 l 233 406 m 415 1213 q 355 1223 380 1213 q 307 1255 330 1234 q 268 1295 279 1281 q 238 1308 256 1308 q 214 1269 214 1308 l 214 1224 l 113 1224 q 112 1250 113 1232 q 111 1274 111 1268 q 149 1389 111 1358 q 236 1421 186 1421 q 292 1410 269 1421 q 337 1379 315 1400 q 371 1345 352 1364 q 408 1325 391 1325 q 437 1360 437 1325 l 437 1409 l 526 1409 q 532 1343 532 1365 q 497 1246 532 1279 q 415 1213 461 1213 z "},"Z":{"ha":580,"x_min":16,"x_max":564,"o":"m 16 93 l 367 1020 l 75 1020 l 75 1158 l 564 1158 l 564 1065 l 212 138 l 564 138 l 564 0 l 16 0 l 16 93 z "},"Ź":{"ha":580,"x_min":16,"x_max":564,"o":"m 16 93 l 367 1020 l 75 1020 l 75 1158 l 564 1158 l 564 1065 l 212 138 l 564 138 l 564 0 l 16 0 l 16 93 m 290 1204 l 205 1268 l 369 1462 l 484 1376 l 290 1204 z "},"Ž":{"ha":580,"x_min":16,"x_max":564,"o":"m 16 93 l 367 1020 l 75 1020 l 75 1158 l 564 1158 l 564 1065 l 212 138 l 564 138 l 564 0 l 16 0 l 16 93 m 369 1415 l 538 1415 l 371 1204 l 212 1204 l 43 1415 l 211 1415 l 268 1326 l 295 1289 l 322 1326 l 369 1415 z "},"Ż":{"ha":580,"x_min":16,"x_max":564,"o":"m 16 93 l 367 1020 l 75 1020 l 75 1158 l 564 1158 l 564 1065 l 212 138 l 564 138 l 564 0 l 16 0 l 16 93 m 289 1214 q 213 1244 241 1214 q 184 1328 184 1274 q 213 1413 184 1388 q 290 1438 241 1438 q 368 1411 340 1438 q 396 1328 396 1384 q 368 1244 396 1275 q 289 1214 339 1214 z "},"Ẓ":{"ha":580,"x_min":16,"x_max":564,"o":"m 16 93 l 367 1020 l 75 1020 l 75 1158 l 564 1158 l 564 1065 l 212 138 l 564 138 l 564 0 l 16 0 l 16 93 m 184 -174 q 213 -89 184 -114 q 290 -64 242 -64 q 369 -91 340 -64 q 397 -174 397 -118 q 368 -258 397 -227 q 290 -288 340 -288 q 213 -258 242 -288 q 184 -174 184 -229 z "},"Ẕ":{"ha":580,"x_min":16,"x_max":564,"o":"m 16 93 l 367 1020 l 75 1020 l 75 1158 l 564 1158 l 564 1065 l 212 138 l 564 138 l 564 0 l 16 0 l 16 93 m 79 -106 l 501 -106 l 501 -237 l 79 -237 l 79 -106 z "},"a":{"ha":620,"x_min":36,"x_max":534,"o":"m 252 519 q 308 545 278 532 q 363 568 338 559 l 363 681 q 360 747 363 716 q 341 797 357 777 q 290 816 326 816 q 224 786 253 816 q 195 675 195 756 l 195 638 l 64 638 q 52 730 52 691 q 120 889 52 835 q 295 944 189 944 q 440 918 388 944 q 513 839 492 892 q 534 706 534 787 l 534 0 l 402 0 l 390 80 q 318 15 363 41 q 214 -11 273 -11 q 114 20 153 -11 q 55 103 75 52 q 36 214 36 154 q 91 398 36 330 q 252 519 146 466 m 290 120 q 330 131 312 120 q 363 159 349 142 l 363 453 q 335 440 350 448 q 300 420 320 433 q 233 354 264 398 q 202 241 202 309 q 223 154 202 187 q 290 120 244 120 z "},"á":{"ha":620,"x_min":36,"x_max":534,"o":"m 252 519 q 308 545 278 532 q 363 568 338 559 l 363 681 q 360 747 363 716 q 341 797 357 777 q 290 816 326 816 q 224 786 253 816 q 195 675 195 756 l 195 638 l 64 638 q 52 730 52 691 q 120 889 52 835 q 295 944 189 944 q 440 918 388 944 q 513 839 492 892 q 534 706 534 787 l 534 0 l 402 0 l 390 80 q 318 15 363 41 q 214 -11 273 -11 q 114 20 153 -11 q 55 103 75 52 q 36 214 36 154 q 91 398 36 330 q 252 519 146 466 m 290 120 q 330 131 312 120 q 363 159 349 142 l 363 453 q 335 440 350 448 q 300 420 320 433 q 233 354 264 398 q 202 241 202 309 q 223 154 202 187 q 290 120 244 120 m 208 1063 l 405 1345 l 519 1252 l 293 991 l 208 1063 z "},"ă":{"ha":620,"x_min":36,"x_max":534,"o":"m 252 519 q 308 545 278 532 q 363 568 338 559 l 363 681 q 360 747 363 716 q 341 797 357 777 q 290 816 326 816 q 224 786 253 816 q 195 675 195 756 l 195 638 l 64 638 q 52 730 52 691 q 120 889 52 835 q 295 944 189 944 q 440 918 388 944 q 513 839 492 892 q 534 706 534 787 l 534 0 l 402 0 l 390 80 q 318 15 363 41 q 214 -11 273 -11 q 114 20 153 -11 q 55 103 75 52 q 36 214 36 154 q 91 398 36 330 q 252 519 146 466 m 290 120 q 330 131 312 120 q 363 159 349 142 l 363 453 q 335 440 350 448 q 300 420 320 433 q 233 354 264 398 q 202 241 202 309 q 223 154 202 187 q 290 120 244 120 m 307 1020 q 187 1050 235 1020 q 117 1127 140 1080 q 94 1227 94 1175 q 98 1273 94 1251 l 218 1273 q 213 1250 214 1262 q 212 1225 212 1238 q 235 1160 212 1190 q 306 1131 258 1131 q 387 1161 360 1131 q 413 1225 413 1191 q 413 1250 413 1238 q 408 1273 413 1262 l 522 1273 q 526 1227 526 1251 q 502 1129 526 1177 q 429 1051 478 1082 q 307 1020 380 1020 z "},"ắ":{"ha":620,"x_min":36,"x_max":542,"o":"m 252 519 q 308 545 278 532 q 363 568 338 559 l 363 681 q 360 747 363 716 q 341 797 357 777 q 290 816 326 816 q 224 786 253 816 q 195 675 195 756 l 195 638 l 64 638 q 52 730 52 691 q 120 889 52 835 q 295 944 189 944 q 440 918 388 944 q 513 839 492 892 q 534 706 534 787 l 534 0 l 402 0 l 390 80 q 318 15 363 41 q 214 -11 273 -11 q 114 20 153 -11 q 55 103 75 52 q 36 214 36 154 q 91 398 36 330 q 252 519 146 466 m 290 120 q 330 131 312 120 q 363 159 349 142 l 363 453 q 335 440 350 448 q 300 420 320 433 q 233 354 264 398 q 202 241 202 309 q 223 154 202 187 q 290 120 244 120 m 338 1270 l 262 1333 l 439 1588 l 542 1503 l 338 1270 m 307 1020 q 199 1047 242 1020 q 136 1116 157 1074 q 115 1206 115 1159 q 119 1248 115 1225 l 228 1248 q 222 1227 223 1238 q 222 1204 222 1216 q 242 1146 222 1173 q 307 1120 263 1120 q 379 1147 355 1120 q 403 1204 403 1174 q 403 1227 403 1216 q 398 1248 404 1238 l 501 1248 q 505 1206 505 1225 q 483 1119 505 1162 q 417 1048 461 1076 q 307 1020 374 1020 z "},"ặ":{"ha":620,"x_min":36,"x_max":534,"o":"m 252 519 q 308 545 278 532 q 363 568 338 559 l 363 681 q 360 747 363 716 q 341 797 357 777 q 290 816 326 816 q 224 786 253 816 q 195 675 195 756 l 195 638 l 64 638 q 52 730 52 691 q 120 889 52 835 q 295 944 189 944 q 440 918 388 944 q 513 839 492 892 q 534 706 534 787 l 534 0 l 402 0 l 390 80 q 318 15 363 41 q 214 -11 273 -11 q 114 20 153 -11 q 55 103 75 52 q 36 214 36 154 q 91 398 36 330 q 252 519 146 466 m 290 120 q 330 131 312 120 q 363 159 349 142 l 363 453 q 335 440 350 448 q 300 420 320 433 q 233 354 264 398 q 202 241 202 309 q 223 154 202 187 q 290 120 244 120 m 204 -174 q 233 -89 204 -114 q 310 -64 262 -64 q 388 -91 360 -64 q 416 -174 416 -118 q 388 -258 416 -227 q 309 -288 359 -288 q 233 -258 262 -288 q 204 -174 204 -229 m 307 1020 q 187 1050 235 1020 q 117 1127 140 1080 q 94 1227 94 1175 q 98 1273 94 1251 l 218 1273 q 213 1250 214 1262 q 212 1225 212 1238 q 235 1160 212 1190 q 306 1131 258 1131 q 387 1161 360 1131 q 413 1225 413 1191 q 413 1250 413 1238 q 408 1273 413 1262 l 522 1273 q 526 1227 526 1251 q 502 1129 526 1177 q 429 1051 478 1082 q 307 1020 380 1020 z "},"ằ":{"ha":620,"x_min":36,"x_max":534,"o":"m 252 519 q 308 545 278 532 q 363 568 338 559 l 363 681 q 360 747 363 716 q 341 797 357 777 q 290 816 326 816 q 224 786 253 816 q 195 675 195 756 l 195 638 l 64 638 q 52 730 52 691 q 120 889 52 835 q 295 944 189 944 q 440 918 388 944 q 513 839 492 892 q 534 706 534 787 l 534 0 l 402 0 l 390 80 q 318 15 363 41 q 214 -11 273 -11 q 114 20 153 -11 q 55 103 75 52 q 36 214 36 154 q 91 398 36 330 q 252 519 146 466 m 290 120 q 330 131 312 120 q 363 159 349 142 l 363 453 q 335 440 350 448 q 300 420 320 433 q 233 354 264 398 q 202 241 202 309 q 223 154 202 187 q 290 120 244 120 m 309 1270 l 106 1503 l 209 1588 l 386 1333 l 309 1270 m 307 1020 q 200 1047 242 1020 q 136 1116 157 1074 q 115 1206 115 1159 q 119 1248 115 1225 l 228 1248 q 222 1227 223 1238 q 222 1204 222 1216 q 242 1146 222 1173 q 307 1120 263 1120 q 379 1147 355 1120 q 403 1204 403 1174 q 403 1227 403 1216 q 398 1248 404 1238 l 501 1248 q 505 1206 505 1225 q 483 1119 505 1162 q 417 1048 461 1076 q 307 1020 374 1020 z "},"ẳ":{"ha":620,"x_min":36,"x_max":534,"o":"m 252 519 q 308 545 278 532 q 363 568 338 559 l 363 681 q 360 747 363 716 q 341 797 357 777 q 290 816 326 816 q 224 786 253 816 q 195 675 195 756 l 195 638 l 64 638 q 52 730 52 691 q 120 889 52 835 q 295 944 189 944 q 440 918 388 944 q 513 839 492 892 q 534 706 534 787 l 534 0 l 402 0 l 390 80 q 318 15 363 41 q 214 -11 273 -11 q 114 20 153 -11 q 55 103 75 52 q 36 214 36 154 q 91 398 36 330 q 252 519 146 466 m 290 120 q 330 131 312 120 q 363 159 349 142 l 363 453 q 335 440 350 448 q 300 420 320 433 q 233 354 264 398 q 202 241 202 309 q 223 154 202 187 q 290 120 244 120 m 288 1280 l 288 1350 q 336 1363 319 1350 q 353 1396 353 1377 q 320 1446 353 1426 q 231 1470 288 1466 l 254 1553 q 402 1498 347 1544 q 456 1393 456 1453 q 288 1280 456 1295 m 307 1020 q 199 1047 242 1020 q 136 1116 157 1074 q 115 1206 115 1159 q 119 1248 115 1225 l 228 1248 q 222 1227 223 1238 q 222 1204 222 1216 q 242 1146 222 1173 q 307 1120 263 1120 q 379 1147 355 1120 q 403 1204 403 1174 q 403 1227 403 1216 q 398 1248 404 1238 l 501 1248 q 505 1206 505 1225 q 483 1119 505 1162 q 417 1048 461 1076 q 307 1020 374 1020 z "},"ẵ":{"ha":620,"x_min":36,"x_max":534,"o":"m 252 519 q 308 545 278 532 q 363 568 338 559 l 363 681 q 360 747 363 716 q 341 797 357 777 q 290 816 326 816 q 224 786 253 816 q 195 675 195 756 l 195 638 l 64 638 q 52 730 52 691 q 120 889 52 835 q 295 944 189 944 q 440 918 388 944 q 513 839 492 892 q 534 706 534 787 l 534 0 l 402 0 l 390 80 q 318 15 363 41 q 214 -11 273 -11 q 114 20 153 -11 q 55 103 75 52 q 36 214 36 154 q 91 398 36 330 q 252 519 146 466 m 290 120 q 330 131 312 120 q 363 159 349 142 l 363 453 q 335 440 350 448 q 300 420 320 433 q 233 354 264 398 q 202 241 202 309 q 223 154 202 187 q 290 120 244 120 m 401 1300 q 343 1311 368 1300 q 296 1343 319 1322 q 257 1378 269 1367 q 229 1390 245 1390 q 205 1355 205 1390 l 205 1316 l 107 1316 q 106 1338 106 1322 q 105 1360 105 1355 q 141 1463 105 1438 q 227 1489 178 1489 q 281 1479 258 1489 q 326 1447 304 1468 q 359 1416 340 1434 q 395 1399 378 1399 q 422 1432 422 1399 l 422 1479 l 509 1479 q 514 1449 513 1460 q 515 1427 515 1437 q 480 1332 515 1364 q 401 1300 446 1300 m 307 1020 q 200 1047 242 1020 q 136 1116 157 1074 q 115 1206 115 1159 q 119 1248 115 1225 l 228 1248 q 222 1227 223 1238 q 222 1204 222 1216 q 242 1146 222 1173 q 307 1120 263 1120 q 379 1147 355 1120 q 403 1204 403 1174 q 403 1227 403 1216 q 398 1248 404 1238 l 501 1248 q 505 1206 505 1225 q 483 1119 505 1162 q 417 1048 461 1076 q 307 1020 374 1020 z "},"ǎ":{"ha":620,"x_min":36,"x_max":554,"o":"m 252 519 q 308 545 278 532 q 363 568 338 559 l 363 681 q 360 747 363 716 q 341 797 357 777 q 290 816 326 816 q 224 786 253 816 q 195 675 195 756 l 195 638 l 64 638 q 52 730 52 691 q 120 889 52 835 q 295 944 189 944 q 440 918 388 944 q 513 839 492 892 q 534 706 534 787 l 534 0 l 402 0 l 390 80 q 318 15 363 41 q 214 -11 273 -11 q 114 20 153 -11 q 55 103 75 52 q 36 214 36 154 q 91 398 36 330 q 252 519 146 466 m 290 120 q 330 131 312 120 q 363 159 349 142 l 363 453 q 335 440 350 448 q 300 420 320 433 q 233 354 264 398 q 202 241 202 309 q 223 154 202 187 q 290 120 244 120 m 249 1021 l 66 1354 l 214 1354 l 277 1223 l 311 1134 l 346 1223 l 406 1354 l 554 1354 l 367 1021 l 249 1021 z "},"â":{"ha":620,"x_min":36,"x_max":554,"o":"m 252 519 q 308 545 278 532 q 363 568 338 559 l 363 681 q 360 747 363 716 q 341 797 357 777 q 290 816 326 816 q 224 786 253 816 q 195 675 195 756 l 195 638 l 64 638 q 52 730 52 691 q 120 889 52 835 q 295 944 189 944 q 440 918 388 944 q 513 839 492 892 q 534 706 534 787 l 534 0 l 402 0 l 390 80 q 318 15 363 41 q 214 -11 273 -11 q 114 20 153 -11 q 55 103 75 52 q 36 214 36 154 q 91 398 36 330 q 252 519 146 466 m 290 120 q 330 131 312 120 q 363 159 349 142 l 363 453 q 335 440 350 448 q 300 420 320 433 q 233 354 264 398 q 202 241 202 309 q 223 154 202 187 q 290 120 244 120 m 367 1354 l 554 1021 l 406 1021 l 346 1151 l 311 1240 l 277 1151 l 214 1021 l 66 1021 l 249 1354 l 367 1354 z "},"ấ":{"ha":620,"x_min":36,"x_max":714,"o":"m 252 519 q 308 545 278 532 q 363 568 338 559 l 363 681 q 360 747 363 716 q 341 797 357 777 q 290 816 326 816 q 224 786 253 816 q 195 675 195 756 l 195 638 l 64 638 q 52 730 52 691 q 120 889 52 835 q 295 944 189 944 q 440 918 388 944 q 513 839 492 892 q 534 706 534 787 l 534 0 l 402 0 l 390 80 q 318 15 363 41 q 214 -11 273 -11 q 114 20 153 -11 q 55 103 75 52 q 36 214 36 154 q 91 398 36 330 q 252 519 146 466 m 290 120 q 330 131 312 120 q 363 159 349 142 l 363 453 q 335 440 350 448 q 300 420 320 433 q 233 354 264 398 q 202 241 202 309 q 223 154 202 187 q 290 120 244 120 m 434 1333 l 611 1588 l 714 1503 l 511 1270 l 434 1333 m 361 1320 l 530 1021 l 396 1021 l 342 1138 l 311 1219 l 281 1138 l 223 1021 l 90 1021 l 255 1320 l 361 1320 z "},"ậ":{"ha":620,"x_min":36,"x_max":554,"o":"m 252 519 q 308 545 278 532 q 363 568 338 559 l 363 681 q 360 747 363 716 q 341 797 357 777 q 290 816 326 816 q 224 786 253 816 q 195 675 195 756 l 195 638 l 64 638 q 52 730 52 691 q 120 889 52 835 q 295 944 189 944 q 440 918 388 944 q 513 839 492 892 q 534 706 534 787 l 534 0 l 402 0 l 390 80 q 318 15 363 41 q 214 -11 273 -11 q 114 20 153 -11 q 55 103 75 52 q 36 214 36 154 q 91 398 36 330 q 252 519 146 466 m 290 120 q 330 131 312 120 q 363 159 349 142 l 363 453 q 335 440 350 448 q 300 420 320 433 q 233 354 264 398 q 202 241 202 309 q 223 154 202 187 q 290 120 244 120 m 204 -174 q 233 -89 204 -114 q 310 -64 262 -64 q 388 -91 360 -64 q 416 -174 416 -118 q 388 -258 416 -227 q 309 -288 359 -288 q 233 -258 262 -288 q 204 -174 204 -229 m 367 1354 l 554 1021 l 406 1021 l 346 1151 l 311 1240 l 277 1151 l 214 1021 l 66 1021 l 249 1354 l 367 1354 z "},"ầ":{"ha":620,"x_min":36,"x_max":570,"o":"m 252 519 q 308 545 278 532 q 363 568 338 559 l 363 681 q 360 747 363 716 q 341 797 357 777 q 290 816 326 816 q 224 786 253 816 q 195 675 195 756 l 195 638 l 64 638 q 52 730 52 691 q 120 889 52 835 q 295 944 189 944 q 440 918 388 944 q 513 839 492 892 q 534 706 534 787 l 534 0 l 402 0 l 390 80 q 318 15 363 41 q 214 -11 273 -11 q 114 20 153 -11 q 55 103 75 52 q 36 214 36 154 q 91 398 36 330 q 252 519 146 466 m 290 120 q 330 131 312 120 q 363 159 349 142 l 363 453 q 335 440 350 448 q 300 420 320 433 q 233 354 264 398 q 202 241 202 309 q 223 154 202 187 q 290 120 244 120 m 570 1333 l 493 1270 l 290 1503 l 393 1588 l 570 1333 m 361 1320 l 530 1021 l 396 1021 l 342 1138 l 311 1219 l 281 1138 l 223 1021 l 90 1021 l 255 1320 l 361 1320 z "},"ẩ":{"ha":620,"x_min":36,"x_max":651,"o":"m 252 519 q 308 545 278 532 q 363 568 338 559 l 363 681 q 360 747 363 716 q 341 797 357 777 q 290 816 326 816 q 224 786 253 816 q 195 675 195 756 l 195 638 l 64 638 q 52 730 52 691 q 120 889 52 835 q 295 944 189 944 q 440 918 388 944 q 513 839 492 892 q 534 706 534 787 l 534 0 l 402 0 l 390 80 q 318 15 363 41 q 214 -11 273 -11 q 114 20 153 -11 q 55 103 75 52 q 36 214 36 154 q 91 398 36 330 q 252 519 146 466 m 290 120 q 330 131 312 120 q 363 159 349 142 l 363 453 q 335 440 350 448 q 300 420 320 433 q 233 354 264 398 q 202 241 202 309 q 223 154 202 187 q 290 120 244 120 m 482 1212 l 482 1282 q 531 1296 514 1282 q 548 1329 548 1309 q 515 1377 548 1357 q 426 1402 482 1398 l 448 1485 q 596 1430 542 1476 q 651 1325 651 1385 q 482 1212 651 1227 m 361 1320 l 530 1021 l 396 1021 l 342 1138 l 311 1219 l 281 1138 l 223 1021 l 90 1021 l 255 1320 l 361 1320 z "},"ẫ":{"ha":620,"x_min":36,"x_max":534,"o":"m 252 519 q 308 545 278 532 q 363 568 338 559 l 363 681 q 360 747 363 716 q 341 797 357 777 q 290 816 326 816 q 224 786 253 816 q 195 675 195 756 l 195 638 l 64 638 q 52 730 52 691 q 120 889 52 835 q 295 944 189 944 q 440 918 388 944 q 513 839 492 892 q 534 706 534 787 l 534 0 l 402 0 l 390 80 q 318 15 363 41 q 214 -11 273 -11 q 114 20 153 -11 q 55 103 75 52 q 36 214 36 154 q 91 398 36 330 q 252 519 146 466 m 290 120 q 330 131 312 120 q 363 159 349 142 l 363 453 q 335 440 350 448 q 300 420 320 433 q 233 354 264 398 q 202 241 202 309 q 223 154 202 187 q 290 120 244 120 m 271 1388 q 233 1424 245 1412 q 204 1436 221 1436 q 180 1400 180 1436 l 180 1361 l 83 1361 q 81 1384 82 1367 q 81 1406 81 1400 q 117 1509 81 1483 q 202 1535 153 1535 q 257 1524 234 1535 q 301 1493 279 1514 q 334 1462 315 1479 q 370 1444 353 1444 q 397 1477 397 1444 l 397 1525 l 485 1525 q 490 1494 488 1506 q 491 1472 491 1482 q 456 1377 491 1409 q 377 1345 421 1345 q 319 1356 343 1345 q 271 1388 294 1367 m 337 1300 l 505 1021 l 372 1021 l 318 1124 l 287 1205 l 256 1124 l 199 1021 l 66 1021 l 231 1300 l 337 1300 z "},"ä":{"ha":620,"x_min":36,"x_max":554,"o":"m 252 519 q 308 545 278 532 q 363 568 338 559 l 363 681 q 360 747 363 716 q 341 797 357 777 q 290 816 326 816 q 224 786 253 816 q 195 675 195 756 l 195 638 l 64 638 q 52 730 52 691 q 120 889 52 835 q 295 944 189 944 q 440 918 388 944 q 513 839 492 892 q 534 706 534 787 l 534 0 l 402 0 l 390 80 q 318 15 363 41 q 214 -11 273 -11 q 114 20 153 -11 q 55 103 75 52 q 36 214 36 154 q 91 398 36 330 q 252 519 146 466 m 290 120 q 330 131 312 120 q 363 159 349 142 l 363 453 q 335 440 350 448 q 300 420 320 433 q 233 354 264 398 q 202 241 202 309 q 223 154 202 187 q 290 120 244 120 m 159 1024 q 86 1053 106 1024 q 66 1136 66 1082 q 85 1224 66 1194 q 159 1254 105 1254 q 236 1225 214 1254 q 257 1136 257 1196 q 236 1054 257 1084 q 159 1024 214 1024 m 455 1024 q 382 1053 402 1024 q 363 1136 363 1082 q 382 1224 363 1194 q 455 1254 401 1254 q 532 1225 511 1254 q 554 1136 554 1196 q 532 1054 554 1084 q 455 1024 511 1024 z "},"ǟ":{"ha":620,"x_min":36,"x_max":554,"o":"m 252 519 q 308 545 278 532 q 363 568 338 559 l 363 681 q 360 747 363 716 q 341 797 357 777 q 290 816 326 816 q 224 786 253 816 q 195 675 195 756 l 195 638 l 64 638 q 52 730 52 691 q 120 889 52 835 q 295 944 189 944 q 440 918 388 944 q 513 839 492 892 q 534 706 534 787 l 534 0 l 402 0 l 390 80 q 318 15 363 41 q 214 -11 273 -11 q 114 20 153 -11 q 55 103 75 52 q 36 214 36 154 q 91 398 36 330 q 252 519 146 466 m 290 120 q 330 131 312 120 q 363 159 349 142 l 363 453 q 335 440 350 448 q 300 420 320 433 q 233 354 264 398 q 202 241 202 309 q 223 154 202 187 q 290 120 244 120 m 159 1024 q 86 1053 106 1024 q 66 1136 66 1082 q 85 1224 66 1194 q 159 1254 105 1254 q 236 1225 214 1254 q 257 1136 257 1196 q 236 1054 257 1084 q 159 1024 214 1024 m 455 1024 q 382 1053 402 1024 q 363 1136 363 1082 q 382 1224 363 1194 q 455 1254 401 1254 q 532 1225 511 1254 q 554 1136 554 1196 q 532 1054 554 1084 q 455 1024 511 1024 m 98 1457 l 521 1457 l 521 1326 l 98 1326 l 98 1457 z "},"ạ":{"ha":620,"x_min":36,"x_max":534,"o":"m 252 519 q 308 545 278 532 q 363 568 338 559 l 363 681 q 360 747 363 716 q 341 797 357 777 q 290 816 326 816 q 224 786 253 816 q 195 675 195 756 l 195 638 l 64 638 q 52 730 52 691 q 120 889 52 835 q 295 944 189 944 q 440 918 388 944 q 513 839 492 892 q 534 706 534 787 l 534 0 l 402 0 l 390 80 q 318 15 363 41 q 214 -11 273 -11 q 114 20 153 -11 q 55 103 75 52 q 36 214 36 154 q 91 398 36 330 q 252 519 146 466 m 290 120 q 330 131 312 120 q 363 159 349 142 l 363 453 q 335 440 350 448 q 300 420 320 433 q 233 354 264 398 q 202 241 202 309 q 223 154 202 187 q 290 120 244 120 m 204 -174 q 233 -89 204 -114 q 310 -64 262 -64 q 388 -91 360 -64 q 416 -174 416 -118 q 388 -258 416 -227 q 309 -288 359 -288 q 233 -258 262 -288 q 204 -174 204 -229 z "},"à":{"ha":620,"x_min":36,"x_max":534,"o":"m 252 519 q 308 545 278 532 q 363 568 338 559 l 363 681 q 360 747 363 716 q 341 797 357 777 q 290 816 326 816 q 224 786 253 816 q 195 675 195 756 l 195 638 l 64 638 q 52 730 52 691 q 120 889 52 835 q 295 944 189 944 q 440 918 388 944 q 513 839 492 892 q 534 706 534 787 l 534 0 l 402 0 l 390 80 q 318 15 363 41 q 214 -11 273 -11 q 114 20 153 -11 q 55 103 75 52 q 36 214 36 154 q 91 398 36 330 q 252 519 146 466 m 290 120 q 330 131 312 120 q 363 159 349 142 l 363 453 q 335 440 350 448 q 300 420 320 433 q 233 354 264 398 q 202 241 202 309 q 223 154 202 187 q 290 120 244 120 m 106 1252 l 221 1345 l 418 1063 l 333 991 l 106 1252 z "},"ả":{"ha":620,"x_min":36,"x_max":534,"o":"m 252 519 q 308 545 278 532 q 363 568 338 559 l 363 681 q 360 747 363 716 q 341 797 357 777 q 290 816 326 816 q 224 786 253 816 q 195 675 195 756 l 195 638 l 64 638 q 52 730 52 691 q 120 889 52 835 q 295 944 189 944 q 440 918 388 944 q 513 839 492 892 q 534 706 534 787 l 534 0 l 402 0 l 390 80 q 318 15 363 41 q 214 -11 273 -11 q 114 20 153 -11 q 55 103 75 52 q 36 214 36 154 q 91 398 36 330 q 252 519 146 466 m 290 120 q 330 131 312 120 q 363 159 349 142 l 363 453 q 335 440 350 448 q 300 420 320 433 q 233 354 264 398 q 202 241 202 309 q 223 154 202 187 q 290 120 244 120 m 248 1009 l 248 1088 q 302 1102 283 1088 q 321 1139 321 1117 q 284 1193 321 1171 q 185 1221 248 1215 l 210 1313 q 374 1252 314 1302 q 435 1135 435 1202 q 389 1049 435 1080 q 248 1009 344 1018 z "},"ā":{"ha":620,"x_min":36,"x_max":534,"o":"m 252 519 q 308 545 278 532 q 363 568 338 559 l 363 681 q 360 747 363 716 q 341 797 357 777 q 290 816 326 816 q 224 786 253 816 q 195 675 195 756 l 195 638 l 64 638 q 52 730 52 691 q 120 889 52 835 q 295 944 189 944 q 440 918 388 944 q 513 839 492 892 q 534 706 534 787 l 534 0 l 402 0 l 390 80 q 318 15 363 41 q 214 -11 273 -11 q 114 20 153 -11 q 55 103 75 52 q 36 214 36 154 q 91 398 36 330 q 252 519 146 466 m 290 120 q 330 131 312 120 q 363 159 349 142 l 363 453 q 335 440 350 448 q 300 420 320 433 q 233 354 264 398 q 202 241 202 309 q 223 154 202 187 q 290 120 244 120 m 98 1184 l 521 1184 l 521 1053 l 98 1053 l 98 1184 z "},"ą":{"ha":620,"x_min":36,"x_max":585,"o":"m 252 519 q 308 545 278 532 q 363 568 338 559 l 363 681 q 360 747 363 716 q 341 797 357 777 q 290 816 326 816 q 224 786 253 816 q 195 675 195 756 l 195 638 l 64 638 q 52 730 52 691 q 120 889 52 835 q 295 944 189 944 q 440 918 388 944 q 513 839 492 892 q 534 706 534 787 l 534 0 l 402 0 l 390 80 q 318 15 363 41 q 214 -11 273 -11 q 114 20 153 -11 q 55 103 75 52 q 36 214 36 154 q 91 398 36 330 q 252 519 146 466 m 290 120 q 330 131 312 120 q 363 159 349 142 l 363 453 q 335 440 350 448 q 300 420 320 433 q 233 354 264 398 q 202 241 202 309 q 223 154 202 187 q 290 120 244 120 m 463 8 l 534 -1 q 490 -83 494 -46 q 507 -141 487 -119 q 558 -163 528 -163 q 569 -163 564 -163 q 581 -162 575 -163 l 585 -264 q 534 -280 557 -275 q 483 -285 511 -285 q 429 -273 462 -285 q 371 -229 396 -262 q 345 -132 345 -196 q 369 -45 345 -79 q 403 -1 392 -11 l 463 8 z "},"å":{"ha":620,"x_min":36,"x_max":534,"o":"m 252 519 q 308 545 278 532 q 363 568 338 559 l 363 681 q 360 747 363 716 q 341 797 357 777 q 290 816 326 816 q 224 786 253 816 q 195 675 195 756 l 195 638 l 64 638 q 52 730 52 691 q 120 889 52 835 q 295 944 189 944 q 440 918 388 944 q 513 839 492 892 q 534 706 534 787 l 534 0 l 402 0 l 390 80 q 318 15 363 41 q 214 -11 273 -11 q 114 20 153 -11 q 55 103 75 52 q 36 214 36 154 q 91 398 36 330 q 252 519 146 466 m 290 120 q 330 131 312 120 q 363 159 349 142 l 363 453 q 335 440 350 448 q 300 420 320 433 q 233 354 264 398 q 202 241 202 309 q 223 154 202 187 q 290 120 244 120 m 307 1018 q 187 1047 235 1018 q 117 1122 140 1076 q 94 1221 94 1168 q 116 1323 94 1276 q 186 1397 139 1369 q 307 1426 233 1426 q 472 1365 418 1426 q 526 1221 526 1305 q 502 1124 526 1171 q 429 1048 478 1078 q 307 1018 380 1018 m 306 1128 q 387 1157 360 1128 q 413 1219 413 1185 q 387 1288 413 1261 q 306 1315 360 1315 q 234 1287 257 1315 q 212 1219 212 1259 q 235 1156 212 1183 q 306 1128 258 1128 z "},"ã":{"ha":620,"x_min":36,"x_max":563,"o":"m 252 519 q 308 545 278 532 q 363 568 338 559 l 363 681 q 360 747 363 716 q 341 797 357 777 q 290 816 326 816 q 224 786 253 816 q 195 675 195 756 l 195 638 l 64 638 q 52 730 52 691 q 120 889 52 835 q 295 944 189 944 q 440 918 388 944 q 513 839 492 892 q 534 706 534 787 l 534 0 l 402 0 l 390 80 q 318 15 363 41 q 214 -11 273 -11 q 114 20 153 -11 q 55 103 75 52 q 36 214 36 154 q 91 398 36 330 q 252 519 146 466 m 290 120 q 330 131 312 120 q 363 159 349 142 l 363 453 q 335 440 350 448 q 300 420 320 433 q 233 354 264 398 q 202 241 202 309 q 223 154 202 187 q 290 120 244 120 m 422 1015 q 350 1029 380 1015 q 292 1068 320 1042 q 244 1112 259 1097 q 209 1126 230 1126 q 180 1083 180 1126 l 180 1034 l 59 1034 q 57 1062 58 1042 q 56 1090 56 1083 q 77 1188 56 1154 q 132 1236 98 1222 q 206 1249 166 1249 q 274 1236 246 1249 q 328 1197 301 1223 q 369 1159 346 1180 q 414 1137 393 1137 q 448 1177 448 1137 l 448 1236 l 555 1236 q 563 1172 563 1192 q 520 1055 563 1094 q 422 1015 477 1015 z "},"ɐ":{"ha":620,"x_min":85,"x_max":584,"o":"m 368 415 q 312 389 342 402 q 257 366 282 376 l 257 253 q 260 188 257 218 q 279 137 263 157 q 330 118 294 118 q 396 148 367 118 q 425 258 425 178 l 425 296 l 556 296 q 568 203 568 243 q 500 44 568 99 q 325 -10 432 -10 q 180 16 232 -10 q 106 95 127 42 q 85 228 85 148 l 85 934 l 218 934 l 230 854 q 302 919 258 894 q 406 945 347 945 q 506 913 467 945 q 565 831 546 882 q 584 720 584 780 q 529 536 584 605 q 368 415 475 468 m 330 814 q 290 803 309 814 q 257 775 271 791 l 257 481 q 286 494 271 486 q 319 513 300 501 q 387 580 355 536 q 418 693 418 625 q 397 780 418 747 q 330 814 376 814 z "},"æ":{"ha":917,"x_min":36,"x_max":861,"o":"m 237 -11 q 120 20 165 -11 q 56 102 76 51 q 36 213 36 153 q 91 396 36 328 q 252 516 146 464 q 308 543 278 529 q 363 565 338 556 l 363 677 q 360 743 363 712 q 341 793 357 774 q 290 812 326 812 q 224 782 253 812 q 195 672 195 752 l 195 635 l 64 635 q 52 727 52 688 q 120 885 52 831 q 295 939 189 939 q 401 917 359 939 q 469 863 444 895 l 474 863 q 556 923 510 907 q 640 940 602 940 q 747 914 696 940 q 829 825 798 888 q 861 650 861 762 q 855 535 861 594 q 838 433 848 477 l 534 433 l 534 338 q 555 167 534 217 q 633 117 575 117 q 691 144 665 117 q 717 245 717 172 l 717 286 l 856 286 l 856 243 q 798 50 856 111 q 628 -11 739 -11 q 439 102 498 -11 l 433 102 q 347 19 399 49 q 237 -11 295 -11 m 534 547 l 702 547 q 704 592 703 562 q 705 640 705 622 q 685 773 705 732 q 623 813 665 813 q 556 767 577 813 q 534 602 534 722 l 534 547 m 290 119 q 330 131 312 119 q 363 158 349 142 l 363 451 q 335 438 350 446 q 300 418 320 431 q 233 352 264 396 q 202 239 202 308 q 223 153 202 186 q 290 119 244 119 z "},"ǽ":{"ha":917,"x_min":36,"x_max":861,"o":"m 237 -11 q 120 20 165 -11 q 56 102 76 51 q 36 213 36 153 q 91 396 36 328 q 252 516 146 464 q 308 543 278 529 q 363 565 338 556 l 363 677 q 360 743 363 712 q 341 793 357 774 q 290 812 326 812 q 224 782 253 812 q 195 672 195 752 l 195 635 l 64 635 q 52 727 52 688 q 120 885 52 831 q 295 939 189 939 q 401 917 359 939 q 469 863 444 895 l 474 863 q 556 923 510 907 q 640 940 602 940 q 747 914 696 940 q 829 825 798 888 q 861 650 861 762 q 855 535 861 594 q 838 433 848 477 l 534 433 l 534 338 q 555 167 534 217 q 633 117 575 117 q 691 144 665 117 q 717 245 717 172 l 717 286 l 856 286 l 856 243 q 798 50 856 111 q 628 -11 739 -11 q 439 102 498 -11 l 433 102 q 347 19 399 49 q 237 -11 295 -11 m 534 547 l 702 547 q 704 592 703 562 q 705 640 705 622 q 685 773 705 732 q 623 813 665 813 q 556 767 577 813 q 534 602 534 722 l 534 547 m 290 119 q 330 131 312 119 q 363 158 349 142 l 363 451 q 335 438 350 446 q 300 418 320 431 q 233 352 264 396 q 202 239 202 308 q 223 153 202 186 q 290 119 244 119 m 357 1063 l 553 1345 l 668 1252 l 441 991 l 357 1063 z "},"ǣ":{"ha":917,"x_min":36,"x_max":861,"o":"m 237 -11 q 120 20 165 -11 q 56 102 76 51 q 36 213 36 153 q 91 396 36 328 q 252 516 146 464 q 308 543 278 529 q 363 565 338 556 l 363 677 q 360 743 363 712 q 341 793 357 774 q 290 812 326 812 q 224 782 253 812 q 195 672 195 752 l 195 635 l 64 635 q 52 727 52 688 q 120 885 52 831 q 295 939 189 939 q 401 917 359 939 q 469 863 444 895 l 474 863 q 556 923 510 907 q 640 940 602 940 q 747 914 696 940 q 829 825 798 888 q 861 650 861 762 q 855 535 861 594 q 838 433 848 477 l 534 433 l 534 338 q 555 167 534 217 q 633 117 575 117 q 691 144 665 117 q 717 245 717 172 l 717 286 l 856 286 l 856 243 q 798 50 856 111 q 628 -11 739 -11 q 439 102 498 -11 l 433 102 q 347 19 399 49 q 237 -11 295 -11 m 534 547 l 702 547 q 704 592 703 562 q 705 640 705 622 q 685 773 705 732 q 623 813 665 813 q 556 767 577 813 q 534 602 534 722 l 534 547 m 290 119 q 330 131 312 119 q 363 158 349 142 l 363 451 q 335 438 350 446 q 300 418 320 431 q 233 352 264 396 q 202 239 202 308 q 223 153 202 186 q 290 119 244 119 m 247 1184 l 669 1184 l 669 1053 l 247 1053 l 247 1184 z "},"b":{"ha":668,"x_min":87,"x_max":604,"o":"m 87 1234 l 259 1234 l 259 985 l 254 861 l 254 861 q 316 919 278 893 q 410 944 354 944 q 464 936 431 944 q 528 896 496 927 q 582 796 560 864 q 604 609 604 728 l 604 326 q 582 139 604 208 q 527 39 559 71 q 460 -2 494 7 q 403 -11 427 -11 q 298 19 337 -11 q 236 87 259 50 l 222 0 l 87 0 l 87 1234 m 259 201 q 291 155 271 176 q 345 134 311 134 q 389 148 370 134 q 419 198 408 161 q 431 304 431 235 l 431 635 q 420 742 431 705 q 390 791 409 778 q 345 805 370 805 q 293 786 314 805 q 259 742 272 768 l 259 201 z "},"ḅ":{"ha":668,"x_min":87,"x_max":604,"o":"m 87 1234 l 259 1234 l 259 985 l 254 861 l 254 861 q 316 919 278 893 q 410 944 354 944 q 464 936 431 944 q 528 896 496 927 q 582 796 560 864 q 604 609 604 728 l 604 326 q 582 139 604 208 q 527 39 559 71 q 460 -2 494 7 q 403 -11 427 -11 q 298 19 337 -11 q 236 87 259 50 l 222 0 l 87 0 l 87 1234 m 259 201 q 291 155 271 176 q 345 134 311 134 q 389 148 370 134 q 419 198 408 161 q 431 304 431 235 l 431 635 q 420 742 431 705 q 390 791 409 778 q 345 805 370 805 q 293 786 314 805 q 259 742 272 768 l 259 201 m 229 -174 q 257 -89 229 -114 q 334 -64 286 -64 q 413 -91 385 -64 q 441 -174 441 -118 q 412 -258 441 -227 q 334 -288 384 -288 q 257 -258 286 -288 q 229 -174 229 -229 z "},"ʘ":{"ha":719,"x_min":73,"x_max":646,"o":"m 73 377 l 73 787 q 92 961 73 892 q 143 1073 111 1031 q 213 1135 174 1114 q 290 1162 251 1156 q 361 1168 328 1168 q 430 1162 392 1168 q 507 1136 469 1156 q 576 1075 545 1116 q 627 964 608 1034 q 646 787 646 894 l 646 377 q 616 171 646 248 q 541 55 587 94 q 447 3 496 16 q 361 -10 399 -10 q 269 2 319 -10 q 174 53 219 14 q 101 169 130 92 q 73 377 73 247 m 463 314 l 463 836 q 438 989 463 947 q 361 1031 413 1031 q 282 989 307 1031 q 256 836 256 947 l 256 314 q 282 167 256 206 q 361 127 307 127 q 438 167 413 127 q 463 314 463 206 m 286 578 q 306 649 286 631 q 359 668 326 668 q 413 648 393 668 q 432 578 432 627 q 412 510 432 532 q 358 487 393 487 q 306 509 326 487 q 286 578 286 531 z "},"c":{"ha":585,"x_min":64,"x_max":540,"o":"m 64 382 l 64 559 q 82 736 64 666 q 130 849 100 807 q 194 911 159 891 q 264 938 229 932 q 327 945 298 945 q 481 895 422 945 q 540 739 540 844 q 537 684 540 707 q 528 638 534 660 l 398 638 l 398 667 q 379 778 398 738 q 321 817 359 817 q 258 771 280 817 q 237 605 237 726 l 237 340 q 256 168 237 218 q 326 117 275 117 q 375 145 351 117 q 398 246 398 172 l 398 287 l 537 287 l 537 244 q 480 51 537 111 q 307 -10 423 -10 q 126 82 189 -10 q 64 382 64 174 z "},"ć":{"ha":585,"x_min":64,"x_max":540,"o":"m 64 382 l 64 559 q 82 736 64 666 q 130 849 100 807 q 194 911 159 891 q 264 938 229 932 q 327 945 298 945 q 481 895 422 945 q 540 739 540 844 q 537 684 540 707 q 528 638 534 660 l 398 638 l 398 667 q 379 778 398 738 q 321 817 359 817 q 258 771 280 817 q 237 605 237 726 l 237 340 q 256 168 237 218 q 326 117 275 117 q 375 145 351 117 q 398 246 398 172 l 398 287 l 537 287 l 537 244 q 480 51 537 111 q 307 -10 423 -10 q 126 82 189 -10 q 64 382 64 174 m 191 1063 l 388 1345 l 503 1252 l 276 991 l 191 1063 z "},"č":{"ha":585,"x_min":49,"x_max":540,"o":"m 64 382 l 64 559 q 82 736 64 666 q 130 849 100 807 q 194 911 159 891 q 264 938 229 932 q 327 945 298 945 q 481 895 422 945 q 540 739 540 844 q 537 684 540 707 q 528 638 534 660 l 398 638 l 398 667 q 379 778 398 738 q 321 817 359 817 q 258 771 280 817 q 237 605 237 726 l 237 340 q 256 168 237 218 q 326 117 275 117 q 375 145 351 117 q 398 246 398 172 l 398 287 l 537 287 l 537 244 q 480 51 537 111 q 307 -10 423 -10 q 126 82 189 -10 q 64 382 64 174 m 232 1021 l 49 1354 l 197 1354 l 260 1223 l 294 1134 l 329 1223 l 389 1354 l 537 1354 l 350 1021 l 232 1021 z "},"ç":{"ha":585,"x_min":64,"x_max":540,"o":"m 64 382 l 64 559 q 82 736 64 666 q 130 849 100 807 q 194 911 159 891 q 264 938 229 932 q 327 945 298 945 q 481 895 422 945 q 540 739 540 844 q 537 684 540 707 q 528 638 534 660 l 398 638 l 398 667 q 379 778 398 738 q 321 817 359 817 q 258 771 280 817 q 237 605 237 726 l 237 340 q 256 168 237 218 q 326 117 275 117 q 375 145 351 117 q 398 246 398 172 l 398 287 l 537 287 l 537 244 q 480 51 537 111 q 307 -10 423 -10 q 126 82 189 -10 q 64 382 64 174 m 395 9 l 399 -71 q 387 -186 404 -143 q 344 -250 370 -229 q 291 -278 317 -271 q 248 -284 264 -284 q 196 -279 220 -284 q 145 -264 173 -275 l 150 -161 q 161 -162 155 -162 q 172 -162 167 -162 q 246 -139 218 -162 q 277 -38 273 -117 l 279 9 l 395 9 z "},"ĉ":{"ha":585,"x_min":49,"x_max":540,"o":"m 64 382 l 64 559 q 82 736 64 666 q 130 849 100 807 q 194 911 159 891 q 264 938 229 932 q 327 945 298 945 q 481 895 422 945 q 540 739 540 844 q 537 684 540 707 q 528 638 534 660 l 398 638 l 398 667 q 379 778 398 738 q 321 817 359 817 q 258 771 280 817 q 237 605 237 726 l 237 340 q 256 168 237 218 q 326 117 275 117 q 375 145 351 117 q 398 246 398 172 l 398 287 l 537 287 l 537 244 q 480 51 537 111 q 307 -10 423 -10 q 126 82 189 -10 q 64 382 64 174 m 350 1354 l 537 1021 l 389 1021 l 329 1151 l 294 1240 l 260 1151 l 197 1021 l 49 1021 l 232 1354 l 350 1354 z "},"ċ":{"ha":585,"x_min":64,"x_max":540,"o":"m 64 382 l 64 559 q 82 736 64 666 q 130 849 100 807 q 194 911 159 891 q 264 938 229 932 q 327 945 298 945 q 481 895 422 945 q 540 739 540 844 q 537 684 540 707 q 528 638 534 660 l 398 638 l 398 667 q 379 778 398 738 q 321 817 359 817 q 258 771 280 817 q 237 605 237 726 l 237 340 q 256 168 237 218 q 326 117 275 117 q 375 145 351 117 q 398 246 398 172 l 398 287 l 537 287 l 537 244 q 480 51 537 111 q 307 -10 423 -10 q 126 82 189 -10 q 64 382 64 174 m 292 1043 q 215 1073 244 1043 q 186 1157 186 1103 q 215 1242 186 1217 q 292 1267 244 1267 q 371 1240 342 1267 q 399 1157 399 1213 q 370 1074 399 1104 q 292 1043 342 1043 z "},"d":{"ha":668,"x_min":64,"x_max":580,"o":"m 64 326 l 64 623 q 80 777 64 717 q 120 872 96 838 q 173 921 145 906 q 227 940 201 937 q 269 944 253 944 q 357 919 320 944 q 414 866 395 895 l 414 867 l 409 985 l 409 1234 l 580 1234 l 580 0 l 446 0 l 431 87 q 370 19 409 50 q 265 -11 330 -11 q 208 -2 241 -11 q 141 39 174 7 q 86 139 109 71 q 64 326 64 208 m 409 196 l 409 736 q 375 785 396 764 q 323 805 353 805 q 278 792 298 805 q 248 742 259 779 q 237 636 237 706 l 237 299 q 248 193 237 230 q 279 142 259 156 q 323 129 298 129 q 378 150 357 129 q 409 196 398 170 z "},"ð":{"ha":653,"x_min":62,"x_max":591,"o":"m 330 -10 q 238 2 286 -10 q 152 56 191 15 q 87 180 112 96 q 62 405 62 263 l 62 539 q 80 724 62 650 q 126 841 98 798 q 186 906 154 884 q 250 933 219 927 q 302 940 280 940 q 349 936 337 940 q 374 927 361 932 q 288 1107 346 1035 l 218 1023 l 132 1095 l 201 1182 q 80 1216 145 1215 l 80 1329 q 184 1315 135 1329 q 277 1277 234 1301 l 353 1370 l 442 1291 l 370 1205 q 492 1027 443 1133 q 566 796 541 922 q 591 535 591 670 l 591 405 q 566 182 591 265 q 501 58 541 99 q 416 3 461 16 q 330 -10 371 -10 m 332 101 q 396 152 382 101 q 410 332 410 203 l 410 597 q 396 778 410 726 q 332 830 382 830 q 264 778 279 830 q 248 597 248 726 l 248 332 q 264 152 248 203 q 332 101 279 101 z "},"ď":{"ha":791,"x_min":64,"x_max":785,"o":"m 64 326 l 64 623 q 80 777 64 717 q 120 872 96 838 q 173 921 145 906 q 227 940 201 937 q 269 944 253 944 q 357 919 320 944 q 414 866 395 895 l 414 867 l 409 985 l 409 1234 l 580 1234 l 580 0 l 446 0 l 431 87 q 370 19 409 50 q 265 -11 330 -11 q 208 -2 241 -11 q 141 39 174 7 q 86 139 109 71 q 64 326 64 208 m 409 196 l 409 736 q 375 785 396 764 q 323 805 353 805 q 278 792 298 805 q 248 742 259 779 q 237 636 237 706 l 237 299 q 248 193 237 230 q 279 142 259 156 q 323 129 298 129 q 378 150 357 129 q 409 196 398 170 m 624 1234 l 785 1234 l 753 981 l 610 981 l 624 1234 z "},"ḓ":{"ha":668,"x_min":64,"x_max":580,"o":"m 64 326 l 64 623 q 80 777 64 717 q 120 872 96 838 q 173 921 145 906 q 227 940 201 937 q 269 944 253 944 q 357 919 320 944 q 414 866 395 895 l 414 867 l 409 985 l 409 1234 l 580 1234 l 580 0 l 446 0 l 431 87 q 370 19 409 50 q 265 -11 330 -11 q 208 -2 241 -11 q 141 39 174 7 q 86 139 109 71 q 64 326 64 208 m 409 196 l 409 736 q 375 785 396 764 q 323 805 353 805 q 278 792 298 805 q 248 742 259 779 q 237 636 237 706 l 237 299 q 248 193 237 230 q 279 142 259 156 q 323 129 298 129 q 378 150 357 129 q 409 196 398 170 m 391 -44 l 578 -316 l 430 -316 l 370 -213 l 336 -157 l 302 -213 l 238 -316 l 90 -316 l 273 -44 l 391 -44 z "},"đ":{"ha":668,"x_min":64,"x_max":669,"o":"m 279 1141 l 409 1141 l 409 1234 l 580 1234 l 580 1141 l 669 1141 l 669 1017 l 580 1017 l 580 0 l 446 0 l 431 87 q 370 19 409 50 q 265 -11 330 -11 q 208 -2 241 -11 q 141 39 174 7 q 86 139 109 71 q 64 326 64 208 l 64 623 q 80 777 64 717 q 120 872 96 838 q 173 921 145 906 q 227 940 201 937 q 269 944 253 944 q 357 919 320 944 q 414 866 395 895 l 414 867 l 409 985 l 409 1017 l 279 1017 l 279 1141 m 323 129 q 378 150 357 129 q 409 196 398 170 l 409 736 q 375 785 396 764 q 323 805 353 805 q 278 792 298 805 q 248 742 259 779 q 237 636 237 706 l 237 299 q 248 193 237 230 q 279 142 259 156 q 323 129 298 129 z "},"ḍ":{"ha":668,"x_min":64,"x_max":580,"o":"m 64 326 l 64 623 q 80 777 64 717 q 120 872 96 838 q 173 921 145 906 q 227 940 201 937 q 269 944 253 944 q 357 919 320 944 q 414 866 395 895 l 414 867 l 409 985 l 409 1234 l 580 1234 l 580 0 l 446 0 l 431 87 q 370 19 409 50 q 265 -11 330 -11 q 208 -2 241 -11 q 141 39 174 7 q 86 139 109 71 q 64 326 64 208 m 409 196 l 409 736 q 375 785 396 764 q 323 805 353 805 q 278 792 298 805 q 248 742 259 779 q 237 636 237 706 l 237 299 q 248 193 237 230 q 279 142 259 156 q 323 129 298 129 q 378 150 357 129 q 409 196 398 170 m 229 -174 q 257 -89 229 -114 q 334 -64 286 -64 q 413 -91 385 -64 q 441 -174 441 -118 q 412 -258 441 -227 q 334 -288 384 -288 q 257 -258 286 -288 q 229 -174 229 -229 z "},"ḏ":{"ha":668,"x_min":64,"x_max":580,"o":"m 64 326 l 64 623 q 80 777 64 717 q 120 872 96 838 q 173 921 145 906 q 227 940 201 937 q 269 944 253 944 q 357 919 320 944 q 414 866 395 895 l 414 867 l 409 985 l 409 1234 l 580 1234 l 580 0 l 446 0 l 431 87 q 370 19 409 50 q 265 -11 330 -11 q 208 -2 241 -11 q 141 39 174 7 q 86 139 109 71 q 64 326 64 208 m 409 196 l 409 736 q 375 785 396 764 q 323 805 353 805 q 278 792 298 805 q 248 742 259 779 q 237 636 237 706 l 237 299 q 248 193 237 230 q 279 142 259 156 q 323 129 298 129 q 378 150 357 129 q 409 196 398 170 m 123 -106 l 545 -106 l 545 -237 l 123 -237 l 123 -106 z "},"e":{"ha":620,"x_min":64,"x_max":565,"o":"m 64 382 l 64 559 q 83 736 64 666 q 131 849 101 807 q 198 911 161 891 q 270 938 234 932 q 336 945 306 945 q 450 919 397 945 q 533 829 502 892 q 565 653 565 766 q 559 538 565 597 q 543 435 553 479 l 237 435 l 237 340 q 257 168 237 218 q 336 117 278 117 q 394 145 368 117 q 420 246 420 172 l 420 287 l 561 287 l 561 244 q 497 51 561 111 q 314 -10 434 -10 q 129 82 193 -10 q 64 382 64 174 m 405 550 q 407 595 406 565 q 408 644 408 625 q 388 777 408 736 q 326 817 368 817 q 258 771 280 817 q 237 605 237 726 l 237 550 l 405 550 z "},"é":{"ha":620,"x_min":64,"x_max":565,"o":"m 64 382 l 64 559 q 83 736 64 666 q 131 849 101 807 q 198 911 161 891 q 270 938 234 932 q 336 945 306 945 q 450 919 397 945 q 533 829 502 892 q 565 653 565 766 q 559 538 565 597 q 543 435 553 479 l 237 435 l 237 340 q 257 168 237 218 q 336 117 278 117 q 394 145 368 117 q 420 246 420 172 l 420 287 l 561 287 l 561 244 q 497 51 561 111 q 314 -10 434 -10 q 129 82 193 -10 q 64 382 64 174 m 405 550 q 407 595 406 565 q 408 644 408 625 q 388 777 408 736 q 326 817 368 817 q 258 771 280 817 q 237 605 237 726 l 237 550 l 405 550 m 208 1063 l 405 1345 l 519 1252 l 293 991 l 208 1063 z "},"ĕ":{"ha":620,"x_min":64,"x_max":565,"o":"m 64 382 l 64 559 q 83 736 64 666 q 131 849 101 807 q 198 911 161 891 q 270 938 234 932 q 336 945 306 945 q 450 919 397 945 q 533 829 502 892 q 565 653 565 766 q 559 538 565 597 q 543 435 553 479 l 237 435 l 237 340 q 257 168 237 218 q 336 117 278 117 q 394 145 368 117 q 420 246 420 172 l 420 287 l 561 287 l 561 244 q 497 51 561 111 q 314 -10 434 -10 q 129 82 193 -10 q 64 382 64 174 m 405 550 q 407 595 406 565 q 408 644 408 625 q 388 777 408 736 q 326 817 368 817 q 258 771 280 817 q 237 605 237 726 l 237 550 l 405 550 m 307 1020 q 187 1050 235 1020 q 117 1127 140 1080 q 94 1227 94 1175 q 98 1273 94 1251 l 218 1273 q 213 1250 214 1262 q 212 1225 212 1238 q 235 1160 212 1190 q 306 1131 258 1131 q 387 1161 360 1131 q 413 1225 413 1191 q 413 1250 413 1238 q 408 1273 413 1262 l 522 1273 q 526 1227 526 1251 q 502 1129 526 1177 q 429 1051 478 1082 q 307 1020 380 1020 z "},"ě":{"ha":620,"x_min":64,"x_max":565,"o":"m 64 382 l 64 559 q 83 736 64 666 q 131 849 101 807 q 198 911 161 891 q 270 938 234 932 q 336 945 306 945 q 450 919 397 945 q 533 829 502 892 q 565 653 565 766 q 559 538 565 597 q 543 435 553 479 l 237 435 l 237 340 q 257 168 237 218 q 336 117 278 117 q 394 145 368 117 q 420 246 420 172 l 420 287 l 561 287 l 561 244 q 497 51 561 111 q 314 -10 434 -10 q 129 82 193 -10 q 64 382 64 174 m 405 550 q 407 595 406 565 q 408 644 408 625 q 388 777 408 736 q 326 817 368 817 q 258 771 280 817 q 237 605 237 726 l 237 550 l 405 550 m 249 1021 l 66 1354 l 214 1354 l 277 1223 l 311 1134 l 346 1223 l 406 1354 l 554 1354 l 367 1021 l 249 1021 z "},"ȩ":{"ha":620,"x_min":64,"x_max":565,"o":"m 64 382 l 64 559 q 83 736 64 666 q 131 849 101 807 q 198 911 161 891 q 270 938 234 932 q 336 945 306 945 q 450 919 397 945 q 533 829 502 892 q 565 653 565 766 q 559 538 565 597 q 543 435 553 479 l 237 435 l 237 340 q 257 168 237 218 q 336 117 278 117 q 394 145 368 117 q 420 246 420 172 l 420 287 l 561 287 l 561 244 q 497 51 561 111 q 314 -10 434 -10 q 129 82 193 -10 q 64 382 64 174 m 405 550 q 407 595 406 565 q 408 644 408 625 q 388 777 408 736 q 326 817 368 817 q 258 771 280 817 q 237 605 237 726 l 237 550 l 405 550 m 412 9 l 416 -71 q 404 -186 420 -143 q 361 -250 387 -229 q 308 -278 334 -271 q 264 -284 281 -284 q 213 -279 237 -284 q 162 -264 190 -275 l 167 -161 q 178 -162 172 -162 q 189 -162 184 -162 q 263 -139 235 -162 q 294 -38 290 -117 l 296 9 l 412 9 z "},"ê":{"ha":620,"x_min":64,"x_max":565,"o":"m 64 382 l 64 559 q 83 736 64 666 q 131 849 101 807 q 198 911 161 891 q 270 938 234 932 q 336 945 306 945 q 450 919 397 945 q 533 829 502 892 q 565 653 565 766 q 559 538 565 597 q 543 435 553 479 l 237 435 l 237 340 q 257 168 237 218 q 336 117 278 117 q 394 145 368 117 q 420 246 420 172 l 420 287 l 561 287 l 561 244 q 497 51 561 111 q 314 -10 434 -10 q 129 82 193 -10 q 64 382 64 174 m 405 550 q 407 595 406 565 q 408 644 408 625 q 388 777 408 736 q 326 817 368 817 q 258 771 280 817 q 237 605 237 726 l 237 550 l 405 550 m 367 1354 l 554 1021 l 406 1021 l 346 1151 l 311 1240 l 277 1151 l 214 1021 l 66 1021 l 249 1354 l 367 1354 z "},"ế":{"ha":620,"x_min":64,"x_max":714,"o":"m 64 382 l 64 559 q 83 736 64 666 q 131 849 101 807 q 198 911 161 891 q 270 938 234 932 q 336 945 306 945 q 450 919 397 945 q 533 829 502 892 q 565 653 565 766 q 559 538 565 597 q 543 435 553 479 l 237 435 l 237 340 q 257 168 237 218 q 336 117 278 117 q 394 145 368 117 q 420 246 420 172 l 420 287 l 561 287 l 561 244 q 497 51 561 111 q 314 -10 434 -10 q 129 82 193 -10 q 64 382 64 174 m 405 550 q 407 595 406 565 q 408 644 408 625 q 388 777 408 736 q 326 817 368 817 q 258 771 280 817 q 237 605 237 726 l 237 550 l 405 550 m 434 1333 l 611 1588 l 714 1503 l 511 1270 l 434 1333 m 361 1320 l 530 1021 l 396 1021 l 342 1138 l 311 1219 l 281 1138 l 223 1021 l 90 1021 l 255 1320 l 361 1320 z "},"ệ":{"ha":620,"x_min":64,"x_max":565,"o":"m 64 382 l 64 559 q 83 736 64 666 q 131 849 101 807 q 198 911 161 891 q 270 938 234 932 q 336 945 306 945 q 450 919 397 945 q 533 829 502 892 q 565 653 565 766 q 559 538 565 597 q 543 435 553 479 l 237 435 l 237 340 q 257 168 237 218 q 336 117 278 117 q 394 145 368 117 q 420 246 420 172 l 420 287 l 561 287 l 561 244 q 497 51 561 111 q 314 -10 434 -10 q 129 82 193 -10 q 64 382 64 174 m 405 550 q 407 595 406 565 q 408 644 408 625 q 388 777 408 736 q 326 817 368 817 q 258 771 280 817 q 237 605 237 726 l 237 550 l 405 550 m 204 -174 q 233 -89 204 -114 q 310 -64 262 -64 q 388 -91 360 -64 q 416 -174 416 -118 q 388 -258 416 -227 q 309 -288 359 -288 q 233 -258 262 -288 q 204 -174 204 -229 m 367 1354 l 554 1021 l 406 1021 l 346 1151 l 311 1240 l 277 1151 l 214 1021 l 66 1021 l 249 1354 l 367 1354 z "},"ề":{"ha":620,"x_min":64,"x_max":570,"o":"m 64 382 l 64 559 q 83 736 64 666 q 131 849 101 807 q 198 911 161 891 q 270 938 234 932 q 336 945 306 945 q 450 919 397 945 q 533 829 502 892 q 565 653 565 766 q 559 538 565 597 q 543 435 553 479 l 237 435 l 237 340 q 257 168 237 218 q 336 117 278 117 q 394 145 368 117 q 420 246 420 172 l 420 287 l 561 287 l 561 244 q 497 51 561 111 q 314 -10 434 -10 q 129 82 193 -10 q 64 382 64 174 m 405 550 q 407 595 406 565 q 408 644 408 625 q 388 777 408 736 q 326 817 368 817 q 258 771 280 817 q 237 605 237 726 l 237 550 l 405 550 m 570 1333 l 493 1270 l 290 1503 l 393 1588 l 570 1333 m 361 1320 l 530 1021 l 396 1021 l 342 1138 l 311 1219 l 281 1138 l 223 1021 l 90 1021 l 255 1320 l 361 1320 z "},"ể":{"ha":620,"x_min":64,"x_max":651,"o":"m 64 382 l 64 559 q 83 736 64 666 q 131 849 101 807 q 198 911 161 891 q 270 938 234 932 q 336 945 306 945 q 450 919 397 945 q 533 829 502 892 q 565 653 565 766 q 559 538 565 597 q 543 435 553 479 l 237 435 l 237 340 q 257 168 237 218 q 336 117 278 117 q 394 145 368 117 q 420 246 420 172 l 420 287 l 561 287 l 561 244 q 497 51 561 111 q 314 -10 434 -10 q 129 82 193 -10 q 64 382 64 174 m 405 550 q 407 595 406 565 q 408 644 408 625 q 388 777 408 736 q 326 817 368 817 q 258 771 280 817 q 237 605 237 726 l 237 550 l 405 550 m 482 1212 l 482 1282 q 531 1296 514 1282 q 548 1329 548 1309 q 515 1377 548 1357 q 426 1402 482 1398 l 448 1485 q 596 1430 542 1476 q 651 1325 651 1385 q 482 1212 651 1227 m 361 1320 l 530 1021 l 396 1021 l 342 1138 l 311 1219 l 281 1138 l 223 1021 l 90 1021 l 255 1320 l 361 1320 z "},"ễ":{"ha":620,"x_min":64,"x_max":565,"o":"m 64 382 l 64 559 q 83 736 64 666 q 131 849 101 807 q 198 911 161 891 q 270 938 234 932 q 336 945 306 945 q 450 919 397 945 q 533 829 502 892 q 565 653 565 766 q 559 538 565 597 q 543 435 553 479 l 237 435 l 237 340 q 257 168 237 218 q 336 117 278 117 q 394 145 368 117 q 420 246 420 172 l 420 287 l 561 287 l 561 244 q 497 51 561 111 q 314 -10 434 -10 q 129 82 193 -10 q 64 382 64 174 m 405 550 q 407 595 406 565 q 408 644 408 625 q 388 777 408 736 q 326 817 368 817 q 258 771 280 817 q 237 605 237 726 l 237 550 l 405 550 m 271 1388 q 233 1424 245 1412 q 204 1436 221 1436 q 180 1400 180 1436 l 180 1361 l 83 1361 q 81 1384 82 1367 q 81 1406 81 1400 q 117 1509 81 1483 q 202 1535 153 1535 q 257 1524 234 1535 q 301 1493 279 1514 q 334 1462 315 1479 q 370 1444 353 1444 q 397 1477 397 1444 l 397 1525 l 485 1525 q 490 1494 488 1506 q 491 1472 491 1482 q 456 1377 491 1409 q 377 1345 421 1345 q 319 1356 343 1345 q 271 1388 294 1367 m 337 1300 l 505 1021 l 372 1021 l 318 1124 l 287 1205 l 256 1124 l 199 1021 l 66 1021 l 231 1300 l 337 1300 z "},"ë":{"ha":620,"x_min":64,"x_max":565,"o":"m 64 382 l 64 559 q 83 736 64 666 q 131 849 101 807 q 198 911 161 891 q 270 938 234 932 q 336 945 306 945 q 450 919 397 945 q 533 829 502 892 q 565 653 565 766 q 559 538 565 597 q 543 435 553 479 l 237 435 l 237 340 q 257 168 237 218 q 336 117 278 117 q 394 145 368 117 q 420 246 420 172 l 420 287 l 561 287 l 561 244 q 497 51 561 111 q 314 -10 434 -10 q 129 82 193 -10 q 64 382 64 174 m 405 550 q 407 595 406 565 q 408 644 408 625 q 388 777 408 736 q 326 817 368 817 q 258 771 280 817 q 237 605 237 726 l 237 550 l 405 550 m 159 1024 q 86 1053 106 1024 q 66 1136 66 1082 q 85 1224 66 1194 q 159 1254 105 1254 q 236 1225 214 1254 q 257 1136 257 1196 q 236 1054 257 1084 q 159 1024 214 1024 m 455 1024 q 382 1053 402 1024 q 363 1136 363 1082 q 382 1224 363 1194 q 455 1254 401 1254 q 532 1225 511 1254 q 554 1136 554 1196 q 532 1054 554 1084 q 455 1024 511 1024 z "},"ė":{"ha":620,"x_min":64,"x_max":565,"o":"m 64 382 l 64 559 q 83 736 64 666 q 131 849 101 807 q 198 911 161 891 q 270 938 234 932 q 336 945 306 945 q 450 919 397 945 q 533 829 502 892 q 565 653 565 766 q 559 538 565 597 q 543 435 553 479 l 237 435 l 237 340 q 257 168 237 218 q 336 117 278 117 q 394 145 368 117 q 420 246 420 172 l 420 287 l 561 287 l 561 244 q 497 51 561 111 q 314 -10 434 -10 q 129 82 193 -10 q 64 382 64 174 m 405 550 q 407 595 406 565 q 408 644 408 625 q 388 777 408 736 q 326 817 368 817 q 258 771 280 817 q 237 605 237 726 l 237 550 l 405 550 m 309 1043 q 232 1073 261 1043 q 203 1157 203 1103 q 232 1242 203 1217 q 309 1267 261 1267 q 388 1240 359 1267 q 416 1157 416 1213 q 387 1074 416 1104 q 309 1043 359 1043 z "},"ẹ":{"ha":620,"x_min":64,"x_max":565,"o":"m 64 382 l 64 559 q 83 736 64 666 q 131 849 101 807 q 198 911 161 891 q 270 938 234 932 q 336 945 306 945 q 450 919 397 945 q 533 829 502 892 q 565 653 565 766 q 559 538 565 597 q 543 435 553 479 l 237 435 l 237 340 q 257 168 237 218 q 336 117 278 117 q 394 145 368 117 q 420 246 420 172 l 420 287 l 561 287 l 561 244 q 497 51 561 111 q 314 -10 434 -10 q 129 82 193 -10 q 64 382 64 174 m 405 550 q 407 595 406 565 q 408 644 408 625 q 388 777 408 736 q 326 817 368 817 q 258 771 280 817 q 237 605 237 726 l 237 550 l 405 550 m 204 -174 q 233 -89 204 -114 q 310 -64 262 -64 q 388 -91 360 -64 q 416 -174 416 -118 q 388 -258 416 -227 q 309 -288 359 -288 q 233 -258 262 -288 q 204 -174 204 -229 z "},"è":{"ha":620,"x_min":64,"x_max":565,"o":"m 64 382 l 64 559 q 83 736 64 666 q 131 849 101 807 q 198 911 161 891 q 270 938 234 932 q 336 945 306 945 q 450 919 397 945 q 533 829 502 892 q 565 653 565 766 q 559 538 565 597 q 543 435 553 479 l 237 435 l 237 340 q 257 168 237 218 q 336 117 278 117 q 394 145 368 117 q 420 246 420 172 l 420 287 l 561 287 l 561 244 q 497 51 561 111 q 314 -10 434 -10 q 129 82 193 -10 q 64 382 64 174 m 405 550 q 407 595 406 565 q 408 644 408 625 q 388 777 408 736 q 326 817 368 817 q 258 771 280 817 q 237 605 237 726 l 237 550 l 405 550 m 106 1252 l 221 1345 l 418 1063 l 333 991 l 106 1252 z "},"ẻ":{"ha":620,"x_min":64,"x_max":565,"o":"m 64 382 l 64 559 q 83 736 64 666 q 131 849 101 807 q 198 911 161 891 q 270 938 234 932 q 336 945 306 945 q 450 919 397 945 q 533 829 502 892 q 565 653 565 766 q 559 538 565 597 q 543 435 553 479 l 237 435 l 237 340 q 257 168 237 218 q 336 117 278 117 q 394 145 368 117 q 420 246 420 172 l 420 287 l 561 287 l 561 244 q 497 51 561 111 q 314 -10 434 -10 q 129 82 193 -10 q 64 382 64 174 m 405 550 q 407 595 406 565 q 408 644 408 625 q 388 777 408 736 q 326 817 368 817 q 258 771 280 817 q 237 605 237 726 l 237 550 l 405 550 m 248 1009 l 248 1088 q 302 1102 283 1088 q 321 1139 321 1117 q 284 1193 321 1171 q 185 1221 248 1215 l 210 1313 q 374 1252 314 1302 q 435 1135 435 1202 q 389 1049 435 1080 q 248 1009 344 1018 z "},"ē":{"ha":620,"x_min":64,"x_max":565,"o":"m 64 382 l 64 559 q 83 736 64 666 q 131 849 101 807 q 198 911 161 891 q 270 938 234 932 q 336 945 306 945 q 450 919 397 945 q 533 829 502 892 q 565 653 565 766 q 559 538 565 597 q 543 435 553 479 l 237 435 l 237 340 q 257 168 237 218 q 336 117 278 117 q 394 145 368 117 q 420 246 420 172 l 420 287 l 561 287 l 561 244 q 497 51 561 111 q 314 -10 434 -10 q 129 82 193 -10 q 64 382 64 174 m 405 550 q 407 595 406 565 q 408 644 408 625 q 388 777 408 736 q 326 817 368 817 q 258 771 280 817 q 237 605 237 726 l 237 550 l 405 550 m 98 1184 l 521 1184 l 521 1053 l 98 1053 l 98 1184 z "},"ę":{"ha":620,"x_min":64,"x_max":565,"o":"m 64 382 l 64 559 q 83 736 64 666 q 131 849 101 807 q 198 911 161 891 q 270 938 234 932 q 336 945 306 945 q 450 919 397 945 q 533 829 502 892 q 565 653 565 766 q 559 538 565 597 q 543 435 553 479 l 237 435 l 237 340 q 257 168 237 218 q 336 117 278 117 q 394 145 368 117 q 420 246 420 172 l 420 287 l 561 287 l 561 244 q 497 51 561 111 q 314 -10 434 -10 q 129 82 193 -10 q 64 382 64 174 m 405 550 q 407 595 406 565 q 408 644 408 625 q 388 777 408 736 q 326 817 368 817 q 258 771 280 817 q 237 605 237 726 l 237 550 l 405 550 m 336 9 l 408 1 q 363 -81 367 -45 q 380 -140 360 -118 q 431 -161 401 -161 q 443 -161 437 -161 q 454 -161 448 -161 l 458 -263 q 407 -279 431 -274 q 356 -283 384 -283 q 302 -272 335 -283 q 244 -228 269 -260 q 218 -131 218 -195 q 242 -44 218 -78 q 276 1 265 -9 l 336 9 z "},"ɛ":{"ha":695,"x_min":62,"x_max":625,"o":"m 606 301 q 618 243 614 271 q 623 192 623 215 q 553 46 623 98 q 350 -5 483 -5 q 207 16 272 -5 q 101 89 141 38 q 62 224 62 139 l 62 286 q 107 421 62 377 q 221 484 153 465 l 221 488 q 154 526 186 502 q 100 587 121 549 q 79 677 79 624 l 79 734 q 144 886 79 832 q 357 939 210 939 q 508 910 449 939 q 596 835 568 880 q 625 743 625 789 q 620 686 625 713 q 607 631 614 659 l 471 631 l 471 676 q 441 789 471 749 q 357 829 412 829 q 260 729 260 829 l 260 640 q 289 558 260 582 q 362 534 319 534 l 436 534 l 436 433 l 362 433 q 269 401 294 433 q 243 311 243 370 l 243 212 q 271 129 243 153 q 350 104 300 104 q 435 138 401 104 q 469 258 469 171 l 469 301 l 606 301 z "},"ɘ":{"ha":620,"x_min":55,"x_max":555,"o":"m 555 382 q 491 82 555 174 q 306 -10 427 -10 q 122 51 186 -10 q 59 244 59 111 l 59 287 l 200 287 l 200 246 q 226 145 200 172 q 283 117 252 117 q 362 168 342 117 q 383 340 383 218 l 383 435 l 77 435 q 61 538 67 479 q 55 653 55 597 q 86 829 55 766 q 170 919 118 892 q 284 945 222 945 q 350 938 314 945 q 422 911 386 932 q 489 849 458 891 q 537 736 519 807 q 555 559 555 666 l 555 382 m 215 550 l 383 550 l 383 605 q 361 771 383 726 q 294 817 340 817 q 232 777 252 817 q 212 644 212 736 q 213 595 212 625 q 215 550 214 565 z "},"ʃ":{"ha":411,"x_min":-47,"x_max":420,"o":"m 100 0 l 100 1001 q 128 1155 100 1103 q 202 1226 156 1208 q 306 1245 249 1245 q 364 1239 331 1245 q 420 1222 397 1234 l 420 1101 q 356 1109 391 1109 q 297 1085 323 1109 q 272 1001 272 1062 l 272 0 q 244 -154 272 -101 q 170 -225 217 -207 q 66 -244 123 -244 q 9 -238 41 -244 q -47 -221 -24 -233 l -47 -100 q 16 -108 -19 -108 q 75 -84 50 -108 q 100 0 100 -61 z "},"ẽ":{"ha":620,"x_min":56,"x_max":565,"o":"m 64 382 l 64 559 q 83 736 64 666 q 131 849 101 807 q 198 911 161 891 q 270 938 234 932 q 336 945 306 945 q 450 919 397 945 q 533 829 502 892 q 565 653 565 766 q 559 538 565 597 q 543 435 553 479 l 237 435 l 237 340 q 257 168 237 218 q 336 117 278 117 q 394 145 368 117 q 420 246 420 172 l 420 287 l 561 287 l 561 244 q 497 51 561 111 q 314 -10 434 -10 q 129 82 193 -10 q 64 382 64 174 m 405 550 q 407 595 406 565 q 408 644 408 625 q 388 777 408 736 q 326 817 368 817 q 258 771 280 817 q 237 605 237 726 l 237 550 l 405 550 m 422 1015 q 350 1029 380 1015 q 292 1068 320 1042 q 244 1112 259 1097 q 209 1126 230 1126 q 180 1083 180 1126 l 180 1034 l 59 1034 q 57 1062 58 1042 q 56 1090 56 1083 q 77 1188 56 1154 q 132 1236 98 1222 q 206 1249 166 1249 q 274 1236 246 1249 q 328 1197 301 1223 q 369 1159 346 1180 q 414 1137 393 1137 q 448 1177 448 1137 l 448 1236 l 555 1236 q 563 1172 563 1192 q 520 1055 563 1094 q 422 1015 477 1015 z "},"ǝ":{"ha":620,"x_min":64,"x_max":565,"o":"m 565 551 l 565 375 q 547 197 565 268 q 498 85 528 127 q 432 22 468 43 q 359 -4 395 2 q 294 -11 323 -11 q 180 15 232 -11 q 96 105 127 41 q 64 281 64 168 q 71 396 64 337 q 87 499 77 454 l 393 499 l 393 594 q 372 766 393 716 q 293 817 351 817 q 236 789 262 817 q 210 688 210 762 l 210 647 l 68 647 l 68 690 q 132 883 68 823 q 315 944 195 944 q 500 852 436 944 q 565 551 565 760 m 224 384 q 222 339 223 369 q 222 290 222 309 q 241 158 222 198 q 304 117 261 117 q 371 162 349 117 q 393 329 393 208 l 393 384 l 224 384 z "},"ə":{"ha":620,"x_min":64,"x_max":565,"o":"m 565 551 l 565 375 q 547 197 565 268 q 498 85 528 127 q 432 22 468 43 q 359 -4 395 2 q 294 -11 323 -11 q 180 15 232 -11 q 96 105 127 41 q 64 281 64 168 q 71 396 64 337 q 87 499 77 454 l 393 499 l 393 594 q 372 766 393 716 q 293 817 351 817 q 236 789 262 817 q 210 688 210 762 l 210 647 l 68 647 l 68 690 q 132 883 68 823 q 315 944 195 944 q 500 852 436 944 q 565 551 565 760 m 224 384 q 222 339 223 369 q 222 290 222 309 q 241 158 222 198 q 304 117 261 117 q 371 162 349 117 q 393 329 393 208 l 393 384 l 224 384 z "},"ʒ":{"ha":574,"x_min":37,"x_max":530,"o":"m 276 -130 q 99 -72 161 -130 q 37 92 37 -14 q 40 151 37 119 q 52 216 44 182 l 176 216 l 176 167 q 205 31 176 68 q 276 -6 235 -6 q 341 21 317 -6 q 366 115 366 49 l 366 227 q 346 329 366 293 q 265 365 326 365 l 198 365 l 198 478 l 322 804 l 58 804 l 58 934 l 507 934 l 507 848 l 361 464 q 440 402 401 444 q 505 307 479 360 q 530 199 530 253 l 530 129 q 495 -24 530 33 q 401 -105 459 -81 q 276 -130 343 -130 z "},"ǯ":{"ha":574,"x_min":37,"x_max":530,"o":"m 276 -130 q 99 -72 161 -130 q 37 92 37 -14 q 40 151 37 119 q 52 216 44 182 l 176 216 l 176 167 q 205 31 176 68 q 276 -6 235 -6 q 341 21 317 -6 q 366 115 366 49 l 366 227 q 346 329 366 293 q 265 365 326 365 l 198 365 l 198 478 l 322 804 l 58 804 l 58 934 l 507 934 l 507 848 l 361 464 q 440 402 401 444 q 505 307 479 360 q 530 199 530 253 l 530 129 q 495 -24 530 33 q 401 -105 459 -81 q 276 -130 343 -130 m 220 1021 l 37 1354 l 185 1354 l 249 1223 l 283 1134 l 317 1223 l 377 1354 l 526 1354 l 338 1021 l 220 1021 z "},"f":{"ha":411,"x_min":22,"x_max":420,"o":"m 100 804 l 22 804 l 22 934 l 100 934 l 100 1001 q 128 1155 100 1103 q 202 1226 156 1208 q 306 1245 249 1245 q 364 1239 331 1245 q 420 1222 397 1234 l 420 1101 q 356 1109 391 1109 q 297 1085 323 1109 q 272 1001 272 1062 l 272 934 l 408 934 l 408 804 l 272 804 l 272 0 l 100 0 l 100 804 z "},"g":{"ha":667,"x_min":64,"x_max":580,"o":"m 226 -64 q 249 -149 226 -123 q 317 -174 271 -174 q 365 -163 343 -174 q 401 -122 387 -152 q 414 -35 414 -92 l 414 112 q 355 61 391 83 q 265 39 319 39 q 208 48 241 39 q 141 89 174 57 q 86 190 109 121 q 64 377 64 258 l 64 623 q 86 802 64 736 q 141 897 109 867 q 209 936 174 928 q 269 944 244 944 q 375 912 338 944 q 431 842 412 880 l 446 935 l 580 935 l 580 38 q 518 -210 580 -118 q 319 -302 456 -302 q 207 -287 258 -302 q 126 -231 156 -271 q 96 -118 96 -191 q 104 -64 96 -95 l 226 -64 m 323 179 q 378 200 357 179 q 409 247 398 221 l 409 736 q 375 785 396 764 q 323 805 353 805 q 278 792 298 805 q 248 742 259 779 q 237 636 237 706 l 237 350 q 248 244 237 281 q 279 193 259 207 q 323 179 298 179 z "},"ğ":{"ha":667,"x_min":64,"x_max":580,"o":"m 226 -64 q 249 -149 226 -123 q 317 -174 271 -174 q 365 -163 343 -174 q 401 -122 387 -152 q 414 -35 414 -92 l 414 112 q 355 61 391 83 q 265 39 319 39 q 208 48 241 39 q 141 89 174 57 q 86 190 109 121 q 64 377 64 258 l 64 623 q 86 802 64 736 q 141 897 109 867 q 209 936 174 928 q 269 944 244 944 q 375 912 338 944 q 431 842 412 880 l 446 935 l 580 935 l 580 38 q 518 -210 580 -118 q 319 -302 456 -302 q 207 -287 258 -302 q 126 -231 156 -271 q 96 -118 96 -191 q 104 -64 96 -95 l 226 -64 m 323 179 q 378 200 357 179 q 409 247 398 221 l 409 736 q 375 785 396 764 q 323 805 353 805 q 278 792 298 805 q 248 742 259 779 q 237 636 237 706 l 237 350 q 248 244 237 281 q 279 193 259 207 q 323 179 298 179 m 330 1020 q 211 1050 258 1020 q 140 1127 163 1080 q 117 1227 117 1175 q 121 1273 117 1251 l 242 1273 q 236 1250 237 1262 q 235 1225 235 1238 q 259 1160 235 1190 q 330 1131 282 1131 q 410 1161 384 1131 q 437 1225 437 1191 q 437 1250 437 1238 q 431 1273 437 1262 l 546 1273 q 550 1227 550 1251 q 526 1129 550 1177 q 453 1051 502 1082 q 330 1020 404 1020 z "},"ǧ":{"ha":667,"x_min":64,"x_max":580,"o":"m 226 -64 q 249 -149 226 -123 q 317 -174 271 -174 q 365 -163 343 -174 q 401 -122 387 -152 q 414 -35 414 -92 l 414 112 q 355 61 391 83 q 265 39 319 39 q 208 48 241 39 q 141 89 174 57 q 86 190 109 121 q 64 377 64 258 l 64 623 q 86 802 64 736 q 141 897 109 867 q 209 936 174 928 q 269 944 244 944 q 375 912 338 944 q 431 842 412 880 l 446 935 l 580 935 l 580 38 q 518 -210 580 -118 q 319 -302 456 -302 q 207 -287 258 -302 q 126 -231 156 -271 q 96 -118 96 -191 q 104 -64 96 -95 l 226 -64 m 323 179 q 378 200 357 179 q 409 247 398 221 l 409 736 q 375 785 396 764 q 323 805 353 805 q 278 792 298 805 q 248 742 259 779 q 237 636 237 706 l 237 350 q 248 244 237 281 q 279 193 259 207 q 323 179 298 179 m 273 1021 l 90 1354 l 237 1354 l 301 1223 l 335 1134 l 370 1223 l 429 1354 l 578 1354 l 391 1021 l 273 1021 z "},"ĝ":{"ha":667,"x_min":64,"x_max":580,"o":"m 226 -64 q 249 -149 226 -123 q 317 -174 271 -174 q 365 -163 343 -174 q 401 -122 387 -152 q 414 -35 414 -92 l 414 112 q 355 61 391 83 q 265 39 319 39 q 208 48 241 39 q 141 89 174 57 q 86 190 109 121 q 64 377 64 258 l 64 623 q 86 802 64 736 q 141 897 109 867 q 209 936 174 928 q 269 944 244 944 q 375 912 338 944 q 431 842 412 880 l 446 935 l 580 935 l 580 38 q 518 -210 580 -118 q 319 -302 456 -302 q 207 -287 258 -302 q 126 -231 156 -271 q 96 -118 96 -191 q 104 -64 96 -95 l 226 -64 m 323 179 q 378 200 357 179 q 409 247 398 221 l 409 736 q 375 785 396 764 q 323 805 353 805 q 278 792 298 805 q 248 742 259 779 q 237 636 237 706 l 237 350 q 248 244 237 281 q 279 193 259 207 q 323 179 298 179 m 391 1354 l 578 1021 l 429 1021 l 370 1151 l 335 1240 l 301 1151 l 237 1021 l 90 1021 l 273 1354 l 391 1354 z "},"ģ":{"ha":667,"x_min":64,"x_max":580,"o":"m 226 -64 q 249 -149 226 -123 q 317 -174 271 -174 q 365 -163 343 -174 q 401 -122 387 -152 q 414 -35 414 -92 l 414 112 q 355 61 391 83 q 265 39 319 39 q 208 48 241 39 q 141 89 174 57 q 86 190 109 121 q 64 377 64 258 l 64 623 q 86 802 64 736 q 141 897 109 867 q 209 936 174 928 q 269 944 244 944 q 375 912 338 944 q 431 842 412 880 l 446 935 l 580 935 l 580 38 q 518 -210 580 -118 q 319 -302 456 -302 q 207 -287 258 -302 q 126 -231 156 -271 q 96 -118 96 -191 q 104 -64 96 -95 l 226 -64 m 323 179 q 378 200 357 179 q 409 247 398 221 l 409 736 q 375 785 396 764 q 323 805 353 805 q 278 792 298 805 q 248 742 259 779 q 237 636 237 706 l 237 350 q 248 244 237 281 q 279 193 259 207 q 323 179 298 179 m 231 1067 l 304 1361 l 436 1361 l 394 1067 l 231 1067 z "},"ġ":{"ha":667,"x_min":64,"x_max":580,"o":"m 226 -64 q 249 -149 226 -123 q 317 -174 271 -174 q 365 -163 343 -174 q 401 -122 387 -152 q 414 -35 414 -92 l 414 112 q 355 61 391 83 q 265 39 319 39 q 208 48 241 39 q 141 89 174 57 q 86 190 109 121 q 64 377 64 258 l 64 623 q 86 802 64 736 q 141 897 109 867 q 209 936 174 928 q 269 944 244 944 q 375 912 338 944 q 431 842 412 880 l 446 935 l 580 935 l 580 38 q 518 -210 580 -118 q 319 -302 456 -302 q 207 -287 258 -302 q 126 -231 156 -271 q 96 -118 96 -191 q 104 -64 96 -95 l 226 -64 m 323 179 q 378 200 357 179 q 409 247 398 221 l 409 736 q 375 785 396 764 q 323 805 353 805 q 278 792 298 805 q 248 742 259 779 q 237 636 237 706 l 237 350 q 248 244 237 281 q 279 193 259 207 q 323 179 298 179 m 332 1043 q 256 1073 285 1043 q 227 1157 227 1103 q 256 1242 227 1217 q 333 1267 285 1267 q 411 1240 383 1267 q 439 1157 439 1213 q 411 1074 439 1104 q 332 1043 382 1043 z "},"ḡ":{"ha":667,"x_min":64,"x_max":580,"o":"m 226 -64 q 249 -149 226 -123 q 317 -174 271 -174 q 365 -163 343 -174 q 401 -122 387 -152 q 414 -35 414 -92 l 414 112 q 355 61 391 83 q 265 39 319 39 q 208 48 241 39 q 141 89 174 57 q 86 190 109 121 q 64 377 64 258 l 64 623 q 86 802 64 736 q 141 897 109 867 q 209 936 174 928 q 269 944 244 944 q 375 912 338 944 q 431 842 412 880 l 446 935 l 580 935 l 580 38 q 518 -210 580 -118 q 319 -302 456 -302 q 207 -287 258 -302 q 126 -231 156 -271 q 96 -118 96 -191 q 104 -64 96 -95 l 226 -64 m 323 179 q 378 200 357 179 q 409 247 398 221 l 409 736 q 375 785 396 764 q 323 805 353 805 q 278 792 298 805 q 248 742 259 779 q 237 636 237 706 l 237 350 q 248 244 237 281 q 279 193 259 207 q 323 179 298 179 m 122 1184 l 545 1184 l 545 1053 l 122 1053 l 122 1184 z "},"ɡ":{"ha":667,"x_min":64,"x_max":580,"o":"m 226 -64 q 249 -149 226 -123 q 317 -174 271 -174 q 365 -163 343 -174 q 401 -122 387 -152 q 414 -35 414 -92 l 414 112 q 355 61 391 83 q 265 39 319 39 q 208 48 241 39 q 141 89 174 57 q 86 190 109 121 q 64 377 64 258 l 64 623 q 86 800 64 736 q 141 892 109 864 q 209 927 174 920 q 269 934 244 934 l 580 934 l 580 38 q 518 -210 580 -118 q 319 -302 456 -302 q 207 -287 258 -302 q 126 -231 156 -271 q 96 -118 96 -191 q 104 -64 96 -95 l 226 -64 m 409 247 l 409 805 l 323 805 q 278 792 298 805 q 248 742 259 779 q 237 636 237 706 l 237 350 q 248 244 237 281 q 279 193 259 207 q 323 179 298 179 q 378 200 357 179 q 409 247 398 221 z "},"ǥ":{"ha":689,"x_min":64,"x_max":669,"o":"m 262 -63 l 262 66 l 414 66 l 414 193 q 355 142 391 164 q 265 121 319 121 q 208 130 241 121 q 141 171 174 138 q 86 271 109 203 q 64 458 64 340 l 64 623 q 86 802 64 736 q 141 897 109 867 q 209 936 174 928 q 269 944 244 944 q 375 912 338 944 q 431 842 412 880 l 446 935 l 580 935 l 580 66 l 669 66 l 669 -63 l 578 -63 q 505 -269 567 -194 q 319 -345 443 -345 q 207 -330 258 -345 q 126 -280 156 -315 q 96 -181 96 -244 q 104 -127 96 -158 l 226 -127 q 317 -217 226 -217 q 365 -206 343 -217 q 401 -165 387 -195 q 414 -78 414 -135 l 414 -63 l 262 -63 m 323 260 q 378 281 357 260 q 409 328 398 302 l 409 736 q 375 785 396 764 q 323 805 353 805 q 278 792 298 805 q 248 742 259 779 q 237 636 237 706 l 237 431 q 248 325 237 362 q 279 274 259 288 q 323 260 298 260 z "},"h":{"ha":686,"x_min":87,"x_max":600,"o":"m 87 1234 l 258 1234 l 258 1014 l 250 854 q 334 925 288 906 q 429 945 381 945 q 555 887 510 945 q 600 715 600 829 l 600 0 l 428 0 l 428 695 q 409 781 428 757 q 353 805 390 805 q 303 787 328 805 q 258 740 278 770 l 258 0 l 87 0 l 87 1234 z "},"ħ":{"ha":686,"x_min":3,"x_max":600,"o":"m 87 1021 l 3 1021 l 3 1137 l 87 1137 l 87 1227 l 258 1227 l 258 1137 l 408 1137 l 408 1021 l 258 1021 l 258 1009 l 250 850 q 334 921 288 902 q 429 940 381 940 q 555 883 510 940 q 600 712 600 825 l 600 0 l 428 0 l 428 684 q 409 769 428 745 q 353 793 390 793 q 258 736 300 793 l 258 0 l 87 0 l 87 1021 z "},"ḫ":{"ha":686,"x_min":87,"x_max":600,"o":"m 87 1234 l 258 1234 l 258 1014 l 250 854 q 334 925 288 906 q 429 945 381 945 q 555 887 510 945 q 600 715 600 829 l 600 0 l 428 0 l 428 695 q 409 781 428 757 q 353 805 390 805 q 303 787 328 805 q 258 740 278 770 l 258 0 l 87 0 l 87 1234 m 340 -301 q 220 -271 268 -301 q 150 -194 173 -241 q 127 -94 127 -146 q 131 -48 127 -71 l 252 -48 q 246 -71 247 -59 q 245 -96 245 -83 q 268 -161 245 -132 q 339 -191 292 -191 q 420 -160 393 -191 q 446 -96 446 -130 q 446 -71 446 -83 q 441 -48 446 -59 l 555 -48 q 559 -94 559 -71 q 535 -192 559 -144 q 463 -270 511 -239 q 340 -301 414 -301 z "},"ĥ":{"ha":686,"x_min":-74,"x_max":600,"o":"m 87 1234 l 258 1234 l 258 1014 l 250 854 q 334 925 288 906 q 429 945 381 945 q 555 887 510 945 q 600 715 600 829 l 600 0 l 428 0 l 428 695 q 409 781 428 757 q 353 805 390 805 q 303 787 328 805 q 258 740 278 770 l 258 0 l 87 0 l 87 1234 m 205 1388 l 178 1426 l 151 1388 l 94 1300 l -74 1300 l 96 1510 l 254 1510 l 421 1300 l 252 1300 l 205 1388 z "},"ḥ":{"ha":686,"x_min":87,"x_max":600,"o":"m 87 1234 l 258 1234 l 258 1014 l 250 854 q 334 925 288 906 q 429 945 381 945 q 555 887 510 945 q 600 715 600 829 l 600 0 l 428 0 l 428 695 q 409 781 428 757 q 353 805 390 805 q 303 787 328 805 q 258 740 278 770 l 258 0 l 87 0 l 87 1234 m 237 -174 q 266 -89 237 -114 q 343 -64 295 -64 q 421 -91 393 -64 q 450 -174 450 -118 q 421 -258 450 -227 q 342 -288 393 -288 q 266 -258 295 -288 q 237 -174 237 -229 z "},"ẖ":{"ha":686,"x_min":87,"x_max":600,"o":"m 87 1234 l 258 1234 l 258 1014 l 250 854 q 334 925 288 906 q 429 945 381 945 q 555 887 510 945 q 600 715 600 829 l 600 0 l 428 0 l 428 695 q 409 781 428 757 q 353 805 390 805 q 303 787 328 805 q 258 740 278 770 l 258 0 l 87 0 l 87 1234 m 132 -106 l 554 -106 l 554 -237 l 132 -237 l 132 -106 z "},"i":{"ha":347,"x_min":67,"x_max":279,"o":"m 172 1063 q 96 1093 125 1063 q 67 1177 67 1123 q 96 1263 67 1238 q 173 1288 125 1288 q 251 1261 223 1288 q 279 1177 279 1234 q 251 1094 279 1124 q 172 1063 222 1063 m 87 934 l 259 934 l 259 0 l 87 0 l 87 934 z "},"ı":{"ha":347,"x_min":87,"x_max":259,"o":"m 87 934 l 259 934 l 259 0 l 87 0 l 87 934 z "},"í":{"ha":347,"x_min":72,"x_max":383,"o":"m 87 934 l 259 934 l 259 0 l 87 0 l 87 934 m 72 1063 l 269 1345 l 383 1252 l 157 991 l 72 1063 z "},"ĭ":{"ha":347,"x_min":-43,"x_max":390,"o":"m 87 934 l 259 934 l 259 0 l 87 0 l 87 934 m 170 1020 q 51 1050 98 1020 q -20 1127 3 1080 q -43 1227 -43 1175 q -39 1273 -43 1251 l 82 1273 q 76 1250 77 1262 q 75 1225 75 1238 q 99 1160 75 1190 q 170 1131 122 1131 q 250 1161 224 1131 q 277 1225 277 1191 q 277 1250 277 1238 q 271 1273 277 1262 l 386 1273 q 390 1227 390 1251 q 366 1129 390 1177 q 293 1051 342 1082 q 170 1020 244 1020 z "},"ǐ":{"ha":347,"x_min":-71,"x_max":418,"o":"m 87 934 l 259 934 l 259 0 l 87 0 l 87 934 m 113 1021 l -71 1354 l 77 1354 l 141 1223 l 175 1134 l 210 1223 l 269 1354 l 418 1354 l 231 1021 l 113 1021 z "},"î":{"ha":347,"x_min":-71,"x_max":418,"o":"m 87 934 l 259 934 l 259 0 l 87 0 l 87 934 m 231 1354 l 418 1021 l 269 1021 l 210 1151 l 175 1240 l 141 1151 l 77 1021 l -71 1021 l 113 1354 l 231 1354 z "},"ï":{"ha":347,"x_min":-71,"x_max":418,"o":"m 87 934 l 259 934 l 259 0 l 87 0 l 87 934 m 22 1024 q -51 1053 -31 1024 q -71 1136 -71 1082 q -51 1224 -71 1194 q 22 1254 -31 1254 q 99 1225 78 1254 q 121 1136 121 1196 q 99 1054 121 1084 q 22 1024 78 1024 m 319 1024 q 246 1053 266 1024 q 227 1136 227 1082 q 246 1224 227 1194 q 319 1254 265 1254 q 396 1225 374 1254 q 418 1136 418 1196 q 396 1054 418 1084 q 319 1024 374 1024 z "},"ḯ":{"ha":347,"x_min":-71,"x_max":418,"o":"m 87 934 l 259 934 l 259 0 l 87 0 l 87 934 m 22 1024 q -51 1053 -31 1024 q -71 1136 -71 1082 q -51 1224 -71 1194 q 22 1254 -31 1254 q 99 1225 78 1254 q 121 1136 121 1196 q 99 1054 121 1084 q 22 1024 78 1024 m 319 1024 q 246 1053 266 1024 q 227 1136 227 1082 q 246 1224 227 1194 q 319 1254 265 1254 q 396 1225 374 1254 q 418 1136 418 1196 q 396 1054 418 1084 q 319 1024 374 1024 m 72 1335 l 269 1617 l 383 1525 l 157 1264 l 72 1335 z "},"ị":{"ha":347,"x_min":67,"x_max":280,"o":"m 172 1063 q 96 1093 125 1063 q 67 1177 67 1123 q 96 1263 67 1238 q 173 1288 125 1288 q 251 1261 223 1288 q 279 1177 279 1234 q 251 1094 279 1124 q 172 1063 222 1063 m 87 934 l 259 934 l 259 0 l 87 0 l 87 934 m 68 -174 q 97 -89 68 -114 q 174 -64 125 -64 q 252 -91 224 -64 q 280 -174 280 -118 q 252 -258 280 -227 q 173 -288 223 -288 q 97 -258 125 -288 q 68 -174 68 -229 z "},"ì":{"ha":347,"x_min":-30,"x_max":281,"o":"m 87 934 l 259 934 l 259 0 l 87 0 l 87 934 m -30 1252 l 85 1345 l 281 1063 l 197 991 l -30 1252 z "},"ỉ":{"ha":347,"x_min":49,"x_max":298,"o":"m 87 934 l 259 934 l 259 0 l 87 0 l 87 934 m 111 1009 l 111 1088 q 166 1102 147 1088 q 184 1139 184 1117 q 148 1193 184 1171 q 49 1221 111 1215 l 73 1313 q 238 1252 178 1302 q 298 1135 298 1202 q 253 1049 298 1080 q 111 1009 208 1018 z "},"ĳ":{"ha":694,"x_min":67,"x_max":627,"o":"m 172 1063 q 96 1093 125 1063 q 67 1177 67 1123 q 96 1263 67 1238 q 173 1288 125 1288 q 251 1261 223 1288 q 279 1177 279 1234 q 251 1094 279 1124 q 172 1063 222 1063 m 87 934 l 259 934 l 259 0 l 87 0 l 87 934 m 520 1063 q 444 1093 473 1063 q 415 1177 415 1123 q 444 1263 415 1238 q 521 1288 473 1288 q 599 1261 571 1288 q 627 1177 627 1234 q 599 1094 627 1124 q 520 1063 570 1063 m 435 934 l 607 934 l 607 -57 q 581 -211 607 -159 q 513 -282 555 -264 q 422 -301 471 -301 q 381 -297 402 -301 q 340 -285 360 -294 l 340 -185 q 351 -186 345 -186 q 361 -186 356 -186 q 413 -163 391 -186 q 435 -79 435 -140 l 435 934 z "},"ī":{"ha":347,"x_min":-38,"x_max":385,"o":"m 87 934 l 259 934 l 259 0 l 87 0 l 87 934 m -38 1184 l 385 1184 l 385 1053 l -38 1053 l -38 1184 z "},"į":{"ha":347,"x_min":67,"x_max":310,"o":"m 87 934 l 259 934 l 259 0 l 87 0 l 87 934 m 172 1043 q 96 1073 125 1043 q 67 1157 67 1103 q 96 1242 67 1217 q 173 1267 125 1267 q 251 1240 223 1267 q 279 1157 279 1213 q 251 1074 279 1104 q 172 1043 222 1043 m 188 8 l 259 -1 q 215 -83 218 -46 q 232 -141 212 -119 q 283 -163 252 -163 q 294 -163 288 -163 q 305 -162 300 -163 l 310 -264 q 259 -280 282 -275 q 208 -285 235 -285 q 154 -273 186 -285 q 95 -229 121 -262 q 70 -132 70 -196 q 93 -45 70 -79 q 127 -1 117 -11 l 188 8 z "},"ɨ":{"ha":420,"x_min":7,"x_max":414,"o":"m 123 934 l 295 934 l 295 0 l 123 0 l 123 934 m 208 1043 q 132 1073 161 1043 q 103 1157 103 1103 q 132 1242 103 1217 q 209 1267 161 1267 q 287 1240 259 1267 q 315 1157 315 1213 q 287 1074 315 1104 q 208 1043 258 1043 m 7 528 l 7 657 l 414 657 l 414 528 l 7 528 z "},"ĩ":{"ha":347,"x_min":-80,"x_max":427,"o":"m 87 934 l 259 934 l 259 0 l 87 0 l 87 934 m 286 1015 q 214 1029 244 1015 q 155 1068 184 1042 q 108 1112 123 1097 q 73 1126 94 1126 q 43 1083 43 1126 l 43 1034 l -77 1034 q -79 1062 -78 1042 q -80 1090 -80 1083 q -59 1188 -80 1154 q -4 1236 -39 1222 q 70 1249 30 1249 q 137 1236 110 1249 q 192 1197 165 1223 q 233 1159 210 1180 q 277 1137 256 1137 q 311 1177 311 1137 l 311 1236 l 419 1236 q 427 1172 427 1192 q 384 1055 427 1094 q 286 1015 340 1015 z "},"j":{"ha":347,"x_min":-8,"x_max":279,"o":"m 172 1063 q 96 1093 125 1063 q 67 1177 67 1123 q 96 1263 67 1238 q 173 1288 125 1288 q 251 1261 223 1288 q 279 1177 279 1234 q 251 1094 279 1124 q 172 1063 222 1063 m 87 934 l 259 934 l 259 -57 q 233 -211 259 -159 q 165 -282 207 -264 q 75 -301 123 -301 q 33 -297 54 -301 q -8 -285 12 -294 l -8 -185 q 3 -186 -3 -186 q 14 -186 8 -186 q 65 -163 43 -186 q 87 -79 87 -140 l 87 934 z "},"ȷ":{"ha":347,"x_min":-8,"x_max":259,"o":"m 87 934 l 259 934 l 259 -57 q 233 -211 259 -159 q 165 -282 207 -264 q 75 -301 123 -301 q 33 -297 54 -301 q -8 -285 12 -294 l -8 -185 q 3 -186 -3 -186 q 14 -186 8 -186 q 65 -163 43 -186 q 87 -79 87 -140 l 87 934 z "},"ĵ":{"ha":347,"x_min":-71,"x_max":418,"o":"m 87 934 l 259 934 l 259 -57 q 233 -211 259 -159 q 165 -282 207 -264 q 75 -301 123 -301 q 33 -297 54 -301 q -8 -285 12 -294 l -8 -185 q 3 -186 -3 -186 q 14 -186 8 -186 q 65 -163 43 -186 q 87 -79 87 -140 l 87 934 m 231 1354 l 418 1021 l 269 1021 l 210 1151 l 175 1240 l 141 1151 l 77 1021 l -71 1021 l 113 1354 l 231 1354 z "},"k":{"ha":644,"x_min":87,"x_max":636,"o":"m 87 1234 l 259 1234 l 259 524 l 264 524 l 452 934 l 616 934 l 416 515 l 636 0 l 463 0 l 264 463 l 259 463 l 259 0 l 87 0 l 87 1234 z "},"ǩ":{"ha":644,"x_min":-71,"x_max":636,"o":"m 87 1234 l 259 1234 l 259 524 l 264 524 l 452 934 l 616 934 l 416 515 l 636 0 l 463 0 l 264 463 l 259 463 l 259 0 l 87 0 l 87 1234 m 112 1320 l -71 1653 l 77 1653 l 140 1522 l 174 1433 l 209 1522 l 269 1653 l 417 1653 l 230 1320 l 112 1320 z "},"ķ":{"ha":644,"x_min":87,"x_max":636,"o":"m 87 1234 l 259 1234 l 259 524 l 264 524 l 452 934 l 616 934 l 416 515 l 636 0 l 463 0 l 264 463 l 259 463 l 259 0 l 87 0 l 87 1234 m 404 -66 l 331 -360 l 199 -360 l 241 -66 l 404 -66 z "},"ĸ":{"ha":644,"x_min":87,"x_max":636,"o":"m 87 929 l 259 929 l 259 493 l 264 493 l 452 929 l 616 929 l 416 484 l 636 0 l 463 0 l 264 433 l 259 433 l 259 0 l 87 0 l 87 929 z "},"ḵ":{"ha":644,"x_min":87,"x_max":636,"o":"m 87 1234 l 259 1234 l 259 524 l 264 524 l 452 934 l 616 934 l 416 515 l 636 0 l 463 0 l 264 463 l 259 463 l 259 0 l 87 0 l 87 1234 m 111 -106 l 533 -106 l 533 -237 l 111 -237 l 111 -106 z "},"l":{"ha":347,"x_min":87,"x_max":259,"o":"m 87 1234 l 259 1234 l 259 0 l 87 0 l 87 1234 z "},"ĺ":{"ha":347,"x_min":72,"x_max":383,"o":"m 87 1234 l 259 1234 l 259 0 l 87 0 l 87 1234 m 72 1550 l 269 1832 l 383 1740 l 157 1479 l 72 1550 z "},"ľ":{"ha":347,"x_min":87,"x_max":507,"o":"m 87 1234 l 259 1234 l 259 0 l 87 0 l 87 1234 m 347 1722 l 507 1722 l 476 1469 l 333 1469 l 347 1722 z "},"ḽ":{"ha":347,"x_min":-71,"x_max":418,"o":"m 87 1234 l 259 1234 l 259 0 l 87 0 l 87 1234 m 231 -44 l 418 -316 l 269 -316 l 210 -213 l 175 -157 l 141 -213 l 77 -316 l -71 -316 l 113 -44 l 231 -44 z "},"ļ":{"ha":347,"x_min":50,"x_max":259,"o":"m 87 1234 l 259 1234 l 259 0 l 87 0 l 87 1234 m 256 -66 l 182 -360 l 50 -360 l 92 -66 l 256 -66 z "},"ŀ":{"ha":513,"x_min":87,"x_max":507,"o":"m 87 1227 l 259 1227 l 259 0 l 87 0 l 87 1227 m 416 483 q 349 514 375 483 q 322 604 322 546 q 348 694 322 668 q 417 720 374 720 q 507 604 507 720 q 484 515 507 548 q 416 483 460 483 z "},"ḷ":{"ha":347,"x_min":68,"x_max":280,"o":"m 87 1234 l 259 1234 l 259 0 l 87 0 l 87 1234 m 68 -174 q 97 -89 68 -114 q 174 -64 125 -64 q 252 -91 224 -64 q 280 -174 280 -118 q 252 -258 280 -227 q 173 -288 223 -288 q 97 -258 125 -288 q 68 -174 68 -229 z "},"ḹ":{"ha":347,"x_min":-38,"x_max":385,"o":"m 87 1234 l 259 1234 l 259 0 l 87 0 l 87 1234 m 68 -174 q 97 -89 68 -114 q 174 -64 125 -64 q 252 -91 224 -64 q 280 -174 280 -118 q 252 -258 280 -227 q 173 -288 223 -288 q 97 -258 125 -288 q 68 -174 68 -229 m -38 1672 l 385 1672 l 385 1541 l -38 1541 l -38 1672 z "},"ḻ":{"ha":347,"x_min":-38,"x_max":385,"o":"m 87 1234 l 259 1234 l 259 0 l 87 0 l 87 1234 m -38 -106 l 385 -106 l 385 -237 l -38 -237 l -38 -106 z "},"ł":{"ha":412,"x_min":-41,"x_max":453,"o":"m -41 563 l 114 709 l 114 1227 l 285 1227 l 285 860 l 373 943 l 453 861 l 285 701 l 285 0 l 114 0 l 114 551 l 39 481 l -41 563 z "},"m":{"ha":1027,"x_min":87,"x_max":941,"o":"m 87 934 l 219 934 l 235 834 l 235 833 q 327 921 275 898 q 429 945 378 945 q 580 839 541 945 q 670 922 620 899 q 770 945 720 945 q 896 887 851 945 q 941 715 941 829 l 941 0 l 769 0 l 769 695 q 750 781 769 757 q 690 805 732 805 q 643 787 667 805 q 599 740 618 770 q 600 728 600 734 q 600 715 600 722 l 600 0 l 428 0 l 428 695 q 409 781 428 757 q 349 805 391 805 q 302 788 326 805 q 259 741 278 771 l 259 0 l 87 0 l 87 934 z "},"ḿ":{"ha":1027,"x_min":87,"x_max":941,"o":"m 87 934 l 219 934 l 235 834 l 235 833 q 327 921 275 898 q 429 945 378 945 q 580 839 541 945 q 670 922 620 899 q 770 945 720 945 q 896 887 851 945 q 941 715 941 829 l 941 0 l 769 0 l 769 695 q 750 781 769 757 q 690 805 732 805 q 643 787 667 805 q 599 740 618 770 q 600 728 600 734 q 600 715 600 722 l 600 0 l 428 0 l 428 695 q 409 781 428 757 q 349 805 391 805 q 302 788 326 805 q 259 741 278 771 l 259 0 l 87 0 l 87 934 m 412 1063 l 608 1345 l 723 1252 l 496 991 l 412 1063 z "},"ṁ":{"ha":1027,"x_min":87,"x_max":941,"o":"m 87 934 l 219 934 l 235 834 l 235 833 q 327 921 275 898 q 429 945 378 945 q 580 839 541 945 q 670 922 620 899 q 770 945 720 945 q 896 887 851 945 q 941 715 941 829 l 941 0 l 769 0 l 769 695 q 750 781 769 757 q 690 805 732 805 q 643 787 667 805 q 599 740 618 770 q 600 728 600 734 q 600 715 600 722 l 600 0 l 428 0 l 428 695 q 409 781 428 757 q 349 805 391 805 q 302 788 326 805 q 259 741 278 771 l 259 0 l 87 0 l 87 934 m 512 1043 q 436 1073 465 1043 q 407 1157 407 1103 q 436 1242 407 1217 q 513 1267 465 1267 q 591 1240 563 1267 q 619 1157 619 1213 q 591 1074 619 1104 q 512 1043 562 1043 z "},"ṃ":{"ha":1027,"x_min":87,"x_max":941,"o":"m 87 934 l 219 934 l 235 834 l 235 833 q 327 921 275 898 q 429 945 378 945 q 580 839 541 945 q 670 922 620 899 q 770 945 720 945 q 896 887 851 945 q 941 715 941 829 l 941 0 l 769 0 l 769 695 q 750 781 769 757 q 690 805 732 805 q 643 787 667 805 q 599 740 618 770 q 600 728 600 734 q 600 715 600 722 l 600 0 l 428 0 l 428 695 q 409 781 428 757 q 349 805 391 805 q 302 788 326 805 q 259 741 278 771 l 259 0 l 87 0 l 87 934 m 408 -174 q 436 -89 408 -114 q 513 -64 465 -64 q 592 -91 564 -64 q 620 -174 620 -118 q 591 -258 620 -227 q 513 -288 563 -288 q 436 -258 465 -288 q 408 -174 408 -229 z "},"ɯ":{"ha":1027,"x_min":86,"x_max":939,"o":"m 939 0 l 808 0 l 791 100 l 791 100 q 701 13 751 37 q 597 -11 650 -11 q 447 95 486 -11 q 357 12 407 35 q 256 -11 307 -11 q 131 47 176 -11 q 86 218 86 104 l 86 934 l 258 934 l 258 239 q 277 153 258 177 q 337 129 296 129 q 385 146 361 129 q 428 194 409 164 q 427 206 427 200 q 427 218 427 212 l 427 934 l 599 934 l 599 239 q 618 153 599 177 q 678 129 637 129 q 725 146 701 129 q 768 193 749 163 l 768 934 l 939 934 l 939 0 z "},"n":{"ha":686,"x_min":87,"x_max":600,"o":"m 87 934 l 218 934 l 235 834 l 235 833 q 326 921 275 898 q 429 945 377 945 q 555 887 510 945 q 600 715 600 829 l 600 0 l 428 0 l 428 695 q 409 781 428 757 q 353 805 390 805 q 303 788 328 805 q 259 741 279 771 l 259 0 l 87 0 l 87 934 z "},"ń":{"ha":686,"x_min":87,"x_max":600,"o":"m 87 934 l 218 934 l 235 834 l 235 833 q 326 921 275 898 q 429 945 377 945 q 555 887 510 945 q 600 715 600 829 l 600 0 l 428 0 l 428 695 q 409 781 428 757 q 353 805 390 805 q 303 788 328 805 q 259 741 279 771 l 259 0 l 87 0 l 87 934 m 241 1063 l 438 1345 l 553 1252 l 326 991 l 241 1063 z "},"ň":{"ha":686,"x_min":87,"x_max":600,"o":"m 87 934 l 218 934 l 235 834 l 235 833 q 326 921 275 898 q 429 945 377 945 q 555 887 510 945 q 600 715 600 829 l 600 0 l 428 0 l 428 695 q 409 781 428 757 q 353 805 390 805 q 303 788 328 805 q 259 741 279 771 l 259 0 l 87 0 l 87 934 m 282 1021 l 99 1354 l 247 1354 l 311 1223 l 345 1134 l 379 1223 l 439 1354 l 587 1354 l 400 1021 l 282 1021 z "},"ṋ":{"ha":686,"x_min":87,"x_max":600,"o":"m 87 934 l 218 934 l 235 834 l 235 833 q 326 921 275 898 q 429 945 377 945 q 555 887 510 945 q 600 715 600 829 l 600 0 l 428 0 l 428 695 q 409 781 428 757 q 353 805 390 805 q 303 788 328 805 q 259 741 279 771 l 259 0 l 87 0 l 87 934 m 400 -44 l 587 -316 l 439 -316 l 379 -213 l 345 -157 l 311 -213 l 247 -316 l 99 -316 l 282 -44 l 400 -44 z "},"ņ":{"ha":686,"x_min":87,"x_max":600,"o":"m 87 934 l 218 934 l 235 834 l 235 833 q 326 921 275 898 q 429 945 377 945 q 555 887 510 945 q 600 715 600 829 l 600 0 l 428 0 l 428 695 q 409 781 428 757 q 353 805 390 805 q 303 788 328 805 q 259 741 279 771 l 259 0 l 87 0 l 87 934 m 425 -66 l 352 -360 l 220 -360 l 262 -66 l 425 -66 z "},"ṅ":{"ha":686,"x_min":87,"x_max":600,"o":"m 87 934 l 218 934 l 235 834 l 235 833 q 326 921 275 898 q 429 945 377 945 q 555 887 510 945 q 600 715 600 829 l 600 0 l 428 0 l 428 695 q 409 781 428 757 q 353 805 390 805 q 303 788 328 805 q 259 741 279 771 l 259 0 l 87 0 l 87 934 m 342 1043 q 266 1073 294 1043 q 237 1157 237 1103 q 266 1242 237 1217 q 342 1267 294 1267 q 421 1240 393 1267 q 449 1157 449 1213 q 420 1074 449 1104 q 342 1043 392 1043 z "},"ṇ":{"ha":686,"x_min":87,"x_max":600,"o":"m 87 934 l 218 934 l 235 834 l 235 833 q 326 921 275 898 q 429 945 377 945 q 555 887 510 945 q 600 715 600 829 l 600 0 l 428 0 l 428 695 q 409 781 428 757 q 353 805 390 805 q 303 788 328 805 q 259 741 279 771 l 259 0 l 87 0 l 87 934 m 237 -174 q 266 -89 237 -114 q 343 -64 295 -64 q 421 -91 393 -64 q 450 -174 450 -118 q 421 -258 450 -227 q 342 -288 393 -288 q 266 -258 295 -288 q 237 -174 237 -229 z "},"ɲ":{"ha":686,"x_min":-9,"x_max":600,"o":"m 74 -301 q 33 -297 54 -301 q -9 -285 12 -294 l -9 -185 q 2 -186 -3 -186 q 13 -186 7 -186 q 65 -163 43 -186 q 87 -79 87 -140 l 87 934 l 218 934 l 235 834 l 235 833 q 326 921 275 898 q 429 945 377 945 q 555 887 510 945 q 600 715 600 829 l 600 0 l 428 0 l 428 695 q 409 781 428 757 q 353 805 390 805 q 303 788 328 805 q 259 741 279 771 l 259 -57 q 236 -211 259 -159 q 172 -282 214 -264 q 74 -301 130 -301 z "},"ṉ":{"ha":686,"x_min":87,"x_max":600,"o":"m 87 934 l 218 934 l 235 834 l 235 833 q 326 921 275 898 q 429 945 377 945 q 555 887 510 945 q 600 715 600 829 l 600 0 l 428 0 l 428 695 q 409 781 428 757 q 353 805 390 805 q 303 788 328 805 q 259 741 279 771 l 259 0 l 87 0 l 87 934 m 132 -106 l 554 -106 l 554 -237 l 132 -237 l 132 -106 z "}}}
